<?xml version="1.0" standalone="no"?>
 <!DOCTYPE svg PUBLIC "-//W3C//DTD SVG 1.1//EN" 
 "http://www.w3.org/Graphics/SVG/1.1/DTD/svg11.dtd"> 
<svg xmlns="http://www.w3.org/2000/svg" version="1.1" 
    width="29.7002cm" height="21.0007cm" viewBox="0 0 116930 82680 ">
<title>SVG Picture created as AmpliMosfet-F.SilkS.svg date 2018/09/26 18:48:54 </title>
  <desc>Picture generated by PCBNEW </desc>
<g style="fill:#000000; fill-opacity:1;stroke:#000000; stroke-opacity:1;
stroke-linecap:round; stroke-linejoin:round; "
 transform="translate(0 0) scale(1 1)">
</g>
<g style="fill:#000000; fill-opacity:0.0; 
stroke:#000000; stroke-width:-0.000393701; stroke-opacity:1; 
stroke-linecap:round; stroke-linejoin:round;">
</g>
<g style="fill:#000000; fill-opacity:0.0; 
stroke:#000000; stroke-width:118.11; stroke-opacity:1; 
stroke-linecap:round; stroke-linejoin:round;">
<path d="M56689 34596
L56970 34596
" />
<path d="M56633 34765
L56829 34174
L57026 34765
" />
<path d="M57223 34708
L57251 34737
L57223 34765
L57195 34737
L57223 34708
L57223 34765
" />
<path d="M57223 34399
L57251 34427
L57223 34455
L57195 34427
L57223 34399
L57223 34455
" />
<path d="M58292 34765
L58095 34483
" />
<path d="M57954 34765
L57954 34174
L58179 34174
L58235 34202
L58264 34230
L58292 34287
L58292 34371
L58264 34427
L58235 34455
L58179 34483
L57954 34483
" />
<path d="M58517 34737
L58601 34765
L58742 34765
L58798 34737
L58826 34708
L58854 34652
L58854 34596
L58826 34540
L58798 34512
L58742 34483
L58629 34455
L58573 34427
L58545 34399
L58517 34343
L58517 34287
L58545 34230
L58573 34202
L58629 34174
L58770 34174
L58854 34202
" />
<path d="M59079 34737
L59163 34765
L59304 34765
L59360 34737
L59388 34708
L59417 34652
L59417 34596
L59388 34540
L59360 34512
L59304 34483
L59192 34455
L59135 34427
L59107 34399
L59079 34343
L59079 34287
L59107 34230
L59135 34202
L59192 34174
L59332 34174
L59417 34202
" />
<path d="M59670 34765
L59670 34174
L59895 34174
L59951 34202
L59979 34230
L60007 34287
L60007 34371
L59979 34427
L59951 34455
L59895 34483
L59670 34483
" />
<path d="M57054 35712
L57026 35741
L56942 35769
L56886 35769
L56801 35741
L56745 35684
L56717 35628
L56689 35516
L56689 35431
L56717 35319
L56745 35262
L56801 35206
L56886 35178
L56942 35178
L57026 35206
L57054 35234
" />
<path d="M57307 35712
L57336 35741
L57307 35769
L57279 35741
L57307 35712
L57307 35769
" />
<path d="M57307 35403
L57336 35431
L57307 35459
L57279 35431
L57307 35403
L57307 35459
" />
<path d="M58010 35741
L58095 35769
L58235 35769
L58292 35741
L58320 35712
L58348 35656
L58348 35600
L58320 35544
L58292 35516
L58235 35487
L58123 35459
L58067 35431
L58039 35403
L58010 35347
L58010 35291
L58039 35234
L58067 35206
L58123 35178
L58264 35178
L58348 35206
" />
<path d="M58938 35712
L58910 35741
L58826 35769
L58770 35769
L58685 35741
L58629 35684
L58601 35628
L58573 35516
L58573 35431
L58601 35319
L58629 35262
L58685 35206
L58770 35178
L58826 35178
L58910 35206
L58938 35234
" />
<path d="M44446 34176
L44783 34176
" />
<path d="M44614 34767
L44614 34176
" />
<path d="M44980 34767
L44980 34176
L45205 34176
L45261 34204
L45289 34232
L45317 34289
L45317 34373
L45289 34429
L45261 34457
L45205 34485
L44980 34485
" />
<path d="M45880 34767
L45542 34767
" />
<path d="M45711 34767
L45711 34176
L45655 34260
L45598 34317
L45542 34345
" />
<path d="M46583 34767
L46583 34176
L46780 34598
L46976 34176
L46976 34767
" />
<path d="M47342 34767
L47286 34739
L47258 34710
L47230 34654
L47230 34485
L47258 34429
L47286 34401
L47342 34373
L47426 34373
L47483 34401
L47511 34429
L47539 34485
L47539 34654
L47511 34710
L47483 34739
L47426 34767
L47342 34767
" />
<path d="M47764 34739
L47820 34767
L47933 34767
L47989 34739
L48017 34682
L48017 34654
L47989 34598
L47933 34570
L47848 34570
L47792 34542
L47764 34485
L47764 34457
L47792 34401
L47848 34373
L47933 34373
L47989 34401
" />
<path d="M48186 34373
L48411 34373
" />
<path d="M48270 34767
L48270 34260
L48298 34204
L48354 34176
L48411 34176
" />
<path d="M48832 34739
L48776 34767
L48664 34767
L48607 34739
L48579 34682
L48579 34457
L48607 34401
L48664 34373
L48776 34373
L48832 34401
L48861 34457
L48861 34514
L48579 34570
" />
<path d="M49029 34373
L49254 34373
" />
<path d="M49114 34176
L49114 34682
L49142 34739
L49198 34767
L49254 34767
" />
</g>
<g style="fill:#000000; fill-opacity:0.0; 
stroke:#000000; stroke-width:59.0551; stroke-opacity:1; 
stroke-linecap:round; stroke-linejoin:round;">
<path d="M54178 43978
L53953 43978
" />
<path d="M54065 43978
L54065 43584
L54028 43640
L53990 43678
L53953 43696
" />
<path d="M54421 43584
L54459 43584
L54496 43603
L54515 43621
L54534 43659
L54553 43734
L54553 43828
L54534 43903
L54515 43940
L54496 43959
L54459 43978
L54421 43978
L54384 43959
L54365 43940
L54346 43903
L54328 43828
L54328 43734
L54346 43659
L54365 43621
L54384 43603
L54421 43584
" />
<path d="M54890 43715
L54890 43978
" />
<path d="M54721 43715
L54721 43921
L54740 43959
L54778 43978
L54834 43978
L54871 43959
L54890 43940
" />
<path d="M55209 43771
L55078 43771
" />
<path d="M55078 43978
L55078 43584
L55265 43584
" />
<path d="M53990 41178
L53765 41178
" />
<path d="M53878 41178
L53878 40784
L53840 40840
L53803 40878
L53765 40896
" />
<path d="M54234 40784
L54271 40784
L54309 40803
L54328 40821
L54346 40859
L54365 40934
L54365 41028
L54346 41103
L54328 41140
L54309 41159
L54271 41178
L54234 41178
L54196 41159
L54178 41140
L54159 41103
L54140 41028
L54140 40934
L54159 40859
L54178 40821
L54196 40803
L54234 40784
" />
<path d="M54609 40784
L54646 40784
L54684 40803
L54703 40821
L54721 40859
L54740 40934
L54740 41028
L54721 41103
L54703 41140
L54684 41159
L54646 41178
L54609 41178
L54571 41159
L54553 41140
L54534 41103
L54515 41028
L54515 40934
L54534 40859
L54553 40821
L54571 40803
L54609 40784
" />
<path d="M55078 40915
L55078 41178
" />
<path d="M54909 40915
L54909 41121
L54928 41159
L54965 41178
L55021 41178
L55059 41159
L55078 41140
" />
<path d="M55396 40971
L55265 40971
" />
<path d="M55265 41178
L55265 40784
L55453 40784
" />
<path d="M53990 37778
L53765 37778
" />
<path d="M53878 37778
L53878 37384
L53840 37440
L53803 37478
L53765 37496
" />
<path d="M54234 37384
L54271 37384
L54309 37403
L54328 37421
L54346 37459
L54365 37534
L54365 37628
L54346 37703
L54328 37740
L54309 37759
L54271 37778
L54234 37778
L54196 37759
L54178 37740
L54159 37703
L54140 37628
L54140 37534
L54159 37459
L54178 37421
L54196 37403
L54234 37384
" />
<path d="M54609 37384
L54646 37384
L54684 37403
L54703 37421
L54721 37459
L54740 37534
L54740 37628
L54721 37703
L54703 37740
L54684 37759
L54646 37778
L54609 37778
L54571 37759
L54553 37740
L54534 37703
L54515 37628
L54515 37534
L54534 37459
L54553 37421
L54571 37403
L54609 37384
" />
<path d="M55078 37515
L55078 37778
" />
<path d="M54909 37515
L54909 37721
L54928 37759
L54965 37778
L55021 37778
L55059 37759
L55078 37740
" />
<path d="M55396 37571
L55265 37571
" />
<path d="M55265 37778
L55265 37384
L55453 37384
" />
<path d="M59728 44178
L59503 44178
" />
<path d="M59615 44178
L59615 43784
L59578 43840
L59540 43878
L59503 43896
" />
<path d="M59878 43821
L59896 43803
L59934 43784
L60028 43784
L60065 43803
L60084 43821
L60103 43859
L60103 43896
L60084 43953
L59859 44178
L60103 44178
" />
<path d="M60271 44178
L60271 43784
" />
<path d="M60496 44178
L60328 43953
" />
<path d="M60496 43784
L60271 44009
" />
<path d="M59887 42678
L59662 42678
" />
<path d="M59775 42678
L59775 42284
L59737 42340
L59700 42378
L59662 42396
" />
<path d="M60056 42678
L60056 42284
L60187 42565
L60318 42284
L60318 42678
" />
<path d="M59484 40953
L59446 40934
L59428 40915
L59409 40878
L59409 40859
L59428 40821
L59446 40803
L59484 40784
L59559 40784
L59596 40803
L59615 40821
L59634 40859
L59634 40878
L59615 40915
L59596 40934
L59559 40953
L59484 40953
L59446 40971
L59428 40990
L59409 41028
L59409 41103
L59428 41140
L59446 41159
L59484 41178
L59559 41178
L59596 41159
L59615 41140
L59634 41103
L59634 41028
L59615 40990
L59596 40971
L59559 40953
" />
<path d="M59821 41159
L59821 41178
L59803 41215
L59784 41234
" />
<path d="M59971 40821
L59990 40803
L60028 40784
L60121 40784
L60159 40803
L60178 40821
L60196 40859
L60196 40896
L60178 40953
L59953 41178
L60196 41178
" />
<path d="M60365 41178
L60365 40784
" />
<path d="M60590 41178
L60421 40953
" />
<path d="M60590 40784
L60365 41009
" />
<path d="M48728 42678
L48503 42678
" />
<path d="M48615 42678
L48615 42284
L48578 42340
L48540 42378
L48503 42396
" />
<path d="M48971 42284
L49009 42284
L49046 42303
L49065 42321
L49084 42359
L49103 42434
L49103 42528
L49084 42603
L49065 42640
L49046 42659
L49009 42678
L48971 42678
L48934 42659
L48915 42640
L48896 42603
L48878 42528
L48878 42434
L48896 42359
L48915 42321
L48934 42303
L48971 42284
" />
<path d="M49271 42678
L49271 42284
" />
<path d="M49496 42678
L49328 42453
" />
<path d="M49496 42284
L49271 42509
" />
<path d="M48681 40784
L48925 40784
L48793 40934
L48850 40934
L48887 40953
L48906 40971
L48925 41009
L48925 41103
L48906 41140
L48887 41159
L48850 41178
L48737 41178
L48700 41159
L48681 41140
" />
<path d="M49056 40784
L49299 40784
L49168 40934
L49224 40934
L49262 40953
L49281 40971
L49299 41009
L49299 41103
L49281 41140
L49262 41159
L49224 41178
L49112 41178
L49074 41159
L49056 41140
" />
<path d="M48718 39284
L48531 39284
L48512 39471
L48531 39453
L48568 39434
L48662 39434
L48700 39453
L48718 39471
L48737 39509
L48737 39603
L48718 39640
L48700 39659
L48662 39678
L48568 39678
L48531 39659
L48512 39640
" />
<path d="M49074 39284
L49000 39284
L48962 39303
L48943 39321
L48906 39378
L48887 39453
L48887 39603
L48906 39640
L48925 39659
L48962 39678
L49037 39678
L49074 39659
L49093 39640
L49112 39603
L49112 39509
L49093 39471
L49074 39453
L49037 39434
L48962 39434
L48925 39453
L48906 39471
L48887 39509
" />
<path d="M49356 39284
L49393 39284
L49431 39303
L49449 39321
L49468 39359
L49487 39434
L49487 39528
L49468 39603
L49449 39640
L49431 39659
L49393 39678
L49356 39678
L49318 39659
L49299 39640
L49281 39603
L49262 39528
L49262 39434
L49281 39359
L49299 39321
L49318 39303
L49356 39284
" />
<path d="M48887 38178
L48662 38178
" />
<path d="M48775 38178
L48775 37784
L48737 37840
L48700 37878
L48662 37896
" />
<path d="M49056 38178
L49056 37784
L49187 38065
L49318 37784
L49318 38178
" />
<path d="M48728 36678
L48503 36678
" />
<path d="M48615 36678
L48615 36284
L48578 36340
L48540 36378
L48503 36396
" />
<path d="M48878 36321
L48896 36303
L48934 36284
L49028 36284
L49065 36303
L49084 36321
L49103 36359
L49103 36396
L49084 36453
L48859 36678
L49103 36678
" />
<path d="M49271 36678
L49271 36284
" />
<path d="M49496 36678
L49328 36453
" />
<path d="M49496 36284
L49271 36509
" />
</g>
<g style="fill:#000000; fill-opacity:0.0; 
stroke:#000000; stroke-width:118.11; stroke-opacity:1; 
stroke-linecap:round; stroke-linejoin:round;">
<path d="M44333 43859
L44136 43578
" />
<path d="M43996 43859
L43996 43269
L44221 43269
L44277 43297
L44305 43325
L44333 43381
L44333 43465
L44305 43522
L44277 43550
L44221 43578
L43996 43578
" />
<path d="M44530 43269
L44895 43269
L44699 43494
L44783 43494
L44839 43522
L44867 43550
L44895 43606
L44895 43747
L44867 43803
L44839 43831
L44783 43859
L44614 43859
L44558 43831
L44530 43803
" />
<path d="M45430 43269
L45149 43269
L45120 43550
L45149 43522
L45205 43494
L45345 43494
L45402 43522
L45430 43550
L45458 43606
L45458 43747
L45430 43803
L45402 43831
L45345 43859
L45205 43859
L45149 43831
L45120 43803
" />
<path d="M45655 43269
L46048 43269
L45795 43859
" />
<path d="M46583 43859
L46245 43859
" />
<path d="M46414 43859
L46414 43269
L46358 43353
L46302 43409
L46245 43437
" />
<path d="M43939 44301
L43883 44273
L43799 44273
L43714 44301
L43658 44357
L43630 44413
L43602 44526
L43602 44610
L43630 44723
L43658 44779
L43714 44835
L43799 44863
L43855 44863
L43939 44835
L43967 44807
L43967 44610
L43855 44610
" />
<path d="M44221 44863
L44221 44469
" />
<path d="M44221 44582
L44249 44526
L44277 44498
L44333 44469
L44389 44469
" />
<path d="M44839 44469
L44839 44863
" />
<path d="M44586 44469
L44586 44779
L44614 44835
L44670 44863
L44755 44863
L44811 44835
L44839 44807
" />
<path d="M45120 44469
L45120 45060
" />
<path d="M45120 44498
L45177 44469
L45289 44469
L45345 44498
L45374 44526
L45402 44582
L45402 44751
L45374 44807
L45345 44835
L45289 44863
L45177 44863
L45120 44835
" />
<path d="M45739 44863
L45683 44835
L45655 44807
L45627 44751
L45627 44582
L45655 44526
L45683 44498
L45739 44469
L45823 44469
L45880 44498
L45908 44526
L45936 44582
L45936 44751
L45908 44807
L45880 44835
L45823 44863
L45739 44863
" />
<path d="M46611 44329
L46639 44301
L46695 44273
L46836 44273
L46892 44301
L46920 44329
L46948 44385
L46948 44441
L46920 44526
L46583 44863
L46948 44863
" />
<path d="M46217 41043
L46161 41015
L46077 41015
L45992 41043
L45936 41099
L45908 41155
L45880 41268
L45880 41352
L45908 41465
L45936 41521
L45992 41577
L46077 41605
L46133 41605
L46217 41577
L46245 41549
L46245 41352
L46133 41352
" />
<path d="M45894 39609
L45978 39637
L46119 39637
L46175 39609
L46203 39580
L46231 39524
L46231 39468
L46203 39412
L46175 39384
L46119 39356
L46006 39327
L45950 39299
L45922 39271
L45894 39215
L45894 39159
L45922 39102
L45950 39074
L46006 39046
L46147 39046
L46231 39074
" />
<path d="M45950 37668
L45613 37668
" />
<path d="M45781 37668
L45781 37078
L45725 37162
L45669 37218
L45613 37246
" />
<path d="M46175 37134
L46203 37106
L46259 37078
L46400 37078
L46456 37106
L46484 37134
L46512 37190
L46512 37246
L46484 37331
L46147 37668
L46512 37668
" />
</g>
<g style="fill:#000000; fill-opacity:0.0; 
stroke:#000000; stroke-width:59.0551; stroke-opacity:1; 
stroke-linecap:round; stroke-linejoin:round;">
<path d="M57209 46284
L57340 46678
L57471 46284
" />
<path d="M57790 46678
L57603 46678
L57603 46284
" />
<path d="M54671 46284
L54803 46678
L54934 46284
" />
<path d="M55271 46303
L55234 46284
L55178 46284
L55121 46303
L55084 46340
L55065 46378
L55046 46453
L55046 46509
L55065 46584
L55084 46621
L55121 46659
L55178 46678
L55215 46678
L55271 46659
L55290 46640
L55290 46509
L55215 46509
" />
<path d="M51212 46465
L51400 46465
" />
<path d="M51175 46578
L51306 46184
L51437 46578
" />
<path d="M51512 46315
L51662 46315
" />
<path d="M51568 46184
L51568 46521
L51587 46559
L51625 46578
L51662 46578
" />
<path d="M51943 46559
L51906 46578
L51831 46578
L51793 46559
L51775 46521
L51775 46371
L51793 46334
L51831 46315
L51906 46315
L51943 46334
L51962 46371
L51962 46409
L51775 46446
" />
<path d="M52131 46315
L52131 46578
" />
<path d="M52131 46353
L52150 46334
L52187 46315
L52243 46315
L52281 46334
L52300 46371
L52300 46578
" />
<path d="M52656 46315
L52656 46578
" />
<path d="M52487 46315
L52487 46521
L52506 46559
L52543 46578
L52600 46578
L52637 46559
L52656 46540
" />
<path d="M53012 46578
L53012 46371
L52993 46334
L52956 46315
L52881 46315
L52843 46334
" />
<path d="M53012 46559
L52974 46578
L52881 46578
L52843 46559
L52824 46521
L52824 46484
L52843 46446
L52881 46428
L52974 46428
L53012 46409
" />
<path d="M53368 46578
L53368 46184
" />
<path d="M53368 46559
L53331 46578
L53256 46578
L53218 46559
L53199 46540
L53181 46503
L53181 46390
L53199 46353
L53218 46334
L53256 46315
L53331 46315
L53368 46334
" />
<path d="M53612 46578
L53574 46559
L53556 46540
L53537 46503
L53537 46390
L53556 46353
L53574 46334
L53612 46315
L53668 46315
L53706 46334
L53724 46353
L53743 46390
L53743 46503
L53724 46540
L53706 46559
L53668 46578
L53612 46578
" />
<path d="M53912 46578
L53912 46315
" />
<path d="M53912 46390
L53931 46353
L53949 46334
L53987 46315
L54024 46315
" />
<path d="M49700 46303
L49662 46284
L49606 46284
L49550 46303
L49512 46340
L49493 46378
L49475 46453
L49475 46509
L49493 46584
L49512 46621
L49550 46659
L49606 46678
L49643 46678
L49700 46659
L49718 46640
L49718 46509
L49643 46509
" />
<path d="M49887 46678
L49887 46284
L50112 46678
L50112 46284
" />
<path d="M50299 46678
L50299 46284
L50393 46284
L50449 46303
L50487 46340
L50506 46378
L50524 46453
L50524 46509
L50506 46584
L50487 46621
L50449 46659
L50393 46678
L50299 46678
" />
</g>
<g style="fill:#000000; fill-opacity:0.0; 
stroke:#000000; stroke-width:47.2441; stroke-opacity:1; 
stroke-linecap:round; stroke-linejoin:round;">
<circle cx="54500" cy="42393.7" r="1031.5" /> 
<path d="M54090 42393
L53484 42393
" />
<path d="M55515 42393
L54909 42393
" />
<path d="M54090 42409
L53484 42409
" />
<path d="M55515 42409
L54909 42409
" />
<path d="M55515 42425
L54909 42425
" />
<path d="M54090 42425
L53484 42425
" />
<path d="M55514 42440
L54909 42440
" />
<path d="M54090 42440
L53485 42440
" />
<path d="M55514 42456
L54909 42456
" />
<path d="M54090 42456
L53485 42456
" />
<path d="M55512 42472
L54909 42472
" />
<path d="M54090 42472
L53487 42472
" />
<path d="M55511 42488
L54909 42488
" />
<path d="M54090 42488
L53488 42488
" />
<path d="M55509 42503
L54909 42503
" />
<path d="M54090 42503
L53490 42503
" />
<path d="M55508 42519
L54909 42519
" />
<path d="M54090 42519
L53491 42519
" />
<path d="M55506 42535
L54909 42535
" />
<path d="M54090 42535
L53493 42535
" />
<path d="M55503 42551
L54909 42551
" />
<path d="M54090 42551
L53496 42551
" />
<path d="M55501 42566
L54909 42566
" />
<path d="M54090 42566
L53498 42566
" />
<path d="M55498 42582
L54909 42582
" />
<path d="M54090 42582
L53501 42582
" />
<path d="M55495 42598
L54909 42598
" />
<path d="M54090 42598
L53504 42598
" />
<path d="M55492 42614
L54909 42614
" />
<path d="M54090 42614
L53507 42614
" />
<path d="M55488 42629
L54909 42629
" />
<path d="M54090 42629
L53511 42629
" />
<path d="M55484 42645
L54909 42645
" />
<path d="M54090 42645
L53515 42645
" />
<path d="M55480 42661
L54909 42661
" />
<path d="M54090 42661
L53519 42661
" />
<path d="M55476 42677
L54909 42677
" />
<path d="M54090 42677
L53523 42677
" />
<path d="M55471 42693
L54909 42693
" />
<path d="M54090 42693
L53528 42693
" />
<path d="M55466 42709
L54909 42709
" />
<path d="M54090 42709
L53533 42709
" />
<path d="M55461 42724
L54909 42724
" />
<path d="M54090 42724
L53538 42724
" />
<path d="M55455 42740
L54909 42740
" />
<path d="M54090 42740
L53544 42740
" />
<path d="M55450 42756
L54909 42756
" />
<path d="M54090 42756
L53549 42756
" />
<path d="M55444 42772
L54909 42772
" />
<path d="M54090 42772
L53555 42772
" />
<path d="M55437 42787
L54909 42787
" />
<path d="M54090 42787
L53562 42787
" />
<path d="M55431 42803
L54909 42803
" />
<path d="M54090 42803
L53568 42803
" />
<path d="M55424 42819
L54909 42819
" />
<path d="M54090 42819
L53575 42819
" />
<path d="M55416 42835
L54909 42835
" />
<path d="M54090 42835
L53583 42835
" />
<path d="M55409 42850
L54909 42850
" />
<path d="M54090 42850
L53590 42850
" />
<path d="M55401 42866
L54909 42866
" />
<path d="M54090 42866
L53598 42866
" />
<path d="M55392 42882
L54909 42882
" />
<path d="M54090 42882
L53607 42882
" />
<path d="M55384 42898
L54909 42898
" />
<path d="M54090 42898
L53615 42898
" />
<path d="M55375 42913
L54909 42913
" />
<path d="M54090 42913
L53624 42913
" />
<path d="M55366 42929
L54909 42929
" />
<path d="M54090 42929
L53633 42929
" />
<path d="M55356 42945
L54909 42945
" />
<path d="M54090 42945
L53643 42945
" />
<path d="M55346 42961
L54909 42961
" />
<path d="M54090 42961
L53653 42961
" />
<path d="M55335 42976
L54909 42976
" />
<path d="M54090 42976
L53664 42976
" />
<path d="M55324 42992
L54909 42992
" />
<path d="M54090 42992
L53675 42992
" />
<path d="M55312 43008
L54909 43008
" />
<path d="M54090 43008
L53687 43008
" />
<path d="M55301 43024
L54909 43024
" />
<path d="M54090 43024
L53698 43024
" />
<path d="M55288 43039
L54909 43039
" />
<path d="M54090 43039
L53711 43039
" />
<path d="M55275 43055
L54909 43055
" />
<path d="M54090 43055
L53724 43055
" />
<path d="M55262 43071
L54909 43071
" />
<path d="M54090 43071
L53737 43071
" />
<path d="M55248 43087
L54909 43087
" />
<path d="M54090 43087
L53751 43087
" />
<path d="M55233 43102
L54909 43102
" />
<path d="M54090 43102
L53766 43102
" />
<path d="M55218 43118
L54909 43118
" />
<path d="M54090 43118
L53781 43118
" />
<path d="M55202 43134
L54909 43134
" />
<path d="M54090 43134
L53797 43134
" />
<path d="M55186 43150
L54909 43150
" />
<path d="M54090 43150
L53813 43150
" />
<path d="M55168 43165
L54909 43165
" />
<path d="M54090 43165
L53831 43165
" />
<path d="M55150 43181
L54909 43181
" />
<path d="M54090 43181
L53849 43181
" />
<path d="M55131 43197
L53868 43197
" />
<path d="M55111 43212
L53888 43212
" />
<path d="M55090 43228
L53909 43228
" />
<path d="M55068 43244
L53931 43244
" />
<path d="M55044 43260
L53955 43260
" />
<path d="M55019 43275
L53980 43275
" />
<path d="M54992 43291
L54007 43291
" />
<path d="M54963 43307
L54036 43307
" />
<path d="M54932 43323
L54067 43323
" />
<path d="M54898 43338
L54101 43338
" />
<path d="M54860 43354
L54139 43354
" />
<path d="M54816 43370
L54183 43370
" />
<path d="M54766 43386
L54233 43386
" />
<path d="M54703 43401
L54296 43401
" />
<path d="M54611 43417
L54388 43417
" />
<path d="M55080 41289
L55080 41486
" />
<path d="M55179 41387
L54982 41387
" />
<path d="M55348 34738
L55100 34738
" />
<path d="M55224 34614
L55224 34862
" />
<path d="M54658 37268
L54341 37268
" />
<path d="M54749 37252
L54250 37252
" />
<path d="M54815 37236
L54184 37236
" />
<path d="M54870 37220
L54129 37220
" />
<path d="M54916 37205
L54083 37205
" />
<path d="M54958 37189
L54041 37189
" />
<path d="M54996 37173
L54003 37173
" />
<path d="M55031 37157
L53968 37157
" />
<path d="M55063 37142
L53936 37142
" />
<path d="M55094 37126
L53905 37126
" />
<path d="M55122 37110
L53877 37110
" />
<path d="M55149 37094
L53850 37094
" />
<path d="M55174 37079
L53825 37079
" />
<path d="M55199 37063
L53800 37063
" />
<path d="M55222 37047
L53777 37047
" />
<path d="M55244 37031
L53755 37031
" />
<path d="M55265 37016
L53734 37016
" />
<path d="M55285 37000
L53714 37000
" />
<path d="M55304 36984
L53695 36984
" />
<path d="M55323 36968
L53676 36968
" />
<path d="M55341 36953
L53658 36953
" />
<path d="M55359 36937
L53640 36937
" />
<path d="M55375 36921
L53624 36921
" />
<path d="M55391 36905
L53608 36905
" />
<path d="M54090 36890
L53592 36890
" />
<path d="M55407 36890
L54909 36890
" />
<path d="M54090 36874
L53577 36874
" />
<path d="M55422 36874
L54909 36874
" />
<path d="M54090 36858
L53562 36858
" />
<path d="M55437 36858
L54909 36858
" />
<path d="M54090 36842
L53548 36842
" />
<path d="M55451 36842
L54909 36842
" />
<path d="M54090 36827
L53535 36827
" />
<path d="M55464 36827
L54909 36827
" />
<path d="M54090 36811
L53522 36811
" />
<path d="M55477 36811
L54909 36811
" />
<path d="M54090 36795
L53509 36795
" />
<path d="M55490 36795
L54909 36795
" />
<path d="M54090 36779
L53496 36779
" />
<path d="M55503 36779
L54909 36779
" />
<path d="M54090 36764
L53485 36764
" />
<path d="M55514 36764
L54909 36764
" />
<path d="M54090 36748
L53473 36748
" />
<path d="M55526 36748
L54909 36748
" />
<path d="M54090 36732
L53462 36732
" />
<path d="M55537 36732
L54909 36732
" />
<path d="M54090 36716
L53451 36716
" />
<path d="M55548 36716
L54909 36716
" />
<path d="M54090 36701
L53440 36701
" />
<path d="M55559 36701
L54909 36701
" />
<path d="M54090 36685
L53430 36685
" />
<path d="M55569 36685
L54909 36685
" />
<path d="M54090 36669
L53420 36669
" />
<path d="M55579 36669
L54909 36669
" />
<path d="M54090 36653
L53411 36653
" />
<path d="M55588 36653
L54909 36653
" />
<path d="M54090 36638
L53401 36638
" />
<path d="M55598 36638
L54909 36638
" />
<path d="M54090 36622
L53392 36622
" />
<path d="M55607 36622
L54909 36622
" />
<path d="M54090 36606
L53384 36606
" />
<path d="M55615 36606
L54909 36606
" />
<path d="M54090 36590
L53375 36590
" />
<path d="M55624 36590
L54909 36590
" />
<path d="M54090 36575
L53367 36575
" />
<path d="M55632 36575
L54909 36575
" />
<path d="M54090 36559
L53359 36559
" />
<path d="M55640 36559
L54909 36559
" />
<path d="M54090 36543
L53351 36543
" />
<path d="M55648 36543
L54909 36543
" />
<path d="M54090 36527
L53344 36527
" />
<path d="M55655 36527
L54909 36527
" />
<path d="M54090 36512
L53337 36512
" />
<path d="M55662 36512
L54909 36512
" />
<path d="M54090 36496
L53330 36496
" />
<path d="M55669 36496
L54909 36496
" />
<path d="M54090 36480
L53324 36480
" />
<path d="M55675 36480
L54909 36480
" />
<path d="M54090 36464
L53318 36464
" />
<path d="M55681 36464
L54909 36464
" />
<path d="M54090 36449
L53311 36449
" />
<path d="M55688 36449
L54909 36449
" />
<path d="M54090 36433
L53305 36433
" />
<path d="M55694 36433
L54909 36433
" />
<path d="M54090 36417
L53300 36417
" />
<path d="M55699 36417
L54909 36417
" />
<path d="M54090 36401
L53294 36401
" />
<path d="M55705 36401
L54909 36401
" />
<path d="M54090 36386
L53289 36386
" />
<path d="M55710 36386
L54909 36386
" />
<path d="M54090 36370
L53285 36370
" />
<path d="M55714 36370
L54909 36370
" />
<path d="M54090 36354
L53280 36354
" />
<path d="M55719 36354
L54909 36354
" />
<path d="M54090 36338
L53275 36338
" />
<path d="M55724 36338
L54909 36338
" />
<path d="M54090 36323
L53271 36323
" />
<path d="M55728 36323
L54909 36323
" />
<path d="M54090 36307
L53267 36307
" />
<path d="M55732 36307
L54909 36307
" />
<path d="M54090 36291
L53263 36291
" />
<path d="M55736 36291
L54909 36291
" />
<path d="M54090 36275
L53259 36275
" />
<path d="M55740 36275
L54909 36275
" />
<path d="M54090 36259
L53256 36259
" />
<path d="M55743 36259
L54909 36259
" />
<path d="M54090 36244
L53253 36244
" />
<path d="M55746 36244
L54909 36244
" />
<path d="M54090 36228
L53250 36228
" />
<path d="M55750 36228
L54909 36228
" />
<path d="M54090 36212
L53247 36212
" />
<path d="M55752 36212
L54909 36212
" />
<path d="M54090 36196
L53244 36196
" />
<path d="M55755 36196
L54909 36196
" />
<path d="M54090 36181
L53242 36181
" />
<path d="M55757 36181
L54909 36181
" />
<path d="M54090 36165
L53239 36165
" />
<path d="M55760 36165
L54909 36165
" />
<path d="M54090 36149
L53237 36149
" />
<path d="M55762 36149
L54909 36149
" />
<path d="M54090 36133
L53235 36133
" />
<path d="M55764 36133
L54909 36133
" />
<path d="M54090 36118
L53234 36118
" />
<path d="M55765 36118
L54909 36118
" />
<path d="M54090 36102
L53233 36102
" />
<path d="M55766 36102
L54909 36102
" />
<path d="M54090 36086
L53231 36086
" />
<path d="M55768 36086
L54909 36086
" />
<path d="M55769 36070
L53230 36070
" />
<path d="M55770 36055
L53229 36055
" />
<path d="M55770 36039
L53229 36039
" />
<path d="M55771 36023
L53228 36023
" />
<path d="M55771 36007
L53228 36007
" />
<path d="M55771 35992
L53228 35992
" />
<circle cx="54500" cy="35992.1" r="1287.4" /> 
<circle cx="54500" cy="39492.1" r="1287.4" /> 
<path d="M55771 39492
L53228 39492
" />
<path d="M55771 39507
L53228 39507
" />
<path d="M55771 39523
L53228 39523
" />
<path d="M55770 39539
L53229 39539
" />
<path d="M55770 39555
L53229 39555
" />
<path d="M55769 39570
L53230 39570
" />
<path d="M55768 39586
L54909 39586
" />
<path d="M54090 39586
L53231 39586
" />
<path d="M55766 39602
L54909 39602
" />
<path d="M54090 39602
L53233 39602
" />
<path d="M55765 39618
L54909 39618
" />
<path d="M54090 39618
L53234 39618
" />
<path d="M55764 39633
L54909 39633
" />
<path d="M54090 39633
L53235 39633
" />
<path d="M55762 39649
L54909 39649
" />
<path d="M54090 39649
L53237 39649
" />
<path d="M55760 39665
L54909 39665
" />
<path d="M54090 39665
L53239 39665
" />
<path d="M55757 39681
L54909 39681
" />
<path d="M54090 39681
L53242 39681
" />
<path d="M55755 39696
L54909 39696
" />
<path d="M54090 39696
L53244 39696
" />
<path d="M55752 39712
L54909 39712
" />
<path d="M54090 39712
L53247 39712
" />
<path d="M55750 39728
L54909 39728
" />
<path d="M54090 39728
L53250 39728
" />
<path d="M55746 39744
L54909 39744
" />
<path d="M54090 39744
L53253 39744
" />
<path d="M55743 39759
L54909 39759
" />
<path d="M54090 39759
L53256 39759
" />
<path d="M55740 39775
L54909 39775
" />
<path d="M54090 39775
L53259 39775
" />
<path d="M55736 39791
L54909 39791
" />
<path d="M54090 39791
L53263 39791
" />
<path d="M55732 39807
L54909 39807
" />
<path d="M54090 39807
L53267 39807
" />
<path d="M55728 39823
L54909 39823
" />
<path d="M54090 39823
L53271 39823
" />
<path d="M55724 39838
L54909 39838
" />
<path d="M54090 39838
L53275 39838
" />
<path d="M55719 39854
L54909 39854
" />
<path d="M54090 39854
L53280 39854
" />
<path d="M55714 39870
L54909 39870
" />
<path d="M54090 39870
L53285 39870
" />
<path d="M55710 39886
L54909 39886
" />
<path d="M54090 39886
L53289 39886
" />
<path d="M55705 39901
L54909 39901
" />
<path d="M54090 39901
L53294 39901
" />
<path d="M55699 39917
L54909 39917
" />
<path d="M54090 39917
L53300 39917
" />
<path d="M55694 39933
L54909 39933
" />
<path d="M54090 39933
L53305 39933
" />
<path d="M55688 39949
L54909 39949
" />
<path d="M54090 39949
L53311 39949
" />
<path d="M55681 39964
L54909 39964
" />
<path d="M54090 39964
L53318 39964
" />
<path d="M55675 39980
L54909 39980
" />
<path d="M54090 39980
L53324 39980
" />
<path d="M55669 39996
L54909 39996
" />
<path d="M54090 39996
L53330 39996
" />
<path d="M55662 40012
L54909 40012
" />
<path d="M54090 40012
L53337 40012
" />
<path d="M55655 40027
L54909 40027
" />
<path d="M54090 40027
L53344 40027
" />
<path d="M55648 40043
L54909 40043
" />
<path d="M54090 40043
L53351 40043
" />
<path d="M55640 40059
L54909 40059
" />
<path d="M54090 40059
L53359 40059
" />
<path d="M55632 40075
L54909 40075
" />
<path d="M54090 40075
L53367 40075
" />
<path d="M55624 40090
L54909 40090
" />
<path d="M54090 40090
L53375 40090
" />
<path d="M55615 40106
L54909 40106
" />
<path d="M54090 40106
L53384 40106
" />
<path d="M55607 40122
L54909 40122
" />
<path d="M54090 40122
L53392 40122
" />
<path d="M55598 40138
L54909 40138
" />
<path d="M54090 40138
L53401 40138
" />
<path d="M55588 40153
L54909 40153
" />
<path d="M54090 40153
L53411 40153
" />
<path d="M55579 40169
L54909 40169
" />
<path d="M54090 40169
L53420 40169
" />
<path d="M55569 40185
L54909 40185
" />
<path d="M54090 40185
L53430 40185
" />
<path d="M55559 40201
L54909 40201
" />
<path d="M54090 40201
L53440 40201
" />
<path d="M55548 40216
L54909 40216
" />
<path d="M54090 40216
L53451 40216
" />
<path d="M55537 40232
L54909 40232
" />
<path d="M54090 40232
L53462 40232
" />
<path d="M55526 40248
L54909 40248
" />
<path d="M54090 40248
L53473 40248
" />
<path d="M55514 40264
L54909 40264
" />
<path d="M54090 40264
L53485 40264
" />
<path d="M55503 40279
L54909 40279
" />
<path d="M54090 40279
L53496 40279
" />
<path d="M55490 40295
L54909 40295
" />
<path d="M54090 40295
L53509 40295
" />
<path d="M55477 40311
L54909 40311
" />
<path d="M54090 40311
L53522 40311
" />
<path d="M55464 40327
L54909 40327
" />
<path d="M54090 40327
L53535 40327
" />
<path d="M55451 40342
L54909 40342
" />
<path d="M54090 40342
L53548 40342
" />
<path d="M55437 40358
L54909 40358
" />
<path d="M54090 40358
L53562 40358
" />
<path d="M55422 40374
L54909 40374
" />
<path d="M54090 40374
L53577 40374
" />
<path d="M55407 40390
L54909 40390
" />
<path d="M54090 40390
L53592 40390
" />
<path d="M55391 40405
L53608 40405
" />
<path d="M55375 40421
L53624 40421
" />
<path d="M55359 40437
L53640 40437
" />
<path d="M55341 40453
L53658 40453
" />
<path d="M55323 40468
L53676 40468
" />
<path d="M55304 40484
L53695 40484
" />
<path d="M55285 40500
L53714 40500
" />
<path d="M55265 40516
L53734 40516
" />
<path d="M55244 40531
L53755 40531
" />
<path d="M55222 40547
L53777 40547
" />
<path d="M55199 40563
L53800 40563
" />
<path d="M55174 40579
L53825 40579
" />
<path d="M55149 40594
L53850 40594
" />
<path d="M55122 40610
L53877 40610
" />
<path d="M55094 40626
L53905 40626
" />
<path d="M55063 40642
L53936 40642
" />
<path d="M55031 40657
L53968 40657
" />
<path d="M54996 40673
L54003 40673
" />
<path d="M54958 40689
L54041 40689
" />
<path d="M54916 40705
L54083 40705
" />
<path d="M54870 40720
L54129 40720
" />
<path d="M54815 40736
L54184 40736
" />
<path d="M54749 40752
L54250 40752
" />
<path d="M54658 40768
L54341 40768
" />
<path d="M55224 38114
L55224 38362
" />
<path d="M55348 38238
L55100 38238
" />
<path d="M43338.6 37500 A661.417 661.417 0.0 0 0 43416 37810.5 " />
<path d="M43689.4 38084.3 A661.696 661.696 0.0 0 0 44310.7 38084.2 " />
<path d="M44584.3 37810.6 A661.696 661.696 0.0 0 0 44584.2 37189.3 " />
<path d="M44310.6 36915.7 A661.696 661.696 0.0 0 0 43689.3 36915.8 " />
<path d="M43415.7 37189.4 A661.696 661.696 0.0 0 0 43338.4 37511.6 " />
<circle cx="44000" cy="39468.5" r="661.417" /> 
<circle cx="44000" cy="41437" r="661.417" /> 
<path d="M43212 36492
L43212 42444
" />
<path d="M44787 36492
L44787 42444
" />
<path d="M45598 36492
L45598 42444
" />
<path d="M42401 36492
L42401 42444
" />
<path d="M45598 36492
L42401 36492
" />
<path d="M45598 42444
L42401 42444
" />
<path d="M44420 39970
L44384 39933
" />
<path d="M43521 39070
L43498 39047
" />
<path d="M44501 39889
L44478 39866
" />
<path d="M43615 39003
L43579 38966
" />
<path d="M44420 41938
L44384 41901
" />
<path d="M43521 41039
L43498 41016
" />
<path d="M44501 41858
L44478 41835
" />
<path d="M43615 40972
L43579 40935
" />
<path d="M43188 36397
L42307 36397
" />
<path d="M42307 36397
L42307 37185
" />
<path d="M58523 35976
L57476 35976
" />
<path d="M58523 37000
L58523 35976
" />
<path d="M57476 37000
L57476 35976
" />
<path d="M58523 37000
L57476 37000
" />
<path d="M58523 37500
L58523 38023
" />
<path d="M58523 38023
L58000 38023
" />
<path d="M60271 36291
L60271 37708
" />
<path d="M62023.6 37000 A1023.62 1023.62 0.0 0 0 60276.2 36276.2 " />
<path d="M60276.2 37723.8 A1023.62 1023.62 0.0 0 0 62023.6 37000 " />
<path d="M50287 40039
L50287 38960
" />
<path d="M50287 38960
L47712 38960
" />
<path d="M47712 38960
L47712 40039
" />
<path d="M47712 40039
L50287 40039
" />
<path d="M50590 39500
L50287 39500
" />
<path d="M47409 39500
L47712 39500
" />
<path d="M50590 41000
L50287 41000
" />
<path d="M47409 41000
L47712 41000
" />
<path d="M50287 40460
L47712 40460
" />
<path d="M50287 41539
L50287 40460
" />
<path d="M47712 41539
L50287 41539
" />
<path d="M47712 40460
L47712 41539
" />
<path d="M47409 42500
L47712 42500
" />
<path d="M50590 42500
L50287 42500
" />
<path d="M47712 43039
L50287 43039
" />
<path d="M47712 41960
L47712 43039
" />
<path d="M50287 41960
L47712 41960
" />
<path d="M50287 43039
L50287 41960
" />
<path d="M47712 37460
L47712 38539
" />
<path d="M47712 38539
L50287 38539
" />
<path d="M50287 38539
L50287 37460
" />
<path d="M50287 37460
L47712 37460
" />
<path d="M47409 38000
L47712 38000
" />
<path d="M50590 38000
L50287 38000
" />
<path d="M58712 41960
L58712 43039
" />
<path d="M58712 43039
L61287 43039
" />
<path d="M61287 43039
L61287 41960
" />
<path d="M61287 41960
L58712 41960
" />
<path d="M58409 42500
L58712 42500
" />
<path d="M61590 42500
L61287 42500
" />
<path d="M50590 36500
L50287 36500
" />
<path d="M47409 36500
L47712 36500
" />
<path d="M50287 35960
L47712 35960
" />
<path d="M50287 37039
L50287 35960
" />
<path d="M47712 37039
L50287 37039
" />
<path d="M47712 35960
L47712 37039
" />
<path d="M61590 41000
L61287 41000
" />
<path d="M58409 41000
L58712 41000
" />
<path d="M61287 40460
L58712 40460
" />
<path d="M61287 41539
L61287 40460
" />
<path d="M58712 41539
L61287 41539
" />
<path d="M58712 40460
L58712 41539
" />
<path d="M61287 44539
L61287 43460
" />
<path d="M61287 43460
L58712 43460
" />
<path d="M58712 43460
L58712 44539
" />
<path d="M58712 44539
L61287 44539
" />
<path d="M61590 44000
L61287 44000
" />
<path d="M58409 44000
L58712 44000
" />
<path d="M51976 48023
L53023 48023
" />
<path d="M51976 48000
L51976 48023
" />
<path d="M53023 48000
L53023 48023
" />
<path d="M51976 48000
L53023 48000
" />
<path d="M51976 47500
L51976 46976
" />
<path d="M51976 46976
L52500 46976
" />
<path d="M54476 46976
L55000 46976
" />
<path d="M54476 47500
L54476 46976
" />
<path d="M54476 48000
L55523 48000
" />
<path d="M55523 48000
L55523 48023
" />
<path d="M54476 48000
L54476 48023
" />
<path d="M54476 48023
L55523 48023
" />
<path d="M56976 48023
L58023 48023
" />
<path d="M56976 48000
L56976 48023
" />
<path d="M58023 48000
L58023 48023
" />
<path d="M56976 48000
L58023 48000
" />
<path d="M56976 47500
L56976 46976
" />
<path d="M56976 46976
L57500 46976
" />
<path d="M49476 48023
L50523 48023
" />
<path d="M49476 48000
L49476 48023
" />
<path d="M50523 48000
L50523 48023
" />
<path d="M49476 48000
L50523 48000
" />
<path d="M49476 47500
L49476 46976
" />
<path d="M49476 46976
L50000 46976
" />
</g>
<g style="fill:#000000; fill-opacity:1.0; 
stroke:#000000; stroke-width:3.93701; stroke-opacity:1; 
stroke-linecap:round; stroke-linejoin:round;">
<polyline style="fill-rule:evenodd;"
points="60670,45764
60701,45764
60724,45765
60739,45766
60749,45767
60754,45769
60757,45772
60758,45777
60758,45777
60760,45787
60764,45805
60769,45831
60774,45863
60781,45897
60781,45898
60787,45932
60793,45962
60799,45986
60803,46003
60805,46010
60805,46010
60812,46014
60827,46020
60846,46027
60847,46027
60871,46036
60899,46048
60926,46059
60928,46060
60971,46080
61069,46013
61098,45993
61125,45975
61148,45960
61165,45949
61174,45944
61175,45944
61181,45945
61194,45954
61213,45970
61238,45994
61264,46019
61289,46044
61312,46067
61330,46086
61343,46100
61350,46108
61350,46109
61351,46114
61348,46123
61341,46136
61330,46155
61313,46181
61291,46214
61271,46244
61253,46270
61238,46292
61228,46308
61222,46316
61222,46316
61223,46324
61228,46339
61236,46359
61239,46365
61251,46393
61265,46424
61276,46451
61284,46472
61290,46487
61294,46495
61294,46496
61301,46497
61317,46499
61340,46504
61368,46509
61398,46515
61429,46521
61459,46526
61485,46531
61506,46536
61519,46538
61522,46539
61526,46541
61528,46545
61530,46553
61531,46566
61532,46586
61532,46614
61532,46652
61532,46667
61532,46792
61502,46798
61486,46801
61461,46806
61431,46811
61398,46817
61389,46819
61360,46825
61334,46830
61314,46835
61302,46839
61300,46841
61295,46849
61288,46865
61281,46885
61279,46890
61269,46917
61257,46948
61245,46976
61245,46977
61224,47020
61291,47118
61358,47216
61272,47301
61246,47327
61223,47349
61203,47368
61188,47380
61179,47387
61178,47387
61170,47384
61155,47375
61134,47362
61108,47346
61081,47327
61052,47308
61027,47292
61007,47279
60993,47270
60986,47267
60979,47270
60964,47276
60945,47286
60943,47287
60918,47299
60901,47306
60891,47306
60885,47300
60885,47300
60882,47293
60876,47277
60866,47253
60853,47222
60838,47185
60821,47144
60804,47105
60786,47061
60770,47021
60755,46985
60743,46954
60734,46931
60728,46916
60727,46910
60731,46904
60742,46893
60758,46882
60801,46846
60835,46804
60860,46758
60873,46709
60877,46657
60874,46633
60862,46583
60841,46539
60813,46501
60778,46470
60739,46446
60696,46430
60650,46421
60604,46421
60558,46430
60514,46449
60472,46477
60455,46492
60422,46533
60398,46577
60385,46624
60382,46672
60388,46720
60404,46767
60429,46811
60463,46851
60501,46882
60517,46894
60528,46904
60532,46910
60530,46917
60524,46933
60515,46957
60502,46988
60488,47024
60471,47065
60454,47105
60436,47149
60420,47189
60405,47225
60392,47256
60382,47279
60376,47294
60374,47300
60368,47306
60358,47306
60341,47300
60316,47287
60315,47287
60297,47277
60281,47270
60273,47267
60272,47267
60266,47270
60252,47279
60231,47292
60206,47308
60178,47327
60150,47346
60124,47363
60103,47376
60088,47384
60081,47387
60075,47383
60061,47372
60043,47356
60020,47334
59995,47310
59987,47301
59901,47216
59966,47120
59986,47091
60003,47065
60017,47043
60027,47027
60031,47019
60031,47019
60029,47011
60023,46995
60014,46975
60008,46961
59997,46935
59986,46908
59977,46885
59975,46878
59969,46860
59962,46846
59959,46841
59951,46837
59934,46833
59911,46827
59882,46821
59869,46819
59837,46813
59806,46807
59779,46802
59760,46799
59757,46798
59727,46792
59727,46667
59727,46626
59727,46595
59728,46572
59729,46557
59730,46547
59732,46542
59735,46539
59737,46539
59744,46537
59760,46534
59784,46529
59812,46524
59842,46518
59873,46512
59903,46507
59929,46502
59949,46498
59962,46496
59964,46496
59967,46491
59972,46478
59980,46459
59983,46451
59994,46423
60008,46391
60020,46365
60029,46344
60035,46328
60037,46318
60037,46316
60033,46310
60023,46295
60009,46275
59992,46249
59972,46220
59968,46214
59945,46180
59929,46155
59917,46136
59911,46123
59908,46114
59909,46109
59909,46109
59914,46102
59927,46088
59945,46069
59967,46047
59992,46022
59995,46019
60026,45989
60050,45967
60068,45952
60079,45945
60084,45944
60091,45948
60107,45957
60128,45971
60154,45989
60183,46009
60190,46013
60287,46080
60331,46060
60358,46048
60387,46036
60411,46027
60412,46027
60432,46020
60446,46014
60454,46010
60454,46010
60456,46004
60460,45988
60465,45964
60471,45935
60477,45901
60478,45898
60484,45864
60490,45832
60495,45806
60499,45787
60501,45777
60501,45777
60502,45773
60505,45770
60510,45767
60519,45766
60533,45765
60555,45764
60585,45764
60624,45764
60629,45764
60670,45764
" /> 
<polyline style="fill-rule:evenodd;"
points="61871,47624
61894,47639
61905,47652
61913,47676
61914,47695
61912,47721
61854,47746
61825,47759
61807,47770
61797,47779
61795,47788
61801,47798
61807,47804
61824,47815
61843,47815
61860,47807
61872,47791
61875,47785
61886,47768
61898,47760
61915,47754
61915,47778
61914,47795
61908,47809
61895,47825
61893,47827
61880,47842
61868,47849
61853,47853
61841,47854
61819,47854
61803,47851
61793,47845
61778,47833
61767,47820
61760,47804
61757,47782
61755,47752
61755,47737
61756,47718
61790,47718
61790,47728
61791,47730
61798,47728
61812,47722
61831,47714
61835,47712
61859,47700
61872,47689
61875,47679
61868,47669
61862,47665
61842,47656
61822,47657
61806,47668
61795,47687
61791,47703
61790,47718
61756,47718
61756,47701
61759,47675
61764,47656
61773,47642
61786,47630
61791,47627
61816,47617
61844,47617
61871,47624
" /> 
<polyline style="fill-rule:evenodd;"
points="61674,47621
61681,47624
61697,47637
61711,47656
61719,47676
61721,47685
61716,47699
61706,47706
61695,47711
61690,47712
61687,47706
61682,47693
61680,47687
61668,47667
61651,47657
61629,47657
61627,47658
61615,47663
61606,47674
61600,47692
61597,47718
61595,47753
61595,47772
61595,47801
61595,47821
61593,47834
61591,47841
61587,47846
61581,47849
61581,47849
61569,47854
61563,47856
61563,47850
61562,47835
61561,47813
61561,47785
61561,47764
61561,47724
61563,47694
61565,47671
61570,47655
61577,47643
61587,47633
61597,47627
61620,47618
61648,47616
61674,47621
" /> 
<polyline style="fill-rule:evenodd;"
points="61474,47620
61490,47628
61503,47637
61513,47647
61519,47660
61523,47678
61526,47702
61526,47735
61527,47757
61527,47842
61512,47849
61501,47854
61495,47856
61494,47850
61493,47836
61492,47815
61492,47798
61492,47774
61490,47755
61489,47744
61487,47741
61477,47744
61461,47750
61443,47759
61425,47769
61411,47777
61405,47783
61405,47783
61406,47794
61410,47804
61419,47812
61432,47815
61442,47815
61458,47814
61466,47818
61471,47827
61471,47829
61473,47843
61468,47851
61453,47855
61437,47856
61409,47850
61395,47843
61376,47825
61367,47803
61366,47779
61374,47758
61386,47744
61398,47737
61418,47727
61440,47717
61444,47716
61468,47705
61482,47695
61487,47686
61482,47675
61475,47667
61458,47657
61439,47656
61422,47664
61409,47680
61408,47684
61398,47699
61384,47710
61367,47719
61367,47693
61368,47677
61372,47665
61382,47652
61391,47641
61406,47627
61417,47619
61430,47616
61443,47616
61474,47620
" /> 
<polyline style="fill-rule:evenodd;"
points="61330,47621
61331,47636
61332,47659
61332,47688
61332,47718
61332,47820
61314,47839
61302,47850
61291,47854
61276,47854
61270,47853
61251,47851
61236,47850
61232,47850
61220,47850
61202,47852
61195,47853
61177,47855
61166,47852
61154,47843
61150,47839
61132,47820
61132,47629
61147,47622
61159,47617
61167,47616
61169,47621
61170,47636
61172,47659
61173,47689
61174,47714
61175,47813
61189,47815
61201,47813
61207,47809
61209,47801
61210,47783
61211,47759
61212,47730
61212,47715
61212,47628
61230,47622
61243,47618
61250,47616
61250,47616
61251,47621
61252,47636
61252,47659
61253,47687
61254,47714
61255,47813
61289,47813
61291,47723
61293,47633
61309,47624
61322,47618
61329,47616
61329,47616
61330,47621
" /> 
<polyline style="fill-rule:evenodd;"
points="61098,47663
61098,47706
61098,47739
61097,47763
61096,47781
61094,47794
61092,47803
61089,47810
61087,47814
61067,47836
61043,47850
61015,47855
60988,47851
60972,47843
60955,47828
60943,47811
60936,47788
60933,47758
60932,47736
60932,47734
60972,47734
60973,47760
60974,47776
60976,47788
60981,47796
60986,47802
61005,47813
61025,47814
61043,47805
61045,47803
61051,47796
61055,47788
61057,47776
61058,47757
61058,47736
61058,47710
61056,47693
61054,47681
61049,47673
61046,47669
61028,47658
61008,47657
60989,47665
60986,47668
60979,47675
60975,47683
60973,47695
60972,47715
60972,47734
60932,47734
60934,47700
60938,47673
60947,47652
60961,47637
60972,47629
60991,47620
61014,47616
61035,47617
61047,47621
61051,47622
61054,47618
61056,47605
61058,47586
61060,47565
61062,47552
61067,47545
61075,47540
61079,47538
61098,47530
61098,47663
" /> 
<polyline style="fill-rule:evenodd;"
points="60838,47618
60864,47627
60885,47644
60893,47656
60902,47678
60902,47694
60893,47704
60889,47706
60874,47712
60866,47710
60864,47701
60864,47696
60859,47676
60847,47663
60829,47656
60810,47658
60794,47667
60789,47671
60785,47677
60783,47686
60781,47700
60780,47721
60779,47751
60779,47760
60778,47792
60777,47815
60776,47830
60774,47839
60771,47845
60766,47848
60763,47849
60750,47854
60743,47856
60740,47850
60739,47834
60738,47807
60739,47769
60739,47763
60740,47728
60741,47702
60742,47684
60744,47672
60747,47662
60752,47655
60754,47651
60767,47637
60782,47625
60784,47624
60810,47616
60838,47618
" /> 
<polyline style="fill-rule:evenodd;"
points="60645,47618
60667,47626
60668,47626
60682,47637
60692,47649
60699,47664
60704,47685
60707,47714
60708,47751
60708,47757
60710,47838
60693,47847
60681,47853
60673,47856
60673,47856
60671,47850
60670,47836
60670,47815
60669,47798
60669,47771
60668,47753
60664,47745
60654,47745
60638,47751
60614,47762
60596,47772
60586,47780
60584,47789
60584,47790
60588,47805
60602,47813
60622,47815
60637,47814
60644,47819
60649,47829
60652,47842
60648,47849
60646,47850
60632,47854
60612,47855
60592,47852
60577,47847
60557,47830
60546,47806
60544,47788
60545,47771
60552,47758
60564,47745
60584,47733
60613,47720
60615,47719
60642,47707
60658,47697
60665,47688
60663,47679
60654,47668
60651,47666
60633,47656
60614,47657
60597,47666
60586,47683
60585,47686
60575,47702
60562,47710
60544,47718
60544,47698
60549,47669
60566,47642
60575,47633
60594,47622
60619,47617
60645,47618
" /> 
<polyline style="fill-rule:evenodd;"
points="60384,47579
60385,47602
60387,47616
60390,47622
60394,47622
60395,47621
60412,47616
60434,47616
60456,47622
60470,47629
60484,47640
60495,47652
60502,47668
60506,47689
60509,47717
60509,47755
60509,47762
60509,47843
60491,47849
60479,47854
60472,47856
60471,47856
60471,47850
60470,47835
60470,47813
60469,47785
60469,47768
60469,47735
60469,47711
60468,47694
60466,47683
60463,47676
60459,47671
60456,47668
60438,47658
60418,47657
60400,47666
60396,47669
60391,47675
60388,47682
60386,47692
60384,47708
60384,47731
60384,47763
60384,47843
60366,47849
60353,47854
60346,47856
60346,47856
60345,47850
60345,47835
60344,47811
60344,47780
60344,47743
60344,47703
60344,47546
60362,47539
60381,47531
60384,47579
" /> 
<polyline style="fill-rule:evenodd;"
points="59908,47610
59931,47625
59948,47647
59959,47675
59961,47696
59960,47704
59958,47711
59953,47717
59942,47723
59925,47732
59898,47743
59898,47743
59874,47755
59854,47764
59840,47772
59835,47776
59835,47776
59840,47785
59850,47795
59862,47803
59868,47804
59885,47799
59899,47787
59906,47773
59913,47763
59926,47751
59941,47741
59955,47736
59958,47736
59961,47741
59961,47753
59959,47770
59954,47788
59948,47804
59948,47804
59930,47830
59906,47847
59879,47856
59851,47855
59825,47844
59823,47843
59802,47824
59789,47799
59781,47766
59780,47757
59778,47714
59780,47693
59835,47693
59836,47706
59840,47710
59849,47707
59865,47701
59882,47692
59882,47692
59897,47685
59903,47679
59901,47674
59895,47667
59880,47657
59863,47656
59848,47664
59838,47678
59835,47693
59780,47693
59782,47679
59791,47652
59805,47632
59829,47613
59855,47603
59883,47603
59908,47610
" /> 
<polyline style="fill-rule:evenodd;"
points="59465,47607
59491,47621
59511,47643
59518,47658
59524,47680
59526,47707
59527,47738
59524,47767
59520,47793
59514,47811
59512,47814
59488,47838
59460,47852
59429,47856
59398,47849
59390,47846
59373,47834
59358,47818
59357,47816
59351,47807
59347,47796
59345,47783
59344,47764
59344,47736
59344,47730
59344,47728
59401,47728
59401,47754
59402,47771
59405,47782
59410,47790
59412,47793
59426,47803
59439,47802
59453,47794
59461,47785
59465,47771
59468,47751
59468,47748
59469,47710
59464,47682
59454,47664
59439,47656
59434,47656
59420,47658
59410,47666
59404,47680
59401,47703
59401,47728
59344,47728
59344,47700
59345,47680
59347,47666
59350,47655
59355,47646
59357,47644
59376,47621
59397,47607
59423,47602
59432,47602
59465,47607
" /> 
<polyline style="fill-rule:evenodd;"
points="60124,47609
60142,47619
60155,47630
60164,47641
60171,47655
60175,47672
60177,47697
60178,47729
60178,47753
60178,47839
60154,47850
60129,47861
60127,47766
60125,47731
60124,47705
60123,47688
60121,47676
60118,47669
60114,47665
60113,47664
60094,47656
60075,47659
60064,47667
60059,47673
60056,47680
60054,47691
60053,47708
60052,47733
60052,47758
60052,47791
60052,47813
60050,47829
60046,47839
60039,47845
60029,47850
60015,47856
60000,47861
60002,47760
60003,47723
60003,47696
60005,47677
60007,47663
60009,47654
60013,47646
60017,47639
60039,47617
60066,47605
60095,47602
60124,47609
" /> 
<polyline style="fill-rule:evenodd;"
points="59684,47606
59706,47617
59726,47637
59731,47644
59737,47654
59740,47664
59743,47678
59743,47699
59744,47726
59743,47762
59739,47790
59733,47810
59723,47826
59708,47839
59707,47840
59693,47848
59676,47852
59654,47853
59618,47853
59618,47887
59618,47907
59616,47918
59610,47925
59600,47931
59598,47932
59586,47937
59578,47941
59571,47941
59566,47937
59563,47927
59562,47911
59561,47888
59561,47855
59562,47813
59562,47800
59563,47756
59563,47727
59618,47727
59618,47752
59620,47768
59623,47778
59628,47786
59632,47790
59647,47802
59661,47803
59675,47793
59675,47793
59681,47785
59684,47775
59686,47760
59687,47736
59687,47731
59685,47699
59681,47676
59673,47662
59662,47656
59655,47656
59639,47659
59628,47668
59621,47686
59618,47713
59618,47727
59563,47727
59563,47722
59564,47696
59565,47678
59567,47665
59569,47655
59572,47648
59575,47642
59577,47640
59598,47618
59626,47606
59657,47602
59684,47606
" /> 
<polyline style="fill-rule:evenodd;"
points="45562,45687
45567,46041
45684,45925
45779,45817
45847,45707
45896,45584
45923,45470
45949,45333
46457,45333
46448,45445
46429,45609
46397,45765
46355,45904
46339,45944
46269,46084
46176,46220
46070,46345
45955,46449
45900,46489
45834,46533
46458,46533
46458,47085
46158,47080
46063,47078
45980,47078
45914,47079
45872,47081
45859,47083
45872,47096
45905,47119
45927,47133
45989,47179
46060,47246
46133,47326
46202,47411
46257,47492
46263,47501
46313,47601
46360,47719
46399,47843
46425,47960
46433,48017
46440,48087
46447,48156
46452,48195
46460,48266
45946,48266
45926,48140
45885,47985
45817,47840
45725,47712
45671,47656
45567,47560
45562,47922
45558,48283
45025,48283
45025,47933
45024,47800
45022,47700
45018,47631
45013,47593
45007,47583
44988,47594
44952,47623
44907,47666
44893,47679
44793,47801
44718,47945
44667,48110
44662,48134
44633,48275
44383,48270
44133,48265
44145,48103
44175,47891
44234,47693
44320,47510
44433,47346
44437,47341
44486,47285
44542,47228
44599,47176
44651,47134
44691,47107
44710,47100
44725,47089
44725,47087
44709,47083
44665,47081
44599,47079
44515,47079
44425,47080
44125,47086
44125,46533
44745,46533
44648,46461
44497,46329
44373,46177
44274,46004
44202,45813
44157,45604
44144,45487
44133,45333
44650,45333
44655,45404
44670,45503
44701,45613
44744,45719
44753,45740
44781,45784
44821,45837
44869,45893
44918,45945
44961,45987
44995,46012
45007,46016
45014,46002
45019,45957
45023,45883
45025,45776
45025,45675
45025,45333
45558,45333
45562,45687
" /> 
<polyline style="fill-rule:evenodd;"
points="45725,48336
45817,48341
45917,48489
46017,48636
46026,48333
46113,48333
46200,48333
46195,48625
46190,48918
46105,48913
46020,48908
45919,48759
45817,48611
45812,48763
45807,48916
45643,48916
45638,48624
45633,48331
45725,48336
" /> 
<polyline style="fill-rule:evenodd;"
points="45575,48483
45392,48483
45392,48916
45208,48916
45208,48483
45025,48483
45025,48333
45575,48333
45575,48483
" /> 
<polyline style="fill-rule:evenodd;"
points="44496,48333
44592,48333
44592,48541
44592,48628
44594,48688
44598,48726
44606,48748
44617,48761
44624,48766
44681,48782
44732,48770
44749,48757
44761,48738
44768,48707
44773,48656
44775,48581
44775,48532
44775,48333
44958,48333
44958,48547
44958,48637
44956,48701
44951,48745
44943,48776
44930,48803
44920,48818
44860,48879
44780,48914
44679,48923
44601,48915
44524,48891
44468,48850
44417,48799
44408,48566
44400,48333
44496,48333
" /> 
</g>
<g style="fill:#000000; fill-opacity:0.0; 
stroke:#000000; stroke-width:3.93701; stroke-opacity:1; 
stroke-linecap:round; stroke-linejoin:round;">
</g>
<g style="fill:#000000; fill-opacity:0.0; 
stroke:#000000; stroke-width:59.0551; stroke-opacity:1; 
stroke-linecap:round; stroke-linejoin:round;">
<path d="M55934 42340
L55915 42359
L55859 42378
L55821 42378
L55765 42359
L55728 42321
L55709 42284
L55690 42209
L55690 42153
L55709 42078
L55728 42040
L55765 42003
L55821 41984
L55859 41984
L55915 42003
L55934 42021
" />
<path d="M56309 42378
L56084 42378
" />
<path d="M56196 42378
L56196 41984
L56159 42040
L56121 42078
L56084 42096
" />
<path d="M56134 35940
L56115 35959
L56059 35978
L56021 35978
L55965 35959
L55928 35921
L55909 35884
L55890 35809
L55890 35753
L55909 35678
L55928 35640
L55965 35603
L56021 35584
L56059 35584
L56115 35603
L56134 35621
" />
<path d="M56284 35621
L56303 35603
L56340 35584
L56434 35584
L56471 35603
L56490 35621
L56509 35659
L56509 35696
L56490 35753
L56265 35978
L56509 35978
" />
<path d="M56134 39540
L56115 39559
L56059 39578
L56021 39578
L55965 39559
L55928 39521
L55909 39484
L55890 39409
L55890 39353
L55909 39278
L55928 39240
L55965 39203
L56021 39184
L56059 39184
L56115 39203
L56134 39221
" />
<path d="M56265 39184
L56509 39184
L56378 39334
L56434 39334
L56471 39353
L56490 39371
L56509 39409
L56509 39503
L56490 39540
L56471 39559
L56434 39578
L56321 39578
L56284 39559
L56265 39540
" />
<path d="M42868 35784
L42868 36065
L42850 36121
L42812 36159
L42756 36178
L42718 36178
" />
<path d="M43262 36178
L43037 36178
" />
<path d="M43149 36178
L43149 35784
L43112 35840
L43074 35878
L43037 35896
" />
<path d="M57671 38201
L57671 38482
L57653 38539
L57615 38576
L57559 38595
L57521 38595
" />
<path d="M57859 38595
L57859 38201
L58009 38201
L58046 38220
L58065 38239
L58084 38276
L58084 38332
L58065 38370
L58046 38389
L58009 38407
L57859 38407
" />
<path d="M58459 38595
L58234 38595
" />
<path d="M58346 38595
L58346 38201
L58309 38257
L58271 38295
L58234 38314
" />
<path d="M60962 35615
L60925 35596
L60887 35559
L60831 35503
L60793 35484
L60756 35484
" />
<path d="M60775 35578
L60737 35559
L60700 35521
L60681 35446
L60681 35315
L60700 35240
L60737 35203
L60775 35184
L60850 35184
L60887 35203
L60925 35240
L60943 35315
L60943 35446
L60925 35521
L60887 35559
L60850 35578
L60775 35578
" />
<path d="M61318 35578
L61093 35578
" />
<path d="M61206 35578
L61206 35184
L61168 35240
L61131 35278
L61093 35296
" />
<path d="M60478 38371
L60534 38390
L60553 38409
L60571 38446
L60571 38503
L60553 38540
L60534 38559
L60496 38578
L60346 38578
L60346 38184
L60478 38184
L60515 38203
L60534 38221
L60553 38259
L60553 38296
L60534 38334
L60515 38353
L60478 38371
L60346 38371
" />
<path d="M60721 38559
L60778 38578
L60871 38578
L60909 38559
L60928 38540
L60946 38503
L60946 38465
L60928 38428
L60909 38409
L60871 38390
L60796 38371
L60759 38353
L60740 38334
L60721 38296
L60721 38259
L60740 38221
L60759 38203
L60796 38184
L60890 38184
L60946 38203
" />
<path d="M61321 38578
L61096 38578
" />
<path d="M61209 38578
L61209 38184
L61171 38240
L61134 38278
L61096 38296
" />
<path d="M61453 38184
L61715 38184
L61546 38578
" />
<path d="M61940 38184
L61978 38184
L62015 38203
L62034 38221
L62053 38259
L62071 38334
L62071 38428
L62053 38503
L62034 38540
L62015 38559
L61978 38578
L61940 38578
L61903 38559
L61884 38540
L61865 38503
L61846 38428
L61846 38334
L61865 38259
L61884 38221
L61903 38203
L61940 38184
" />
<path d="M51934 39678
L51803 39490
" />
<path d="M51709 39678
L51709 39284
L51859 39284
L51896 39303
L51915 39321
L51934 39359
L51934 39415
L51915 39453
L51896 39471
L51859 39490
L51709 39490
" />
<path d="M52309 39678
L52084 39678
" />
<path d="M52196 39678
L52196 39284
L52159 39340
L52121 39378
L52084 39396
" />
<path d="M51934 41178
L51803 40990
" />
<path d="M51709 41178
L51709 40784
L51859 40784
L51896 40803
L51915 40821
L51934 40859
L51934 40915
L51915 40953
L51896 40971
L51859 40990
L51709 40990
" />
<path d="M52084 40821
L52103 40803
L52140 40784
L52234 40784
L52271 40803
L52290 40821
L52309 40859
L52309 40896
L52290 40953
L52065 41178
L52309 41178
" />
<path d="M51934 42678
L51803 42490
" />
<path d="M51709 42678
L51709 42284
L51859 42284
L51896 42303
L51915 42321
L51934 42359
L51934 42415
L51915 42453
L51896 42471
L51859 42490
L51709 42490
" />
<path d="M52065 42284
L52309 42284
L52178 42434
L52234 42434
L52271 42453
L52290 42471
L52309 42509
L52309 42603
L52290 42640
L52271 42659
L52234 42678
L52121 42678
L52084 42659
L52065 42640
" />
<path d="M51934 38178
L51803 37990
" />
<path d="M51709 38178
L51709 37784
L51859 37784
L51896 37803
L51915 37821
L51934 37859
L51934 37915
L51915 37953
L51896 37971
L51859 37990
L51709 37990
" />
<path d="M52271 37915
L52271 38178
" />
<path d="M52178 37765
L52084 38046
L52328 38046
" />
<path d="M56934 42678
L56803 42490
" />
<path d="M56709 42678
L56709 42284
L56859 42284
L56896 42303
L56915 42321
L56934 42359
L56934 42415
L56915 42453
L56896 42471
L56859 42490
L56709 42490
" />
<path d="M57290 42284
L57103 42284
L57084 42471
L57103 42453
L57140 42434
L57234 42434
L57271 42453
L57290 42471
L57309 42509
L57309 42603
L57290 42640
L57271 42659
L57234 42678
L57140 42678
L57103 42659
L57084 42640
" />
<path d="M51934 36678
L51803 36490
" />
<path d="M51709 36678
L51709 36284
L51859 36284
L51896 36303
L51915 36321
L51934 36359
L51934 36415
L51915 36453
L51896 36471
L51859 36490
L51709 36490
" />
<path d="M52271 36284
L52196 36284
L52159 36303
L52140 36321
L52103 36378
L52084 36453
L52084 36603
L52103 36640
L52121 36659
L52159 36678
L52234 36678
L52271 36659
L52290 36640
L52309 36603
L52309 36509
L52290 36471
L52271 36453
L52234 36434
L52159 36434
L52121 36453
L52103 36471
L52084 36509
" />
<path d="M56934 41178
L56803 40990
" />
<path d="M56709 41178
L56709 40784
L56859 40784
L56896 40803
L56915 40821
L56934 40859
L56934 40915
L56915 40953
L56896 40971
L56859 40990
L56709 40990
" />
<path d="M57065 40784
L57328 40784
L57159 41178
" />
<path d="M56934 44178
L56803 43990
" />
<path d="M56709 44178
L56709 43784
L56859 43784
L56896 43803
L56915 43821
L56934 43859
L56934 43915
L56915 43953
L56896 43971
L56859 43990
L56709 43990
" />
<path d="M57159 43953
L57121 43934
L57103 43915
L57084 43878
L57084 43859
L57103 43821
L57121 43803
L57159 43784
L57234 43784
L57271 43803
L57290 43821
L57309 43859
L57309 43878
L57290 43915
L57271 43934
L57234 43953
L57159 43953
L57121 43971
L57103 43990
L57084 44028
L57084 44103
L57103 44140
L57121 44159
L57159 44178
L57234 44178
L57271 44159
L57290 44140
L57309 44103
L57309 44028
L57290 43990
L57271 43971
L57234 43953
" />
<path d="M51865 48284
L52090 48284
" />
<path d="M51977 48678
L51977 48284
" />
<path d="M52221 48678
L52221 48284
L52371 48284
L52409 48303
L52427 48321
L52446 48359
L52446 48415
L52427 48453
L52409 48471
L52371 48490
L52221 48490
" />
<path d="M52821 48678
L52596 48678
" />
<path d="M52709 48678
L52709 48284
L52671 48340
L52634 48378
L52596 48396
" />
<path d="M54503 48284
L54728 48284
" />
<path d="M54615 48678
L54615 48284
" />
<path d="M54859 48678
L54859 48284
L55009 48284
L55046 48303
L55065 48321
L55084 48359
L55084 48415
L55065 48453
L55046 48471
L55009 48490
L54859 48490
" />
<path d="M55234 48321
L55253 48303
L55290 48284
L55384 48284
L55421 48303
L55440 48321
L55459 48359
L55459 48396
L55440 48453
L55215 48678
L55459 48678
" />
<path d="M57003 48284
L57228 48284
" />
<path d="M57115 48678
L57115 48284
" />
<path d="M57359 48678
L57359 48284
L57509 48284
L57546 48303
L57565 48321
L57584 48359
L57584 48415
L57565 48453
L57546 48471
L57509 48490
L57359 48490
" />
<path d="M57715 48284
L57959 48284
L57828 48434
L57884 48434
L57921 48453
L57940 48471
L57959 48509
L57959 48603
L57940 48640
L57921 48659
L57884 48678
L57771 48678
L57734 48659
L57715 48640
" />
<path d="M49503 48284
L49728 48284
" />
<path d="M49615 48678
L49615 48284
" />
<path d="M49859 48678
L49859 48284
L50009 48284
L50046 48303
L50065 48321
L50084 48359
L50084 48415
L50065 48453
L50046 48471
L50009 48490
L49859 48490
" />
<path d="M50421 48415
L50421 48678
" />
<path d="M50328 48265
L50234 48546
L50478 48546
" />
</g> 
</svg>
