<?xml version="1.0" standalone="no"?>
 <!DOCTYPE svg PUBLIC "-//W3C//DTD SVG 1.1//EN" 
 "http://www.w3.org/Graphics/SVG/1.1/DTD/svg11.dtd"> 
<svg xmlns="http://www.w3.org/2000/svg" version="1.1" 
    width="29.7002cm" height="21.0007cm" viewBox="0 0 116930 82680 ">
<title>SVG Picture created as AmpliMosfet-B.Cu.svg date 2018/09/26 18:48:54 </title>
  <desc>Picture generated by PCBNEW </desc>
<g style="fill:#000000; fill-opacity:1;stroke:#000000; stroke-opacity:1;
stroke-linecap:round; stroke-linejoin:round; "
 transform="translate(0 0) scale(1 1)">
</g>
<g style="fill:#000000; fill-opacity:0.0; 
stroke:#000000; stroke-width:-0.000393701; stroke-opacity:1; 
stroke-linecap:round; stroke-linejoin:round;">
</g>
<g style="fill:#000000; fill-opacity:0.0; 
stroke:#000000; stroke-width:118.11; stroke-opacity:1; 
stroke-linecap:round; stroke-linejoin:round;">
<path d="M50548 34350
L50604 34322
L50688 34322
L50773 34350
L50829 34406
L50857 34462
L50885 34575
L50885 34659
L50857 34772
L50829 34828
L50773 34884
L50688 34912
L50632 34912
L50548 34884
L50520 34856
L50520 34659
L50632 34659
" />
<path d="M50267 34912
L50267 34519
" />
<path d="M50267 34631
L50239 34575
L50210 34547
L50154 34519
L50098 34519
" />
<path d="M49648 34519
L49648 34912
" />
<path d="M49901 34519
L49901 34828
L49873 34884
L49817 34912
L49732 34912
L49676 34884
L49648 34856
" />
<path d="M49367 34519
L49367 35109
" />
<path d="M49367 34547
L49311 34519
L49198 34519
L49142 34547
L49114 34575
L49086 34631
L49086 34800
L49114 34856
L49142 34884
L49198 34912
L49311 34912
L49367 34884
" />
<path d="M48748 34912
L48804 34884
L48832 34856
L48861 34800
L48861 34631
L48832 34575
L48804 34547
L48748 34519
L48664 34519
L48607 34547
L48579 34575
L48551 34631
L48551 34800
L48579 34856
L48607 34884
L48664 34912
L48748 34912
" />
<path d="M47876 34378
L47848 34350
L47792 34322
L47651 34322
L47595 34350
L47567 34378
L47539 34434
L47539 34491
L47567 34575
L47904 34912
L47539 34912
" />
</g>
<g style="fill:#000000; fill-opacity:0.0; 
stroke:#000000; stroke-width:0; stroke-opacity:1; 
stroke-linecap:round; stroke-linejoin:round;">
</g>
<g style="fill:#000000; fill-opacity:1.0; 
stroke:#000000; stroke-width:0; stroke-opacity:1; 
stroke-linecap:round; stroke-linejoin:round;">
<polyline style="fill-rule:evenodd;"
points="54185,41685
54814,41685
54814,42314
54185,42314
54185,41685
" /> 
<circle cx="54500" cy="42787.4" r="314.961" /> 
</g>
<g style="fill:#000000; fill-opacity:1.0; 
stroke:#000000; stroke-width:39.3701; stroke-opacity:1; 
stroke-linecap:round; stroke-linejoin:round;">
</g>
<g style="fill:#000000; fill-opacity:1.0; 
stroke:#000000; stroke-width:0; stroke-opacity:1; 
stroke-linecap:round; stroke-linejoin:round;">
<circle cx="54500" cy="36484.3" r="314.961" /> 
</g>
<g style="fill:#000000; fill-opacity:1.0; 
stroke:#000000; stroke-width:39.3701; stroke-opacity:1; 
stroke-linecap:round; stroke-linejoin:round;">
</g>
<g style="fill:#000000; fill-opacity:1.0; 
stroke:#000000; stroke-width:0; stroke-opacity:1; 
stroke-linecap:round; stroke-linejoin:round;">
<polyline style="fill-rule:evenodd;"
points="54185,35185
54814,35185
54814,35814
54185,35814
54185,35185
" /> 
<polyline style="fill-rule:evenodd;"
points="54185,38685
54814,38685
54814,39314
54185,39314
54185,38685
" /> 
<circle cx="54500" cy="39984.3" r="314.961" /> 
</g>
<g style="fill:#000000; fill-opacity:1.0; 
stroke:#000000; stroke-width:39.3701; stroke-opacity:1; 
stroke-linecap:round; stroke-linejoin:round;">
</g>
<g style="fill:#000000; fill-opacity:1.0; 
stroke:#000000; stroke-width:0; stroke-opacity:1; 
stroke-linecap:round; stroke-linejoin:round;">
<polyline style="fill-rule:evenodd;"
points="43507,37007
44492,37007
44492,37992
43507,37992
43507,37007
" /> 
<circle cx="44000" cy="39468.5" r="492.126" /> 
</g>
<g style="fill:#000000; fill-opacity:1.0; 
stroke:#000000; stroke-width:39.3701; stroke-opacity:1; 
stroke-linecap:round; stroke-linejoin:round;">
</g>
<g style="fill:#000000; fill-opacity:1.0; 
stroke:#000000; stroke-width:0; stroke-opacity:1; 
stroke-linecap:round; stroke-linejoin:round;">
<circle cx="44000" cy="41437" r="492.126" /> 
</g>
<g style="fill:#000000; fill-opacity:1.0; 
stroke:#000000; stroke-width:39.3701; stroke-opacity:1; 
stroke-linecap:round; stroke-linejoin:round;">
</g>
<g style="fill:#000000; fill-opacity:1.0; 
stroke:#000000; stroke-width:0; stroke-opacity:1; 
stroke-linecap:round; stroke-linejoin:round;">
<polyline style="fill-rule:evenodd;"
points="58334,37165
58334,37834
57665,37834
57665,37165
58334,37165
" /> 
</g>
<g style="fill:#000000; fill-opacity:1.0; 
stroke:#000000; stroke-width:669.291; stroke-opacity:1; 
stroke-linecap:round; stroke-linejoin:round;">
</g>
<g style="fill:#000000; fill-opacity:0.0; 
stroke:#000000; stroke-width:669.291; stroke-opacity:1; 
stroke-linecap:round; stroke-linejoin:round;">
<path d="M58000 36500
L58000 36500
" />
</g>
<g style="fill:#000000; fill-opacity:0.0; 
stroke:#000000; stroke-width:413.386; stroke-opacity:1; 
stroke-linecap:round; stroke-linejoin:round;">
<path d="M61088 37000
L60911 37000
" />
<path d="M61088 37500
L60911 37500
" />
</g>
<g style="fill:#000000; fill-opacity:0.0; 
stroke:#000000; stroke-width:0; stroke-opacity:1; 
stroke-linecap:round; stroke-linejoin:round;">
</g>
<g style="fill:#000000; fill-opacity:1.0; 
stroke:#000000; stroke-width:0; stroke-opacity:1; 
stroke-linecap:round; stroke-linejoin:round;">
<polyline style="fill-rule:evenodd;"
points="60704,36293
61295,36293
61295,36706
60704,36706
60704,36293
" /> 
<circle cx="51000" cy="39500" r="314.961" /> 
</g>
<g style="fill:#000000; fill-opacity:1.0; 
stroke:#000000; stroke-width:39.3701; stroke-opacity:1; 
stroke-linecap:round; stroke-linejoin:round;">
</g>
<g style="fill:#000000; fill-opacity:1.0; 
stroke:#000000; stroke-width:629.921; stroke-opacity:1; 
stroke-linecap:round; stroke-linejoin:round;">
</g>
<g style="fill:#000000; fill-opacity:0.0; 
stroke:#000000; stroke-width:629.921; stroke-opacity:1; 
stroke-linecap:round; stroke-linejoin:round;">
<path d="M47000 39500
L47000 39500
" />
<path d="M51000 41000
L51000 41000
" />
</g>
<g style="fill:#000000; fill-opacity:1.0; 
stroke:#000000; stroke-width:0; stroke-opacity:1; 
stroke-linecap:round; stroke-linejoin:round;">
<circle cx="47000" cy="41000" r="314.961" /> 
</g>
<g style="fill:#000000; fill-opacity:1.0; 
stroke:#000000; stroke-width:39.3701; stroke-opacity:1; 
stroke-linecap:round; stroke-linejoin:round;">
</g>
<g style="fill:#000000; fill-opacity:1.0; 
stroke:#000000; stroke-width:629.921; stroke-opacity:1; 
stroke-linecap:round; stroke-linejoin:round;">
</g>
<g style="fill:#000000; fill-opacity:0.0; 
stroke:#000000; stroke-width:629.921; stroke-opacity:1; 
stroke-linecap:round; stroke-linejoin:round;">
<path d="M47000 42500
L47000 42500
" />
</g>
<g style="fill:#000000; fill-opacity:1.0; 
stroke:#000000; stroke-width:0; stroke-opacity:1; 
stroke-linecap:round; stroke-linejoin:round;">
<circle cx="51000" cy="42500" r="314.961" /> 
</g>
<g style="fill:#000000; fill-opacity:1.0; 
stroke:#000000; stroke-width:39.3701; stroke-opacity:1; 
stroke-linecap:round; stroke-linejoin:round;">
</g>
<g style="fill:#000000; fill-opacity:1.0; 
stroke:#000000; stroke-width:0; stroke-opacity:1; 
stroke-linecap:round; stroke-linejoin:round;">
<circle cx="47000" cy="38000" r="314.961" /> 
</g>
<g style="fill:#000000; fill-opacity:1.0; 
stroke:#000000; stroke-width:39.3701; stroke-opacity:1; 
stroke-linecap:round; stroke-linejoin:round;">
</g>
<g style="fill:#000000; fill-opacity:1.0; 
stroke:#000000; stroke-width:629.921; stroke-opacity:1; 
stroke-linecap:round; stroke-linejoin:round;">
</g>
<g style="fill:#000000; fill-opacity:0.0; 
stroke:#000000; stroke-width:629.921; stroke-opacity:1; 
stroke-linecap:round; stroke-linejoin:round;">
<path d="M51000 38000
L51000 38000
" />
</g>
<g style="fill:#000000; fill-opacity:1.0; 
stroke:#000000; stroke-width:0; stroke-opacity:1; 
stroke-linecap:round; stroke-linejoin:round;">
<circle cx="58000" cy="42500" r="314.961" /> 
</g>
<g style="fill:#000000; fill-opacity:1.0; 
stroke:#000000; stroke-width:39.3701; stroke-opacity:1; 
stroke-linecap:round; stroke-linejoin:round;">
</g>
<g style="fill:#000000; fill-opacity:1.0; 
stroke:#000000; stroke-width:629.921; stroke-opacity:1; 
stroke-linecap:round; stroke-linejoin:round;">
</g>
<g style="fill:#000000; fill-opacity:0.0; 
stroke:#000000; stroke-width:629.921; stroke-opacity:1; 
stroke-linecap:round; stroke-linejoin:round;">
<path d="M62000 42500
L62000 42500
" />
<path d="M51000 36500
L51000 36500
" />
</g>
<g style="fill:#000000; fill-opacity:1.0; 
stroke:#000000; stroke-width:0; stroke-opacity:1; 
stroke-linecap:round; stroke-linejoin:round;">
<circle cx="47000" cy="36500" r="314.961" /> 
</g>
<g style="fill:#000000; fill-opacity:1.0; 
stroke:#000000; stroke-width:39.3701; stroke-opacity:1; 
stroke-linecap:round; stroke-linejoin:round;">
</g>
<g style="fill:#000000; fill-opacity:1.0; 
stroke:#000000; stroke-width:629.921; stroke-opacity:1; 
stroke-linecap:round; stroke-linejoin:round;">
</g>
<g style="fill:#000000; fill-opacity:0.0; 
stroke:#000000; stroke-width:629.921; stroke-opacity:1; 
stroke-linecap:round; stroke-linejoin:round;">
<path d="M62000 41000
L62000 41000
" />
</g>
<g style="fill:#000000; fill-opacity:1.0; 
stroke:#000000; stroke-width:0; stroke-opacity:1; 
stroke-linecap:round; stroke-linejoin:round;">
<circle cx="58000" cy="41000" r="314.961" /> 
</g>
<g style="fill:#000000; fill-opacity:1.0; 
stroke:#000000; stroke-width:39.3701; stroke-opacity:1; 
stroke-linecap:round; stroke-linejoin:round;">
</g>
<g style="fill:#000000; fill-opacity:1.0; 
stroke:#000000; stroke-width:0; stroke-opacity:1; 
stroke-linecap:round; stroke-linejoin:round;">
<circle cx="62000" cy="44000" r="314.961" /> 
</g>
<g style="fill:#000000; fill-opacity:1.0; 
stroke:#000000; stroke-width:39.3701; stroke-opacity:1; 
stroke-linecap:round; stroke-linejoin:round;">
</g>
<g style="fill:#000000; fill-opacity:1.0; 
stroke:#000000; stroke-width:629.921; stroke-opacity:1; 
stroke-linecap:round; stroke-linejoin:round;">
</g>
<g style="fill:#000000; fill-opacity:0.0; 
stroke:#000000; stroke-width:629.921; stroke-opacity:1; 
stroke-linecap:round; stroke-linejoin:round;">
<path d="M58000 44000
L58000 44000
" />
</g>
<g style="fill:#000000; fill-opacity:0.0; 
stroke:#000000; stroke-width:0; stroke-opacity:1; 
stroke-linecap:round; stroke-linejoin:round;">
</g>
<g style="fill:#000000; fill-opacity:1.0; 
stroke:#000000; stroke-width:0; stroke-opacity:1; 
stroke-linecap:round; stroke-linejoin:round;">
<polyline style="fill-rule:evenodd;"
points="52165,47834
52165,47165
52834,47165
52834,47834
52165,47834
" /> 
<polyline style="fill-rule:evenodd;"
points="54665,47834
54665,47165
55334,47165
55334,47834
54665,47834
" /> 
<polyline style="fill-rule:evenodd;"
points="57165,47834
57165,47165
57834,47165
57834,47834
57165,47834
" /> 
<polyline style="fill-rule:evenodd;"
points="49665,47834
49665,47165
50334,47165
50334,47834
49665,47834
" /> 
</g>
<g style="fill:#000000; fill-opacity:1.0; 
stroke:#000000; stroke-width:196.85; stroke-opacity:1; 
stroke-linecap:round; stroke-linejoin:round;">
</g>
<g style="fill:#000000; fill-opacity:0.0; 
stroke:#000000; stroke-width:196.85; stroke-opacity:1; 
stroke-linecap:round; stroke-linejoin:round;">
<path d="M54500 42000
L55500 42000
" />
<path d="M55000 45000
L55000 47500
" />
<path d="M55500 44500
L55000 45000
" />
<path d="M56750 42500
L57554 42500
" />
<path d="M57554 42500
L58000 42500
" />
<path d="M55500 42000
L56250 42000
" />
<path d="M56250 42000
L56750 42500
" />
<path d="M51442 40124
L50485 40124
" />
<path d="M51000 38000
L51750 38750
" />
<path d="M51750 39816
L51442 40124
" />
<path d="M50485 40124
L49974 40635
" />
<path d="M51750 38750
L51750 39816
" />
<path d="M49974 40635
L49974 42774
" />
<path d="M55500 44000
L55500 44500
" />
<path d="M55500 43800
L55500 44000
" />
<path d="M51000 43800
L55500 43800
" />
<path d="M55500 42000
L55500 43800
" />
<path d="M49974 42774
L51000 43800
" />
<path d="M51287 42787
L51000 42500
" />
<path d="M54500 42787
L51287 42787
" />
<path d="M59307 35800
L60507 37000
" />
<path d="M50250 41750
L50250 40750
" />
<path d="M51000 42500
L50250 41750
" />
<path d="M50250 40750
L50600 40400
" />
<path d="M50600 40400
L51600 40400
" />
<path d="M60507 37000
L61000 37000
" />
<path d="M51600 40400
L56200 35800
" />
<path d="M56200 35800
L59307 35800
" />
<path d="M62000 46000
L62000 44000
" />
<path d="M57500 47500
L60500 47500
" />
<path d="M60500 47500
L62000 46000
" />
<path d="M52800 36600
L54384 36600
" />
<path d="M52200 37200
L52800 36600
" />
<path d="M50250 36150
L50250 36750
" />
<path d="M50800 35600
L50250 36150
" />
<path d="M50700 37200
L52200 37200
" />
<path d="M53000 34800
L52200 35600
" />
<path d="M54384 36600
L54500 36484
" />
<path d="M62000 44000
L62750 43250
" />
<path d="M62750 37000
L60550 34800
" />
<path d="M50250 36750
L50700 37200
" />
<path d="M62750 43250
L62750 37000
" />
<path d="M60550 34800
L53000 34800
" />
<path d="M52200 35600
L50800 35600
" />
<path d="M51000 36500
L52000 36500
" />
<path d="M53000 35500
L54500 35500
" />
<path d="M52000 36500
L53000 35500
" />
<path d="M60507 36500
L61000 36500
" />
<path d="M54500 35500
L59507 35500
" />
<path d="M59507 35500
L60507 36500
" />
<path d="M57500 36500
L58000 36500
" />
<path d="M54500 39000
L55000 39000
" />
<path d="M55000 39000
L57500 36500
" />
<path d="M44000 41437
L44000 42500
" />
<path d="M49000 47500
L50000 47500
" />
<path d="M44000 42500
L49000 47500
" />
<path d="M58000 44000
L59000 44000
" />
<path d="M60500 42500
L62000 42500
" />
<path d="M59000 44000
L60500 42500
" />
<path d="M51000 41000
L53484 41000
" />
<path d="M62000 42000
L62000 42500
" />
<path d="M58000 45750
L58000 44445
" />
<path d="M55500 48250
L58000 45750
" />
<path d="M58000 44445
L58000 44000
" />
<path d="M50000 47500
L50531 47500
" />
<path d="M51281 48250
L55500 48250
" />
<path d="M50531 47500
L51281 48250
" />
<path d="M62000 41750
L57000 41750
" />
<path d="M62000 41750
L62000 42000
" />
<path d="M62000 41000
L62000 41750
" />
<path d="M56250 41000
L53484 41000
" />
<path d="M57000 41750
L56250 41000
" />
<path d="M54500 39984
L54500 41000
" />
<path d="M44000 37500
L47000 37500
" />
<path d="M47000 36500
L47000 37500
" />
<path d="M47000 37500
L47000 38000
" />
<path d="M46968 39468
L47000 39500
" />
<path d="M44000 39468
L46968 39468
" />
<path d="M58000 38031
L58000 41000
" />
<path d="M58000 37500
L58000 38031
" />
<path d="M58000 37500
L61000 37500
" />
<path d="M47000 41000
L47000 42500
" />
<path d="M47000 41000
L48500 41000
" />
<path d="M50000 39500
L51000 39500
" />
<path d="M48500 41000
L50000 39500
" />
<path d="M52500 46968
L52500 47500
" />
<path d="M48031 42500
L52500 46968
" />
<path d="M47000 42500
L48031 42500
" />
</g>
<g style="fill:#000000; fill-opacity:1.0; 
stroke:#000000; stroke-width:100; stroke-opacity:1; 
stroke-linecap:round; stroke-linejoin:round;">
<polyline style="fill-rule:evenodd;"
points="63500,48933
42415,48933
42415,47895
42624,47895
42624,48167
42728,48418
42920,48610
43171,48714
43442,48714
43694,48610
43886,48418
43990,48167
43990,47895
43886,47644
43854,47612
49415,47612
49415,47884
49453,47976
49523,48046
49615,48084
49887,48084
49950,48022
49950,47550
50050,47550
50050,48022
50112,48084
50384,48084
50476,48046
50546,47976
50584,47884
50584,47612
50522,47550
50050,47550
49950,47550
49477,47550
49415,47612
43854,47612
43694,47452
43442,47348
43171,47348
42920,47452
42728,47644
42624,47895
42415,47895
42415,47115
49415,47115
49415,47387
49477,47450
49950,47450
49950,46977
50050,46977
50050,47450
50522,47450
50584,47387
50584,47115
50546,47023
50476,46953
50384,46915
50112,46915
50050,46977
49950,46977
49887,46915
49615,46915
49523,46953
49453,47023
49415,47115
42415,47115
42415,42500
46423,42500
46467,42720
46592,42907
46779,43032
46944,43064
47055,43064
47220,43032
47407,42907
47446,42848
47887,42848
52008,46969
51985,46985
51929,47067
51910,47165
51910,47834
51929,47932
51985,48014
52067,48070
52165,48089
52834,48089
52932,48070
53014,48014
53070,47932
53089,47834
53089,47165
53070,47067
53014,46985
52932,46929
52844,46912
52828,46832
52751,46717
52722,46697
48302,42277
48282,42248
48167,42171
48065,42151
48065,42151
48031,42144
47997,42151
47446,42151
47407,42092
47348,42053
47348,41450
47450,41348
48465,41348
48500,41355
48534,41348
48534,41348
48635,41328
48751,41251
48770,41222
50144,39848
50271,39848
50263,39853
50263,39853
50234,39873
50215,39902
49752,40365
49723,40384
49646,40499
49625,40601
49625,40601
49619,40635
49625,40670
49625,42740
49619,42774
49646,42910
49703,42996
49703,42996
49723,43025
49752,43045
50729,44022
50748,44051
50777,44070
50777,44070
50840,44112
50864,44128
50965,44148
50965,44148
51000,44155
51034,44148
55151,44148
55151,44355
54777,44729
54748,44748
54671,44864
54651,44965
54651,44965
54644,45000
54651,45034
54651,46913
54567,46929
54485,46985
54429,47067
54410,47165
54410,47834
54429,47932
54485,48014
54567,48070
54665,48089
55334,48089
55432,48070
55514,48014
55570,47932
55589,47834
55589,47165
55570,47067
55514,46985
55432,46929
55348,46913
55348,45144
55722,44770
55751,44751
55828,44635
55848,44534
55848,44534
55855,44500
55848,44465
55848,44137
57452,44137
57515,44290
57663,44453
57862,44547
57950,44500
57950,44050
58050,44050
58050,44500
58137,44547
58336,44453
58484,44290
58547,44137
58499,44050
58050,44050
57950,44050
57500,44050
57452,44137
55848,44137
55848,43862
57452,43862
57500,43950
57950,43950
57950,43499
58050,43499
58050,43950
58499,43950
58547,43862
58484,43709
58336,43546
58137,43452
58050,43499
57950,43499
57862,43452
57663,43546
57515,43709
57452,43862
55848,43862
55848,43834
55855,43800
55848,43765
55848,42348
56105,42348
56479,42722
56498,42751
56527,42770
56527,42770
56557,42790
56614,42828
56715,42848
56715,42848
56749,42855
56784,42848
57549,42848
57679,42978
57887,43064
58112,43064
58320,42978
58478,42820
58554,42637
61452,42637
61515,42790
61663,42953
61862,43047
61950,43000
61950,42550
61500,42550
61452,42637
58554,42637
58564,42612
58564,42387
58554,42362
61452,42362
61500,42450
61950,42450
61950,41999
61862,41952
61663,42046
61515,42209
61452,42362
58554,42362
58478,42179
58320,42021
58112,41935
57887,41935
57679,42021
57549,42151
56894,42151
56520,41777
56501,41748
56385,41671
56284,41651
56284,41651
56250,41644
56215,41651
55534,41651
55500,41644
55465,41651
55063,41651
55050,41587
54995,41504
54912,41449
54814,41430
54185,41430
54087,41449
54004,41504
53949,41587
53930,41685
53930,42314
53949,42412
53967,42438
51564,42438
51564,42387
51478,42179
51320,42021
51112,41935
50927,41935
50598,41605
50598,41382
50663,41453
50862,41547
50950,41500
50950,41050
51050,41050
51050,41500
51137,41547
51336,41453
51484,41290
51547,41137
51499,41050
51050,41050
50950,41050
50942,41050
50942,40950
50950,40950
50950,40942
51050,40942
51050,40950
51499,40950
51547,40862
51500,40748
51565,40748
51600,40755
51634,40748
51634,40748
51735,40728
51851,40651
51870,40622
52111,40381
54173,40381
54203,40477
54414,40553
54639,40543
54796,40477
54826,40381
54500,40054
54173,40381
52111,40381
52593,39898
53930,39898
53941,40123
54006,40281
54103,40310
54429,39984
54570,39984
54896,40310
54993,40281
55069,40069
55058,39845
54993,39687
54896,39658
54570,39984
54429,39984
54103,39658
54006,39687
53930,39898
52593,39898
56344,36148
57481,36148
57465,36151
57465,36151
57364,36171
57364,36171
57364,36171
57277,36229
57277,36229
57248,36248
57229,36277
54998,38509
54995,38504
54912,38449
54814,38430
54185,38430
54087,38449
54004,38504
53949,38587
53930,38685
53930,39314
53949,39412
54004,39495
54087,39550
54179,39568
54173,39587
54500,39913
54826,39587
54820,39568
54912,39550
54995,39495
55050,39412
55064,39342
55135,39328
55251,39251
55270,39222
57439,37052
57429,37067
57410,37165
57410,37834
57429,37932
57485,38014
57567,38070
57651,38086
57651,40549
57521,40679
57435,40887
57435,41112
57521,41320
57679,41478
57887,41564
58112,41564
58320,41478
58478,41320
58554,41137
61452,41137
61515,41290
61663,41453
61862,41547
61950,41500
61950,41050
61500,41050
61452,41137
58554,41137
58564,41112
58564,40887
58554,40862
61452,40862
61500,40950
61950,40950
61950,40499
61862,40452
61663,40546
61515,40709
61452,40862
58554,40862
58478,40679
58348,40549
58348,38086
58432,38070
58514,38014
58570,37932
58586,37848
60610,37848
60733,37930
60866,37956
61133,37956
61266,37930
61417,37829
61518,37678
61554,37500
61518,37321
61470,37250
61518,37178
61554,37000
61518,36822
61530,36804
61550,36706
61550,36293
61550,36292
62401,37144
62401,40617
62336,40546
62137,40452
62050,40499
62050,40950
62057,40950
62057,41050
62050,41050
62050,41500
62137,41547
62336,41453
62401,41382
62401,42117
62336,42046
62137,41952
62050,41999
62050,42450
62057,42450
62057,42550
62050,42550
62050,43000
62137,43047
62336,42953
62401,42882
62401,43105
62072,43435
61887,43435
61679,43521
61521,43679
61435,43887
61435,44112
61521,44320
61651,44450
61651,45855
60355,47151
58086,47151
58070,47067
58014,46985
57932,46929
57834,46910
57165,46910
57067,46929
56985,46985
56929,47067
56910,47165
56910,47834
56929,47932
56985,48014
57067,48070
57165,48089
57834,48089
57932,48070
58014,48014
58070,47932
58077,47895
61915,47895
61915,48167
62019,48418
62211,48610
62462,48714
62734,48714
62985,48610
63177,48418
63281,48167
63281,47895
63177,47644
62985,47452
62734,47348
62462,47348
62211,47452
62019,47644
61915,47895
58077,47895
58086,47848
60465,47848
60500,47855
60534,47848
60534,47848
60635,47828
60751,47751
60770,47722
62222,46270
62251,46251
62328,46135
62348,46034
62348,46034
62355,46000
62348,45965
62348,44450
62478,44320
62564,44112
62564,43927
62972,43520
63001,43501
63045,43435
63078,43385
63084,43352
63098,43284
63098,43284
63105,43250
63098,43215
63098,37034
63105,36999
63098,36965
63098,36965
63078,36864
63038,36804
63020,36777
63020,36777
63001,36748
62972,36729
60820,34577
60801,34548
60742,34509
61915,34509
61915,34781
62019,35032
62211,35224
62462,35328
62734,35328
62985,35224
63177,35032
63281,34781
63281,34509
63177,34258
62985,34066
62734,33962
62462,33962
62211,34066
62019,34258
61915,34509
60742,34509
60685,34471
60584,34451
60584,34451
60550,34444
60515,34451
53034,34451
53000,34444
52965,34451
52965,34451
52864,34471
52777,34529
52777,34529
52748,34548
52729,34577
52055,35251
51307,35251
51307,33940
47117,33940
47117,35444
50462,35444
50027,35879
49998,35898
49921,36014
49901,36115
49901,36115
49894,36150
49901,36184
49901,36715
49894,36750
49921,36885
49979,36972
49979,36972
49998,37001
50027,37020
50429,37422
50448,37451
50477,37470
50477,37470
50521,37499
50564,37528
50660,37547
50592,37592
50467,37779
50423,38000
50467,38220
50592,38407
50779,38532
50944,38564
51055,38564
51069,38562
51401,38894
51401,39102
51320,39021
51112,38935
50887,38935
50679,39021
50549,39151
50034,39151
50000,39144
49965,39151
49965,39151
49864,39171
49777,39229
49777,39229
49748,39248
49729,39277
48355,40651
47450,40651
47320,40521
47112,40435
46887,40435
46679,40521
46521,40679
46435,40887
46435,41112
46521,41320
46651,41450
46651,42053
46592,42092
46467,42279
46423,42500
42415,42500
42415,41961
43545,41961
43596,42077
43872,42182
44167,42174
44403,42077
44454,41961
44000,41507
43545,41961
42415,41961
42415,41309
43254,41309
43262,41604
43359,41840
43475,41891
43929,41437
44070,41437
44524,41891
44640,41840
44745,41564
44737,41269
44640,41033
44524,40982
44070,41437
43929,41437
43475,40982
43359,41033
43254,41309
42415,41309
42415,40912
43545,40912
44000,41366
44454,40912
44403,40796
44127,40691
43832,40699
43596,40796
43545,40912
42415,40912
42415,39320
43257,39320
43257,39616
43370,39888
43579,40097
43852,40210
44147,40210
44420,40097
44629,39888
44658,39816
46532,39816
46592,39907
46779,40032
46944,40064
47055,40064
47220,40032
47407,39907
47532,39720
47576,39500
47532,39279
47407,39092
47220,38967
47055,38935
46944,38935
46779,38967
46592,39092
46574,39120
44658,39120
44629,39048
44420,38839
44147,38726
43852,38726
43579,38839
43370,39048
43257,39320
42415,39320
42415,37007
43252,37007
43252,37992
43272,38089
43327,38172
43410,38227
43507,38247
44492,38247
44589,38227
44672,38172
44727,38089
44747,37992
44747,37848
46451,37848
46435,37887
46435,38112
46521,38320
46679,38478
46887,38564
47112,38564
47320,38478
47478,38320
47564,38112
47564,37887
47478,37679
47348,37549
47348,37534
47355,37500
47348,37465
47348,36950
47478,36820
47564,36612
47564,36387
47478,36179
47320,36021
47112,35935
46887,35935
46679,36021
46521,36179
46435,36387
46435,36612
46521,36820
46651,36950
46651,37151
44747,37151
44747,37007
44727,36910
44672,36827
44589,36772
44492,36752
43507,36752
43410,36772
43327,36827
43272,36910
43252,37007
42415,37007
42415,34509
42624,34509
42624,34781
42728,35032
42920,35224
43171,35328
43442,35328
43694,35224
43886,35032
43990,34781
43990,34509
43886,34258
43694,34066
43442,33962
43171,33962
42920,34066
42728,34258
42624,34509
42415,34509
42415,33744
63500,33744
63500,48933
" /> 
</g> 
</svg>
