M48
;DRILL file {KiCad 5.0.0-fee4fd1~66~ubuntu18.04.1} date Wed Sep 26 16:20:12 2018
;FORMAT={-:-/ absolute / inch / decimal}
FMAT,2
INCH,TZ
T1C0.0295
T2C0.0315
T3C0.0394
T4C0.0512
%
G90
G05
M72
T1
X6.1Y-3.65
X6.1Y-3.7
X6.1Y-3.75
T2
X5.8Y-4.4
X6.2Y-4.4
X4.7Y-4.25
X5.1Y-4.25
X4.7Y-3.95
X5.1Y-3.95
X5.8Y-4.25
X6.2Y-4.25
X4.7Y-3.8
X5.1Y-3.8
X5.45Y-4.2
X5.45Y-4.2787
X4.7Y-4.1
X5.1Y-4.1
X5.45Y-3.9
X5.45Y-3.9984
X4.7Y-3.65
X5.1Y-3.65
X5.45Y-3.55
X5.45Y-3.6484
X5.8Y-4.1
X6.2Y-4.1
T3
X5.5Y-4.75
X5.Y-4.75
X5.25Y-4.75
X5.75Y-4.75
X5.8Y-3.65
X5.8Y-3.75
T4
X4.4Y-3.75
X4.4Y-3.9469
X4.4Y-4.1437
T0
M30
