<?xml version="1.0" standalone="no"?>
 <!DOCTYPE svg PUBLIC "-//W3C//DTD SVG 1.1//EN" 
 "http://www.w3.org/Graphics/SVG/1.1/DTD/svg11.dtd"> 
<svg xmlns="http://www.w3.org/2000/svg" version="1.1" 
    width="29.7002cm" height="21.0007cm" viewBox="0 0 116930 82680 ">
<title>SVG Picture created as ampliBjt-B.Cu.svg date 2018/09/26 16:25:03 </title>
  <desc>Picture generated by PCBNEW </desc>
<g style="fill:#000000; fill-opacity:1;stroke:#000000; stroke-opacity:1;
stroke-linecap:round; stroke-linejoin:round; "
 transform="translate(0 0) scale(1 1)">
</g>
<g style="fill:#000000; fill-opacity:0.0; 
stroke:#000000; stroke-width:-0.000393701; stroke-opacity:1; 
stroke-linecap:round; stroke-linejoin:round;">
</g>
<g style="fill:#000000; fill-opacity:0.0; 
stroke:#000000; stroke-width:118.11; stroke-opacity:1; 
stroke-linecap:round; stroke-linejoin:round;">
<path d="M49948 34350
L50004 34322
L50088 34322
L50173 34350
L50229 34406
L50257 34462
L50285 34575
L50285 34659
L50257 34772
L50229 34828
L50173 34884
L50088 34912
L50032 34912
L49948 34884
L49920 34856
L49920 34659
L50032 34659
" />
<path d="M49667 34912
L49667 34519
" />
<path d="M49667 34631
L49639 34575
L49610 34547
L49554 34519
L49498 34519
" />
<path d="M49048 34519
L49048 34912
" />
<path d="M49301 34519
L49301 34828
L49273 34884
L49217 34912
L49132 34912
L49076 34884
L49048 34856
" />
<path d="M48767 34519
L48767 35109
" />
<path d="M48767 34547
L48711 34519
L48598 34519
L48542 34547
L48514 34575
L48486 34631
L48486 34800
L48514 34856
L48542 34884
L48598 34912
L48711 34912
L48767 34884
" />
<path d="M48148 34912
L48204 34884
L48232 34856
L48261 34800
L48261 34631
L48232 34575
L48204 34547
L48148 34519
L48064 34519
L48007 34547
L47979 34575
L47951 34631
L47951 34800
L47979 34856
L48007 34884
L48064 34912
L48148 34912
" />
<path d="M47276 34378
L47248 34350
L47192 34322
L47051 34322
L46995 34350
L46967 34378
L46939 34434
L46939 34491
L46967 34575
L47304 34912
L46939 34912
" />
</g>
<g style="fill:#000000; fill-opacity:0.0; 
stroke:#000000; stroke-width:0; stroke-opacity:1; 
stroke-linecap:round; stroke-linejoin:round;">
</g>
<g style="fill:#000000; fill-opacity:1.0; 
stroke:#000000; stroke-width:0; stroke-opacity:1; 
stroke-linecap:round; stroke-linejoin:round;">
<polyline style="fill-rule:evenodd;"
points="54185,41685
54814,41685
54814,42314
54185,42314
54185,41685
" /> 
<circle cx="54500" cy="42787.4" r="314.961" /> 
</g>
<g style="fill:#000000; fill-opacity:1.0; 
stroke:#000000; stroke-width:39.3701; stroke-opacity:1; 
stroke-linecap:round; stroke-linejoin:round;">
</g>
<g style="fill:#000000; fill-opacity:1.0; 
stroke:#000000; stroke-width:0; stroke-opacity:1; 
stroke-linecap:round; stroke-linejoin:round;">
<polyline style="fill-rule:evenodd;"
points="54185,38685
54814,38685
54814,39314
54185,39314
54185,38685
" /> 
<circle cx="54500" cy="39984.3" r="314.961" /> 
</g>
<g style="fill:#000000; fill-opacity:1.0; 
stroke:#000000; stroke-width:39.3701; stroke-opacity:1; 
stroke-linecap:round; stroke-linejoin:round;">
</g>
<g style="fill:#000000; fill-opacity:1.0; 
stroke:#000000; stroke-width:0; stroke-opacity:1; 
stroke-linecap:round; stroke-linejoin:round;">
<circle cx="54500" cy="36484.3" r="314.961" /> 
</g>
<g style="fill:#000000; fill-opacity:1.0; 
stroke:#000000; stroke-width:39.3701; stroke-opacity:1; 
stroke-linecap:round; stroke-linejoin:round;">
</g>
<g style="fill:#000000; fill-opacity:1.0; 
stroke:#000000; stroke-width:0; stroke-opacity:1; 
stroke-linecap:round; stroke-linejoin:round;">
<polyline style="fill-rule:evenodd;"
points="54185,35185
54814,35185
54814,35814
54185,35814
54185,35185
" /> 
<polyline style="fill-rule:evenodd;"
points="43507,37007
44492,37007
44492,37992
43507,37992
43507,37007
" /> 
<circle cx="44000" cy="39468.5" r="492.126" /> 
</g>
<g style="fill:#000000; fill-opacity:1.0; 
stroke:#000000; stroke-width:39.3701; stroke-opacity:1; 
stroke-linecap:round; stroke-linejoin:round;">
</g>
<g style="fill:#000000; fill-opacity:1.0; 
stroke:#000000; stroke-width:0; stroke-opacity:1; 
stroke-linecap:round; stroke-linejoin:round;">
<circle cx="44000" cy="41437" r="492.126" /> 
</g>
<g style="fill:#000000; fill-opacity:1.0; 
stroke:#000000; stroke-width:39.3701; stroke-opacity:1; 
stroke-linecap:round; stroke-linejoin:round;">
</g>
<g style="fill:#000000; fill-opacity:1.0; 
stroke:#000000; stroke-width:0; stroke-opacity:1; 
stroke-linecap:round; stroke-linejoin:round;">
<polyline style="fill-rule:evenodd;"
points="58334,37165
58334,37834
57665,37834
57665,37165
58334,37165
" /> 
</g>
<g style="fill:#000000; fill-opacity:1.0; 
stroke:#000000; stroke-width:669.291; stroke-opacity:1; 
stroke-linecap:round; stroke-linejoin:round;">
</g>
<g style="fill:#000000; fill-opacity:0.0; 
stroke:#000000; stroke-width:669.291; stroke-opacity:1; 
stroke-linecap:round; stroke-linejoin:round;">
<path d="M58000 36500
L58000 36500
" />
</g>
<g style="fill:#000000; fill-opacity:0.0; 
stroke:#000000; stroke-width:413.386; stroke-opacity:1; 
stroke-linecap:round; stroke-linejoin:round;">
<path d="M61088 37000
L60911 37000
" />
<path d="M61088 37500
L60911 37500
" />
</g>
<g style="fill:#000000; fill-opacity:0.0; 
stroke:#000000; stroke-width:0; stroke-opacity:1; 
stroke-linecap:round; stroke-linejoin:round;">
</g>
<g style="fill:#000000; fill-opacity:1.0; 
stroke:#000000; stroke-width:0; stroke-opacity:1; 
stroke-linecap:round; stroke-linejoin:round;">
<polyline style="fill-rule:evenodd;"
points="60704,36293
61295,36293
61295,36706
60704,36706
60704,36293
" /> 
<circle cx="51000" cy="39500" r="314.961" /> 
</g>
<g style="fill:#000000; fill-opacity:1.0; 
stroke:#000000; stroke-width:39.3701; stroke-opacity:1; 
stroke-linecap:round; stroke-linejoin:round;">
</g>
<g style="fill:#000000; fill-opacity:1.0; 
stroke:#000000; stroke-width:629.921; stroke-opacity:1; 
stroke-linecap:round; stroke-linejoin:round;">
</g>
<g style="fill:#000000; fill-opacity:0.0; 
stroke:#000000; stroke-width:629.921; stroke-opacity:1; 
stroke-linecap:round; stroke-linejoin:round;">
<path d="M47000 39500
L47000 39500
" />
<path d="M51000 41000
L51000 41000
" />
</g>
<g style="fill:#000000; fill-opacity:1.0; 
stroke:#000000; stroke-width:0; stroke-opacity:1; 
stroke-linecap:round; stroke-linejoin:round;">
<circle cx="47000" cy="41000" r="314.961" /> 
</g>
<g style="fill:#000000; fill-opacity:1.0; 
stroke:#000000; stroke-width:39.3701; stroke-opacity:1; 
stroke-linecap:round; stroke-linejoin:round;">
</g>
<g style="fill:#000000; fill-opacity:1.0; 
stroke:#000000; stroke-width:0; stroke-opacity:1; 
stroke-linecap:round; stroke-linejoin:round;">
<circle cx="51000" cy="42500" r="314.961" /> 
</g>
<g style="fill:#000000; fill-opacity:1.0; 
stroke:#000000; stroke-width:39.3701; stroke-opacity:1; 
stroke-linecap:round; stroke-linejoin:round;">
</g>
<g style="fill:#000000; fill-opacity:1.0; 
stroke:#000000; stroke-width:629.921; stroke-opacity:1; 
stroke-linecap:round; stroke-linejoin:round;">
</g>
<g style="fill:#000000; fill-opacity:0.0; 
stroke:#000000; stroke-width:629.921; stroke-opacity:1; 
stroke-linecap:round; stroke-linejoin:round;">
<path d="M47000 42500
L47000 42500
" />
</g>
<g style="fill:#000000; fill-opacity:1.0; 
stroke:#000000; stroke-width:0; stroke-opacity:1; 
stroke-linecap:round; stroke-linejoin:round;">
<circle cx="47000" cy="38000" r="314.961" /> 
</g>
<g style="fill:#000000; fill-opacity:1.0; 
stroke:#000000; stroke-width:39.3701; stroke-opacity:1; 
stroke-linecap:round; stroke-linejoin:round;">
</g>
<g style="fill:#000000; fill-opacity:1.0; 
stroke:#000000; stroke-width:629.921; stroke-opacity:1; 
stroke-linecap:round; stroke-linejoin:round;">
</g>
<g style="fill:#000000; fill-opacity:0.0; 
stroke:#000000; stroke-width:629.921; stroke-opacity:1; 
stroke-linecap:round; stroke-linejoin:round;">
<path d="M51000 38000
L51000 38000
" />
<path d="M62000 42500
L62000 42500
" />
</g>
<g style="fill:#000000; fill-opacity:1.0; 
stroke:#000000; stroke-width:0; stroke-opacity:1; 
stroke-linecap:round; stroke-linejoin:round;">
<circle cx="58000" cy="42500" r="314.961" /> 
</g>
<g style="fill:#000000; fill-opacity:1.0; 
stroke:#000000; stroke-width:39.3701; stroke-opacity:1; 
stroke-linecap:round; stroke-linejoin:round;">
</g>
<g style="fill:#000000; fill-opacity:1.0; 
stroke:#000000; stroke-width:629.921; stroke-opacity:1; 
stroke-linecap:round; stroke-linejoin:round;">
</g>
<g style="fill:#000000; fill-opacity:0.0; 
stroke:#000000; stroke-width:629.921; stroke-opacity:1; 
stroke-linecap:round; stroke-linejoin:round;">
<path d="M51000 36500
L51000 36500
" />
</g>
<g style="fill:#000000; fill-opacity:1.0; 
stroke:#000000; stroke-width:0; stroke-opacity:1; 
stroke-linecap:round; stroke-linejoin:round;">
<circle cx="47000" cy="36500" r="314.961" /> 
</g>
<g style="fill:#000000; fill-opacity:1.0; 
stroke:#000000; stroke-width:39.3701; stroke-opacity:1; 
stroke-linecap:round; stroke-linejoin:round;">
</g>
<g style="fill:#000000; fill-opacity:1.0; 
stroke:#000000; stroke-width:629.921; stroke-opacity:1; 
stroke-linecap:round; stroke-linejoin:round;">
</g>
<g style="fill:#000000; fill-opacity:0.0; 
stroke:#000000; stroke-width:629.921; stroke-opacity:1; 
stroke-linecap:round; stroke-linejoin:round;">
<path d="M62000 41000
L62000 41000
" />
</g>
<g style="fill:#000000; fill-opacity:1.0; 
stroke:#000000; stroke-width:0; stroke-opacity:1; 
stroke-linecap:round; stroke-linejoin:round;">
<circle cx="58000" cy="41000" r="314.961" /> 
</g>
<g style="fill:#000000; fill-opacity:1.0; 
stroke:#000000; stroke-width:39.3701; stroke-opacity:1; 
stroke-linecap:round; stroke-linejoin:round;">
</g>
<g style="fill:#000000; fill-opacity:1.0; 
stroke:#000000; stroke-width:0; stroke-opacity:1; 
stroke-linecap:round; stroke-linejoin:round;">
<circle cx="58000" cy="44000" r="314.961" /> 
</g>
<g style="fill:#000000; fill-opacity:1.0; 
stroke:#000000; stroke-width:39.3701; stroke-opacity:1; 
stroke-linecap:round; stroke-linejoin:round;">
</g>
<g style="fill:#000000; fill-opacity:1.0; 
stroke:#000000; stroke-width:629.921; stroke-opacity:1; 
stroke-linecap:round; stroke-linejoin:round;">
</g>
<g style="fill:#000000; fill-opacity:0.0; 
stroke:#000000; stroke-width:629.921; stroke-opacity:1; 
stroke-linecap:round; stroke-linejoin:round;">
<path d="M62000 44000
L62000 44000
" />
</g>
<g style="fill:#000000; fill-opacity:0.0; 
stroke:#000000; stroke-width:0; stroke-opacity:1; 
stroke-linecap:round; stroke-linejoin:round;">
</g>
<g style="fill:#000000; fill-opacity:1.0; 
stroke:#000000; stroke-width:0; stroke-opacity:1; 
stroke-linecap:round; stroke-linejoin:round;">
<polyline style="fill-rule:evenodd;"
points="52165,47834
52165,47165
52834,47165
52834,47834
52165,47834
" /> 
<polyline style="fill-rule:evenodd;"
points="54665,47834
54665,47165
55334,47165
55334,47834
54665,47834
" /> 
<polyline style="fill-rule:evenodd;"
points="57165,47834
57165,47165
57834,47165
57834,47834
57165,47834
" /> 
<polyline style="fill-rule:evenodd;"
points="49665,47834
49665,47165
50334,47165
50334,47834
49665,47834
" /> 
</g>
<g style="fill:#000000; fill-opacity:1.0; 
stroke:#000000; stroke-width:196.85; stroke-opacity:1; 
stroke-linecap:round; stroke-linejoin:round;">
</g>
<g style="fill:#000000; fill-opacity:0.0; 
stroke:#000000; stroke-width:196.85; stroke-opacity:1; 
stroke-linecap:round; stroke-linejoin:round;">
<path d="M54500 42000
L55905 42000
" />
<path d="M55905 42000
L57500 42000
" />
<path d="M61400 37000
L61000 37000
" />
<path d="M61600 37200
L61400 37000
" />
<path d="M61600 39600
L61600 37200
" />
<path d="M58500 42000
L59200 42000
" />
<path d="M59200 42000
L61600 39600
" />
<path d="M57500 42000
L58000 42000
" />
<path d="M58000 42000
L58500 42000
" />
<path d="M58000 42500
L58000 42000
" />
<path d="M56600 35800
L59307 35800
" />
<path d="M59307 35800
L60507 37000
" />
<path d="M54714 37685
L56600 35800
" />
<path d="M51000 38000
L51314 37685
" />
<path d="M60507 37000
L61000 37000
" />
<path d="M51314 37685
L54714 37685
" />
<path d="M56000 42000
L55905 42000
" />
<path d="M55000 47500
L55000 44500
" />
<path d="M56000 43500
L56000 42000
" />
<path d="M55000 44500
L56000 43500
" />
<path d="M51000 42500
L53129 42500
" />
<path d="M53417 42787
L54500 42787
" />
<path d="M53129 42500
L53417 42787
" />
<path d="M57526 36500
L58000 36500
" />
<path d="M56488 36500
L57526 36500
" />
<path d="M54500 38488
L56488 36500
" />
<path d="M54500 39000
L54500 38488
" />
<path d="M62000 42500
L62000 41000
" />
<path d="M59500 42500
L62000 42500
" />
<path d="M58000 44000
L59500 42500
" />
<path d="M50000 46968
L44468 41437
" />
<path d="M44468 41437
L44000 41437
" />
<path d="M50000 47500
L50000 46968
" />
<path d="M50531 47500
L50000 47500
" />
<path d="M51431 48400
L50531 47500
" />
<path d="M55400 48400
L51431 48400
" />
<path d="M58000 44000
L58000 45800
" />
<path d="M58000 45800
L55400 48400
" />
<path d="M49800 41000
L50600 40200
" />
<path d="M47000 41000
L49800 41000
" />
<path d="M50600 40200
L52400 40200
" />
<path d="M52400 40200
L52600 40000
" />
<path d="M54500 39984
L53415 39984
" />
<path d="M53031 39600
L52600 39600
" />
<path d="M53415 39984
L53031 39600
" />
<path d="M52600 40000
L52600 39600
" />
<path d="M43200 40637
L44000 41437
" />
<path d="M46600 38600
L46400 38400
" />
<path d="M47400 38600
L46600 38600
" />
<path d="M47600 38400
L47400 38600
" />
<path d="M50400 38400
L47600 38400
" />
<path d="M52600 39600
L52600 39000
" />
<path d="M46400 38400
L43800 38400
" />
<path d="M52000 38400
L51600 38400
" />
<path d="M43800 38400
L43200 39000
" />
<path d="M51400 38600
L50600 38600
" />
<path d="M43200 39000
L43200 40637
" />
<path d="M52600 39000
L52000 38400
" />
<path d="M51600 38400
L51400 38600
" />
<path d="M50600 38600
L50400 38400
" />
<path d="M58500 47500
L62000 44000
" />
<path d="M57500 47500
L58500 47500
" />
<path d="M62314 43685
L62000 44000
" />
<path d="M62800 43200
L62314 43685
" />
<path d="M62800 37200
L62800 43200
" />
<path d="M60400 34800
L62800 37200
" />
<path d="M54500 36484
L53784 37200
" />
<path d="M53784 37200
L50800 37200
" />
<path d="M50800 37200
L50400 36800
" />
<path d="M50400 36000
L51600 34800
" />
<path d="M51600 34800
L60400 34800
" />
<path d="M50400 36800
L50400 36000
" />
<path d="M52000 35500
L54500 35500
" />
<path d="M51000 36500
L52000 35500
" />
<path d="M60303 35400
L61000 36096
" />
<path d="M61000 36096
L61000 36500
" />
<path d="M54500 35500
L54600 35400
" />
<path d="M54600 35400
L60303 35400
" />
<path d="M46901 37500
L47000 37401
" />
<path d="M47000 38000
L47000 37401
" />
<path d="M44000 37500
L46901 37500
" />
<path d="M47000 37401
L47000 36500
" />
<path d="M50685 39185
L51000 39500
" />
<path d="M50375 38875
L50685 39185
" />
<path d="M44592 38875
L50375 38875
" />
<path d="M44000 39468
L44592 38875
" />
<path d="M58000 37500
L58000 41000
" />
<path d="M58531 37500
L61000 37500
" />
<path d="M58000 37500
L58531 37500
" />
<path d="M49500 42500
L51000 41000
" />
<path d="M46685 42185
L47000 42500
" />
<path d="M46200 41700
L46685 42185
" />
<path d="M47000 39500
L46554 39500
" />
<path d="M46200 39854
L46200 41700
" />
<path d="M46554 39500
L46200 39854
" />
<path d="M49200 42500
L49500 42500
" />
<path d="M49200 42500
L49200 43200
" />
<path d="M47000 42500
L49200 42500
" />
<path d="M52500 46500
L52500 47500
" />
<path d="M49200 43200
L52500 46500
" />
</g>
<g style="fill:#000000; fill-opacity:1.0; 
stroke:#000000; stroke-width:100; stroke-opacity:1; 
stroke-linecap:round; stroke-linejoin:round;">
<polyline style="fill-rule:evenodd;"
points="63500,48933
42405,48933
42405,47895
42624,47895
42624,48167
42728,48418
42920,48610
43171,48714
43442,48714
43694,48610
43886,48418
43990,48167
43990,47895
43886,47644
43854,47612
49415,47612
49415,47884
49453,47976
49523,48046
49615,48084
49887,48084
49950,48022
49950,47550
50050,47550
50050,48022
50112,48084
50384,48084
50476,48046
50546,47976
50584,47884
50584,47612
50522,47550
50050,47550
49950,47550
49477,47550
49415,47612
43854,47612
43694,47452
43442,47348
43171,47348
42920,47452
42728,47644
42624,47895
42405,47895
42405,47115
49415,47115
49415,47387
49477,47450
49950,47450
49950,46977
50050,46977
50050,47450
50522,47450
50584,47387
50584,47115
50546,47023
50476,46953
50384,46915
50112,46915
50050,46977
49950,46977
49887,46915
49615,46915
49523,46953
49453,47023
49415,47115
42405,47115
42405,41961
43545,41961
43596,42077
43872,42182
44167,42174
44403,42077
44454,41961
44000,41507
43545,41961
42405,41961
42405,41309
43254,41309
43262,41604
43359,41840
43475,41891
43929,41437
44070,41437
44524,41891
44640,41840
44745,41564
44737,41269
44640,41033
44524,40982
44070,41437
43929,41437
43475,40982
43359,41033
43254,41309
42405,41309
42405,40912
43545,40912
44000,41366
44454,40912
44403,40796
44127,40691
43832,40699
43596,40796
43545,40912
42405,40912
42405,37007
43252,37007
43252,37992
43272,38089
43327,38172
43410,38227
43507,38247
44492,38247
44589,38227
44672,38172
44727,38089
44747,37992
44747,37848
46451,37848
46435,37887
46435,38112
46521,38320
46679,38478
46796,38527
44627,38527
44592,38520
44558,38527
44558,38527
44456,38547
44456,38547
44456,38547
44370,38604
44370,38604
44341,38624
44322,38653
44219,38756
44147,38726
43852,38726
43579,38839
43370,39048
43257,39320
43257,39616
43370,39888
43579,40097
43852,40210
44147,40210
44420,40097
44629,39888
44742,39616
44742,39320
44712,39248
44737,39224
46340,39224
46332,39229
46332,39229
46303,39248
46283,39277
45977,39583
45948,39603
45871,39718
45851,39820
45851,39820
45844,39854
45851,39888
45851,41665
45844,41700
45871,41835
45929,41922
45929,41922
45948,41951
45977,41970
46437,42430
46423,42500
46467,42720
46592,42907
46779,43032
46944,43064
47055,43064
47220,43032
47407,42907
47446,42848
48851,42848
48851,43165
48844,43200
48871,43335
48929,43422
48929,43422
48948,43451
48977,43470
52151,46644
52151,46913
52067,46929
51985,46985
51929,47067
51910,47165
51910,47834
51929,47932
51985,48014
52067,48070
52165,48089
52834,48089
52932,48070
53014,48014
53070,47932
53089,47834
53089,47165
53070,47067
53014,46985
52932,46929
52848,46913
52848,46534
52855,46499
52848,46465
52848,46465
52828,46364
52751,46248
52722,46229
49548,43055
49548,42845
49635,42828
49751,42751
49770,42722
50930,41562
50944,41564
51055,41564
51220,41532
51407,41407
51532,41220
51576,41000
51532,40779
51407,40592
51220,40467
51055,40435
50944,40435
50779,40467
50592,40592
50467,40779
50423,41000
50437,41069
49355,42151
49234,42151
49200,42144
49165,42151
47446,42151
47407,42092
47220,41967
47055,41935
46944,41935
46930,41937
46548,41555
46548,41396
46673,41396
46703,41493
46914,41569
47139,41558
47296,41493
47326,41396
47000,41070
46673,41396
46548,41396
46548,41309
46603,41326
46929,41000
47070,41000
47396,41326
47493,41296
47569,41085
47558,40860
47493,40703
47396,40673
47070,41000
46929,41000
46603,40673
46548,40690
46548,40603
46673,40603
47000,40929
47326,40603
47296,40506
47085,40430
46860,40441
46703,40506
46673,40603
46548,40603
46548,40381
54173,40381
54203,40477
54414,40553
54639,40543
54796,40477
54826,40381
54500,40054
54173,40381
46548,40381
46548,39998
46621,39926
46779,40032
46944,40064
47055,40064
47220,40032
47407,39907
47532,39720
47576,39500
47532,39279
47495,39224
50231,39224
50435,39427
50435,39612
50521,39820
50679,39978
50887,40064
51112,40064
51320,39978
51400,39898
53930,39898
53941,40123
54006,40281
54103,40310
54429,39984
54570,39984
54896,40310
54993,40281
55069,40069
55058,39845
54993,39687
54896,39658
54570,39984
54429,39984
54103,39658
54006,39687
53930,39898
51400,39898
51478,39820
51564,39612
51564,39387
51478,39179
51320,39021
51112,38935
50927,38935
50646,38653
50626,38624
50511,38547
50409,38527
50409,38527
50375,38520
50341,38527
47203,38527
47320,38478
47478,38320
47564,38112
47564,37887
47478,37679
47348,37549
47348,37435
47355,37401
47348,37367
47348,36950
47478,36820
47564,36612
47564,36387
47478,36179
47320,36021
47112,35935
46887,35935
46679,36021
46521,36179
46435,36387
46435,36612
46521,36820
46651,36950
46651,37151
44747,37151
44747,37007
44727,36910
44672,36827
44589,36772
44492,36752
43507,36752
43410,36772
43327,36827
43272,36910
43252,37007
42405,37007
42405,34509
42624,34509
42624,34781
42728,35032
42920,35224
43171,35328
43442,35328
43694,35224
43886,35032
43990,34781
43990,34509
43886,34258
43694,34066
43442,33962
43171,33962
42920,34066
42728,34258
42624,34509
42405,34509
42405,33940
46517,33940
46517,35444
50462,35444
50177,35729
50148,35748
50129,35777
50129,35777
50071,35864
50044,36000
50051,36034
50051,36765
50044,36800
50051,36834
50051,36834
50071,36935
50148,37051
50177,37070
50529,37422
50548,37451
50577,37470
50577,37470
50621,37500
50664,37528
50683,37532
50592,37592
50467,37779
50423,38000
50467,38220
50592,38407
50779,38532
50944,38564
51055,38564
51220,38532
51407,38407
51532,38220
51569,38033
54461,38033
54277,38217
54248,38236
54229,38266
54229,38266
54171,38352
54155,38436
54087,38449
54004,38504
53949,38587
53930,38685
53930,39314
53949,39412
54004,39495
54087,39550
54179,39568
54173,39587
54500,39913
54826,39587
54820,39568
54912,39550
54995,39495
55050,39412
55069,39314
55069,38685
55050,38587
54995,38504
54983,38497
56632,36848
57529,36848
57578,36921
57585,36926
57567,36929
57485,36985
57429,37067
57410,37165
57410,37834
57429,37932
57485,38014
57567,38070
57651,38086
57651,40549
57521,40679
57435,40887
57435,41112
57521,41320
57679,41478
57887,41564
58112,41564
58320,41478
58478,41320
58564,41112
58564,40887
58478,40679
58348,40549
58348,38086
58432,38070
58514,38014
58570,37932
58586,37848
60610,37848
60733,37930
60866,37956
61133,37956
61251,37933
61251,39455
59055,41651
58034,41651
58000,41644
57965,41651
56034,41651
56000,41644
55965,41651
55063,41651
55050,41587
54995,41504
54912,41449
54814,41430
54185,41430
54087,41449
54004,41504
53949,41587
53930,41685
53930,42314
53949,42412
53967,42438
53561,42438
53400,42277
53381,42248
53265,42171
53164,42151
53164,42151
53129,42144
53095,42151
51450,42151
51320,42021
51112,41935
50887,41935
50679,42021
50521,42179
50435,42387
50435,42612
50521,42820
50679,42978
50887,43064
51112,43064
51320,42978
51450,42848
52985,42848
53146,43009
53166,43038
53195,43058
53195,43058
53269,43107
53281,43115
53383,43135
53383,43135
53417,43142
53451,43135
54049,43135
54179,43266
54387,43352
54612,43352
54820,43266
54978,43107
55064,42899
55064,42675
54991,42497
54995,42495
55050,42412
55063,42348
55651,42348
55651,43355
54777,44229
54748,44248
54729,44277
54729,44277
54671,44364
54644,44500
54651,44534
54651,46913
54567,46929
54485,46985
54429,47067
54410,47165
54410,47834
54429,47932
54485,48014
54567,48070
54665,48089
55334,48089
55432,48070
55514,48014
55570,47932
55589,47834
55589,47165
55570,47067
55514,46985
55432,46929
55348,46913
55348,44644
55595,44396
57673,44396
57703,44493
57914,44569
58139,44558
58296,44493
58326,44396
58000,44070
57673,44396
55595,44396
56078,43914
57430,43914
57441,44139
57506,44296
57603,44326
57929,44000
58070,44000
58396,44326
58493,44296
58569,44085
58558,43860
58493,43703
58396,43673
58070,44000
57929,44000
57603,43673
57506,43703
57430,43914
56078,43914
56222,43770
56251,43751
56283,43703
56328,43635
56328,43635
56334,43603
57673,43603
58000,43929
58326,43603
58296,43506
58085,43430
57860,43441
57703,43506
57673,43603
56334,43603
56348,43534
56348,43534
56355,43500
56348,43465
56348,42348
57451,42348
57435,42387
57435,42612
57521,42820
57679,42978
57887,43064
58112,43064
58320,42978
58478,42820
58554,42637
61452,42637
61515,42790
61663,42953
61862,43047
61950,43000
61950,42550
61500,42550
61452,42637
58554,42637
58564,42612
58564,42387
58554,42362
61452,42362
61500,42450
61950,42450
61950,41999
61862,41952
61663,42046
61515,42209
61452,42362
58554,42362
58548,42348
59165,42348
59200,42355
59234,42348
59234,42348
59335,42328
59451,42251
59470,42222
60555,41137
61452,41137
61515,41290
61663,41453
61862,41547
61950,41500
61950,41050
61500,41050
61452,41137
60555,41137
60830,40862
61452,40862
61500,40950
61950,40950
61950,40499
61862,40452
61663,40546
61515,40709
61452,40862
60830,40862
61822,39870
61851,39851
61871,39820
61928,39735
61931,39718
61948,39634
61948,39634
61955,39600
61948,39565
61948,37234
61955,37199
61948,37165
61948,37165
61928,37064
61851,36948
61822,36929
61670,36777
61651,36748
61550,36681
61550,36442
62451,37344
62451,40673
62336,40546
62137,40452
62050,40499
62050,40950
62057,40950
62057,41050
62050,41050
62050,41500
62137,41547
62336,41453
62451,41326
62451,42173
62336,42046
62137,41952
62050,41999
62050,42450
62057,42450
62057,42550
62050,42550
62050,43000
62137,43047
62336,42953
62451,42826
62451,43055
62092,43414
62092,43414
62069,43437
62055,43435
61944,43435
61779,43467
61592,43592
61467,43779
61423,44000
61437,44069
58355,47151
58086,47151
58070,47067
58014,46985
57932,46929
57834,46910
57165,46910
57067,46929
56985,46985
56929,47067
56910,47165
56910,47834
56929,47932
56985,48014
57067,48070
57165,48089
57834,48089
57932,48070
58014,48014
58070,47932
58077,47895
61915,47895
61915,48167
62019,48418
62211,48610
62462,48714
62734,48714
62985,48610
63177,48418
63281,48167
63281,47895
63177,47644
62985,47452
62734,47348
62462,47348
62211,47452
62019,47644
61915,47895
58077,47895
58086,47848
58465,47848
58500,47855
58534,47848
58534,47848
58635,47828
58751,47751
58770,47722
61930,44562
61944,44564
62055,44564
62220,44532
62407,44407
62532,44220
62576,44000
62562,43930
62585,43907
62585,43907
63022,43470
63051,43451
63070,43422
63128,43335
63129,43329
63148,43234
63148,43234
63155,43200
63148,43165
63148,37234
63155,37200
63148,37165
63148,37165
63128,37064
63116,37046
63070,36977
63070,36977
63051,36948
63022,36929
60670,34577
60651,34548
60592,34509
61915,34509
61915,34781
62019,35032
62211,35224
62462,35328
62734,35328
62985,35224
63177,35032
63281,34781
63281,34509
63177,34258
62985,34066
62734,33962
62462,33962
62211,34066
62019,34258
61915,34509
60592,34509
60535,34471
60434,34451
60434,34451
60400,34444
60365,34451
51634,34451
51600,34444
51565,34451
51565,34451
51464,34471
51377,34529
51377,34529
51348,34548
51329,34577
50707,35199
50707,33940
46517,33940
42405,33940
42405,33744
63500,33744
63500,48933
" /> 
</g> 
</svg>
