<?xml version="1.0" standalone="no"?>
 <!DOCTYPE svg PUBLIC "-//W3C//DTD SVG 1.1//EN" 
 "http://www.w3.org/Graphics/SVG/1.1/DTD/svg11.dtd"> 
<svg xmlns="http://www.w3.org/2000/svg" version="1.1" 
    width="29.7002cm" height="21.0007cm" viewBox="0 0 116930 82680 ">
<title>SVG Picture created as ampliBjt-F.SilkS.svg date 2018/09/26 18:48:12 </title>
  <desc>Picture generated by PCBNEW </desc>
<g style="fill:#000000; fill-opacity:1;stroke:#000000; stroke-opacity:1;
stroke-linecap:round; stroke-linejoin:round; "
 transform="translate(0 0) scale(1 1)">
</g>
<g style="fill:#000000; fill-opacity:0.0; 
stroke:#000000; stroke-width:-0.000393701; stroke-opacity:1; 
stroke-linecap:round; stroke-linejoin:round;">
</g>
<g style="fill:#000000; fill-opacity:0.0; 
stroke:#000000; stroke-width:118.11; stroke-opacity:1; 
stroke-linecap:round; stroke-linejoin:round;">
<path d="M56689 34596
L56970 34596
" />
<path d="M56633 34765
L56829 34174
L57026 34765
" />
<path d="M57223 34708
L57251 34737
L57223 34765
L57195 34737
L57223 34708
L57223 34765
" />
<path d="M57223 34399
L57251 34427
L57223 34455
L57195 34427
L57223 34399
L57223 34455
" />
<path d="M58292 34765
L58095 34483
" />
<path d="M57954 34765
L57954 34174
L58179 34174
L58235 34202
L58264 34230
L58292 34287
L58292 34371
L58264 34427
L58235 34455
L58179 34483
L57954 34483
" />
<path d="M58545 34455
L58742 34455
" />
<path d="M58826 34765
L58545 34765
L58545 34174
L58826 34174
" />
<path d="M59051 34737
L59135 34765
L59276 34765
L59332 34737
L59360 34708
L59388 34652
L59388 34596
L59360 34540
L59332 34512
L59276 34483
L59163 34455
L59107 34427
L59079 34399
L59051 34343
L59051 34287
L59079 34230
L59107 34202
L59163 34174
L59304 34174
L59388 34202
" />
<path d="M59642 34765
L59642 34174
L59866 34174
L59923 34202
L59951 34230
L59979 34287
L59979 34371
L59951 34427
L59923 34455
L59866 34483
L59642 34483
" />
<path d="M57054 35712
L57026 35741
L56942 35769
L56886 35769
L56801 35741
L56745 35684
L56717 35628
L56689 35516
L56689 35431
L56717 35319
L56745 35262
L56801 35206
L56886 35178
L56942 35178
L57026 35206
L57054 35234
" />
<path d="M57307 35712
L57336 35741
L57307 35769
L57279 35741
L57307 35712
L57307 35769
" />
<path d="M57307 35403
L57336 35431
L57307 35459
L57279 35431
L57307 35403
L57307 35459
" />
<path d="M58039 35459
L58235 35459
" />
<path d="M58320 35769
L58039 35769
L58039 35178
L58320 35178
" />
<path d="M58910 35712
L58882 35741
L58798 35769
L58742 35769
L58657 35741
L58601 35684
L58573 35628
L58545 35516
L58545 35431
L58573 35319
L58601 35262
L58657 35206
L58742 35178
L58798 35178
L58882 35206
L58910 35234
" />
<path d="M46154 41104
L46098 41076
L46014 41076
L45929 41104
L45873 41160
L45845 41217
L45817 41329
L45817 41414
L45845 41526
L45873 41582
L45929 41639
L46014 41667
L46070 41667
L46154 41639
L46182 41610
L46182 41414
L46070 41414
" />
<path d="M45831 39639
L45915 39667
L46056 39667
L46112 39639
L46140 39610
L46168 39554
L46168 39498
L46140 39442
L46112 39414
L46056 39385
L45943 39357
L45887 39329
L45859 39301
L45831 39245
L45831 39189
L45859 39132
L45887 39104
L45943 39076
L46084 39076
L46168 39104
" />
<path d="M45887 37667
L45550 37667
" />
<path d="M45718 37667
L45718 37076
L45662 37160
L45606 37217
L45550 37245
" />
<path d="M46112 37132
L46140 37104
L46196 37076
L46337 37076
L46393 37104
L46421 37132
L46449 37189
L46449 37245
L46421 37329
L46084 37667
L46449 37667
" />
<path d="M44657 43765
L44461 43483
" />
<path d="M44320 43765
L44320 43174
L44545 43174
L44601 43202
L44629 43230
L44657 43287
L44657 43371
L44629 43427
L44601 43455
L44545 43483
L44320 43483
" />
<path d="M44854 43174
L45220 43174
L45023 43399
L45107 43399
L45164 43427
L45192 43455
L45220 43512
L45220 43652
L45192 43708
L45164 43737
L45107 43765
L44939 43765
L44882 43737
L44854 43708
" />
<path d="M45754 43174
L45473 43174
L45445 43455
L45473 43427
L45529 43399
L45670 43399
L45726 43427
L45754 43455
L45782 43512
L45782 43652
L45754 43708
L45726 43737
L45670 43765
L45529 43765
L45473 43737
L45445 43708
" />
<path d="M45979 43174
L46373 43174
L46120 43765
" />
<path d="M46907 43765
L46570 43765
" />
<path d="M46738 43765
L46738 43174
L46682 43258
L46626 43315
L46570 43343
" />
<path d="M44264 44206
L44207 44178
L44123 44178
L44039 44206
L43983 44262
L43954 44319
L43926 44431
L43926 44516
L43954 44628
L43983 44684
L44039 44741
L44123 44769
L44179 44769
L44264 44741
L44292 44712
L44292 44516
L44179 44516
" />
<path d="M44545 44769
L44545 44375
" />
<path d="M44545 44487
L44573 44431
L44601 44403
L44657 44375
L44714 44375
" />
<path d="M45164 44375
L45164 44769
" />
<path d="M44911 44375
L44911 44684
L44939 44741
L44995 44769
L45079 44769
L45135 44741
L45164 44712
" />
<path d="M45445 44375
L45445 44965
" />
<path d="M45445 44403
L45501 44375
L45614 44375
L45670 44403
L45698 44431
L45726 44487
L45726 44656
L45698 44712
L45670 44741
L45614 44769
L45501 44769
L45445 44741
" />
<path d="M46064 44769
L46007 44741
L45979 44712
L45951 44656
L45951 44487
L45979 44431
L46007 44403
L46064 44375
L46148 44375
L46204 44403
L46232 44431
L46260 44487
L46260 44656
L46232 44712
L46204 44741
L46148 44769
L46064 44769
" />
<path d="M46935 44234
L46963 44206
L47020 44178
L47160 44178
L47216 44206
L47245 44234
L47273 44291
L47273 44347
L47245 44431
L46907 44769
L47273 44769
" />
<path d="M45312 34476
L45650 34476
" />
<path d="M45481 35067
L45481 34476
" />
<path d="M45847 34673
L45847 35264
" />
<path d="M45847 34701
L45903 34673
L46015 34673
L46071 34701
L46100 34729
L46128 34785
L46128 34954
L46100 35010
L46071 35039
L46015 35067
L45903 35067
L45847 35039
" />
<path d="M46690 35067
L46353 35067
" />
<path d="M46521 35067
L46521 34476
L46465 34560
L46409 34617
L46353 34645
" />
<path d="M47590 34757
L47674 34785
L47703 34814
L47731 34870
L47731 34954
L47703 35010
L47674 35039
L47618 35067
L47393 35067
L47393 34476
L47590 34476
L47646 34504
L47674 34532
L47703 34589
L47703 34645
L47674 34701
L47646 34729
L47590 34757
L47393 34757
" />
<path d="M48152 34476
L48152 34898
L48124 34982
L48068 35039
L47984 35067
L47928 35067
" />
<path d="M48349 34476
L48687 34476
" />
<path d="M48518 35067
L48518 34476
" />
</g>
<g style="fill:#000000; fill-opacity:0.0; 
stroke:#000000; stroke-width:47.2441; stroke-opacity:1; 
stroke-linecap:round; stroke-linejoin:round;">
<circle cx="54500" cy="42393.7" r="1031.5" /> 
<path d="M54090 42393
L53484 42393
" />
<path d="M55515 42393
L54909 42393
" />
<path d="M54090 42409
L53484 42409
" />
<path d="M55515 42409
L54909 42409
" />
<path d="M55515 42425
L54909 42425
" />
<path d="M54090 42425
L53484 42425
" />
<path d="M55514 42440
L54909 42440
" />
<path d="M54090 42440
L53485 42440
" />
<path d="M55514 42456
L54909 42456
" />
<path d="M54090 42456
L53485 42456
" />
<path d="M55512 42472
L54909 42472
" />
<path d="M54090 42472
L53487 42472
" />
<path d="M55511 42488
L54909 42488
" />
<path d="M54090 42488
L53488 42488
" />
<path d="M55509 42503
L54909 42503
" />
<path d="M54090 42503
L53490 42503
" />
<path d="M55508 42519
L54909 42519
" />
<path d="M54090 42519
L53491 42519
" />
<path d="M55506 42535
L54909 42535
" />
<path d="M54090 42535
L53493 42535
" />
<path d="M55503 42551
L54909 42551
" />
<path d="M54090 42551
L53496 42551
" />
<path d="M55501 42566
L54909 42566
" />
<path d="M54090 42566
L53498 42566
" />
<path d="M55498 42582
L54909 42582
" />
<path d="M54090 42582
L53501 42582
" />
<path d="M55495 42598
L54909 42598
" />
<path d="M54090 42598
L53504 42598
" />
<path d="M55492 42614
L54909 42614
" />
<path d="M54090 42614
L53507 42614
" />
<path d="M55488 42629
L54909 42629
" />
<path d="M54090 42629
L53511 42629
" />
<path d="M55484 42645
L54909 42645
" />
<path d="M54090 42645
L53515 42645
" />
<path d="M55480 42661
L54909 42661
" />
<path d="M54090 42661
L53519 42661
" />
<path d="M55476 42677
L54909 42677
" />
<path d="M54090 42677
L53523 42677
" />
<path d="M55471 42693
L54909 42693
" />
<path d="M54090 42693
L53528 42693
" />
<path d="M55466 42709
L54909 42709
" />
<path d="M54090 42709
L53533 42709
" />
<path d="M55461 42724
L54909 42724
" />
<path d="M54090 42724
L53538 42724
" />
<path d="M55455 42740
L54909 42740
" />
<path d="M54090 42740
L53544 42740
" />
<path d="M55450 42756
L54909 42756
" />
<path d="M54090 42756
L53549 42756
" />
<path d="M55444 42772
L54909 42772
" />
<path d="M54090 42772
L53555 42772
" />
<path d="M55437 42787
L54909 42787
" />
<path d="M54090 42787
L53562 42787
" />
<path d="M55431 42803
L54909 42803
" />
<path d="M54090 42803
L53568 42803
" />
<path d="M55424 42819
L54909 42819
" />
<path d="M54090 42819
L53575 42819
" />
<path d="M55416 42835
L54909 42835
" />
<path d="M54090 42835
L53583 42835
" />
<path d="M55409 42850
L54909 42850
" />
<path d="M54090 42850
L53590 42850
" />
<path d="M55401 42866
L54909 42866
" />
<path d="M54090 42866
L53598 42866
" />
<path d="M55392 42882
L54909 42882
" />
<path d="M54090 42882
L53607 42882
" />
<path d="M55384 42898
L54909 42898
" />
<path d="M54090 42898
L53615 42898
" />
<path d="M55375 42913
L54909 42913
" />
<path d="M54090 42913
L53624 42913
" />
<path d="M55366 42929
L54909 42929
" />
<path d="M54090 42929
L53633 42929
" />
<path d="M55356 42945
L54909 42945
" />
<path d="M54090 42945
L53643 42945
" />
<path d="M55346 42961
L54909 42961
" />
<path d="M54090 42961
L53653 42961
" />
<path d="M55335 42976
L54909 42976
" />
<path d="M54090 42976
L53664 42976
" />
<path d="M55324 42992
L54909 42992
" />
<path d="M54090 42992
L53675 42992
" />
<path d="M55312 43008
L54909 43008
" />
<path d="M54090 43008
L53687 43008
" />
<path d="M55301 43024
L54909 43024
" />
<path d="M54090 43024
L53698 43024
" />
<path d="M55288 43039
L54909 43039
" />
<path d="M54090 43039
L53711 43039
" />
<path d="M55275 43055
L54909 43055
" />
<path d="M54090 43055
L53724 43055
" />
<path d="M55262 43071
L54909 43071
" />
<path d="M54090 43071
L53737 43071
" />
<path d="M55248 43087
L54909 43087
" />
<path d="M54090 43087
L53751 43087
" />
<path d="M55233 43102
L54909 43102
" />
<path d="M54090 43102
L53766 43102
" />
<path d="M55218 43118
L54909 43118
" />
<path d="M54090 43118
L53781 43118
" />
<path d="M55202 43134
L54909 43134
" />
<path d="M54090 43134
L53797 43134
" />
<path d="M55186 43150
L54909 43150
" />
<path d="M54090 43150
L53813 43150
" />
<path d="M55168 43165
L54909 43165
" />
<path d="M54090 43165
L53831 43165
" />
<path d="M55150 43181
L54909 43181
" />
<path d="M54090 43181
L53849 43181
" />
<path d="M55131 43197
L53868 43197
" />
<path d="M55111 43212
L53888 43212
" />
<path d="M55090 43228
L53909 43228
" />
<path d="M55068 43244
L53931 43244
" />
<path d="M55044 43260
L53955 43260
" />
<path d="M55019 43275
L53980 43275
" />
<path d="M54992 43291
L54007 43291
" />
<path d="M54963 43307
L54036 43307
" />
<path d="M54932 43323
L54067 43323
" />
<path d="M54898 43338
L54101 43338
" />
<path d="M54860 43354
L54139 43354
" />
<path d="M54816 43370
L54183 43370
" />
<path d="M54766 43386
L54233 43386
" />
<path d="M54703 43401
L54296 43401
" />
<path d="M54611 43417
L54388 43417
" />
<path d="M55080 41289
L55080 41486
" />
<path d="M55179 41387
L54982 41387
" />
<circle cx="54500" cy="39492.1" r="1287.4" /> 
<path d="M55771 39492
L53228 39492
" />
<path d="M55771 39507
L53228 39507
" />
<path d="M55771 39523
L53228 39523
" />
<path d="M55770 39539
L53229 39539
" />
<path d="M55770 39555
L53229 39555
" />
<path d="M55769 39570
L53230 39570
" />
<path d="M55768 39586
L54909 39586
" />
<path d="M54090 39586
L53231 39586
" />
<path d="M55766 39602
L54909 39602
" />
<path d="M54090 39602
L53233 39602
" />
<path d="M55765 39618
L54909 39618
" />
<path d="M54090 39618
L53234 39618
" />
<path d="M55764 39633
L54909 39633
" />
<path d="M54090 39633
L53235 39633
" />
<path d="M55762 39649
L54909 39649
" />
<path d="M54090 39649
L53237 39649
" />
<path d="M55760 39665
L54909 39665
" />
<path d="M54090 39665
L53239 39665
" />
<path d="M55757 39681
L54909 39681
" />
<path d="M54090 39681
L53242 39681
" />
<path d="M55755 39696
L54909 39696
" />
<path d="M54090 39696
L53244 39696
" />
<path d="M55752 39712
L54909 39712
" />
<path d="M54090 39712
L53247 39712
" />
<path d="M55750 39728
L54909 39728
" />
<path d="M54090 39728
L53250 39728
" />
<path d="M55746 39744
L54909 39744
" />
<path d="M54090 39744
L53253 39744
" />
<path d="M55743 39759
L54909 39759
" />
<path d="M54090 39759
L53256 39759
" />
<path d="M55740 39775
L54909 39775
" />
<path d="M54090 39775
L53259 39775
" />
<path d="M55736 39791
L54909 39791
" />
<path d="M54090 39791
L53263 39791
" />
<path d="M55732 39807
L54909 39807
" />
<path d="M54090 39807
L53267 39807
" />
<path d="M55728 39823
L54909 39823
" />
<path d="M54090 39823
L53271 39823
" />
<path d="M55724 39838
L54909 39838
" />
<path d="M54090 39838
L53275 39838
" />
<path d="M55719 39854
L54909 39854
" />
<path d="M54090 39854
L53280 39854
" />
<path d="M55714 39870
L54909 39870
" />
<path d="M54090 39870
L53285 39870
" />
<path d="M55710 39886
L54909 39886
" />
<path d="M54090 39886
L53289 39886
" />
<path d="M55705 39901
L54909 39901
" />
<path d="M54090 39901
L53294 39901
" />
<path d="M55699 39917
L54909 39917
" />
<path d="M54090 39917
L53300 39917
" />
<path d="M55694 39933
L54909 39933
" />
<path d="M54090 39933
L53305 39933
" />
<path d="M55688 39949
L54909 39949
" />
<path d="M54090 39949
L53311 39949
" />
<path d="M55681 39964
L54909 39964
" />
<path d="M54090 39964
L53318 39964
" />
<path d="M55675 39980
L54909 39980
" />
<path d="M54090 39980
L53324 39980
" />
<path d="M55669 39996
L54909 39996
" />
<path d="M54090 39996
L53330 39996
" />
<path d="M55662 40012
L54909 40012
" />
<path d="M54090 40012
L53337 40012
" />
<path d="M55655 40027
L54909 40027
" />
<path d="M54090 40027
L53344 40027
" />
<path d="M55648 40043
L54909 40043
" />
<path d="M54090 40043
L53351 40043
" />
<path d="M55640 40059
L54909 40059
" />
<path d="M54090 40059
L53359 40059
" />
<path d="M55632 40075
L54909 40075
" />
<path d="M54090 40075
L53367 40075
" />
<path d="M55624 40090
L54909 40090
" />
<path d="M54090 40090
L53375 40090
" />
<path d="M55615 40106
L54909 40106
" />
<path d="M54090 40106
L53384 40106
" />
<path d="M55607 40122
L54909 40122
" />
<path d="M54090 40122
L53392 40122
" />
<path d="M55598 40138
L54909 40138
" />
<path d="M54090 40138
L53401 40138
" />
<path d="M55588 40153
L54909 40153
" />
<path d="M54090 40153
L53411 40153
" />
<path d="M55579 40169
L54909 40169
" />
<path d="M54090 40169
L53420 40169
" />
<path d="M55569 40185
L54909 40185
" />
<path d="M54090 40185
L53430 40185
" />
<path d="M55559 40201
L54909 40201
" />
<path d="M54090 40201
L53440 40201
" />
<path d="M55548 40216
L54909 40216
" />
<path d="M54090 40216
L53451 40216
" />
<path d="M55537 40232
L54909 40232
" />
<path d="M54090 40232
L53462 40232
" />
<path d="M55526 40248
L54909 40248
" />
<path d="M54090 40248
L53473 40248
" />
<path d="M55514 40264
L54909 40264
" />
<path d="M54090 40264
L53485 40264
" />
<path d="M55503 40279
L54909 40279
" />
<path d="M54090 40279
L53496 40279
" />
<path d="M55490 40295
L54909 40295
" />
<path d="M54090 40295
L53509 40295
" />
<path d="M55477 40311
L54909 40311
" />
<path d="M54090 40311
L53522 40311
" />
<path d="M55464 40327
L54909 40327
" />
<path d="M54090 40327
L53535 40327
" />
<path d="M55451 40342
L54909 40342
" />
<path d="M54090 40342
L53548 40342
" />
<path d="M55437 40358
L54909 40358
" />
<path d="M54090 40358
L53562 40358
" />
<path d="M55422 40374
L54909 40374
" />
<path d="M54090 40374
L53577 40374
" />
<path d="M55407 40390
L54909 40390
" />
<path d="M54090 40390
L53592 40390
" />
<path d="M55391 40405
L53608 40405
" />
<path d="M55375 40421
L53624 40421
" />
<path d="M55359 40437
L53640 40437
" />
<path d="M55341 40453
L53658 40453
" />
<path d="M55323 40468
L53676 40468
" />
<path d="M55304 40484
L53695 40484
" />
<path d="M55285 40500
L53714 40500
" />
<path d="M55265 40516
L53734 40516
" />
<path d="M55244 40531
L53755 40531
" />
<path d="M55222 40547
L53777 40547
" />
<path d="M55199 40563
L53800 40563
" />
<path d="M55174 40579
L53825 40579
" />
<path d="M55149 40594
L53850 40594
" />
<path d="M55122 40610
L53877 40610
" />
<path d="M55094 40626
L53905 40626
" />
<path d="M55063 40642
L53936 40642
" />
<path d="M55031 40657
L53968 40657
" />
<path d="M54996 40673
L54003 40673
" />
<path d="M54958 40689
L54041 40689
" />
<path d="M54916 40705
L54083 40705
" />
<path d="M54870 40720
L54129 40720
" />
<path d="M54815 40736
L54184 40736
" />
<path d="M54749 40752
L54250 40752
" />
<path d="M54658 40768
L54341 40768
" />
<path d="M55224 38114
L55224 38362
" />
<path d="M55348 38238
L55100 38238
" />
<path d="M55348 34738
L55100 34738
" />
<path d="M55224 34614
L55224 34862
" />
<path d="M54658 37268
L54341 37268
" />
<path d="M54749 37252
L54250 37252
" />
<path d="M54815 37236
L54184 37236
" />
<path d="M54870 37220
L54129 37220
" />
<path d="M54916 37205
L54083 37205
" />
<path d="M54958 37189
L54041 37189
" />
<path d="M54996 37173
L54003 37173
" />
<path d="M55031 37157
L53968 37157
" />
<path d="M55063 37142
L53936 37142
" />
<path d="M55094 37126
L53905 37126
" />
<path d="M55122 37110
L53877 37110
" />
<path d="M55149 37094
L53850 37094
" />
<path d="M55174 37079
L53825 37079
" />
<path d="M55199 37063
L53800 37063
" />
<path d="M55222 37047
L53777 37047
" />
<path d="M55244 37031
L53755 37031
" />
<path d="M55265 37016
L53734 37016
" />
<path d="M55285 37000
L53714 37000
" />
<path d="M55304 36984
L53695 36984
" />
<path d="M55323 36968
L53676 36968
" />
<path d="M55341 36953
L53658 36953
" />
<path d="M55359 36937
L53640 36937
" />
<path d="M55375 36921
L53624 36921
" />
<path d="M55391 36905
L53608 36905
" />
<path d="M54090 36890
L53592 36890
" />
<path d="M55407 36890
L54909 36890
" />
<path d="M54090 36874
L53577 36874
" />
<path d="M55422 36874
L54909 36874
" />
<path d="M54090 36858
L53562 36858
" />
<path d="M55437 36858
L54909 36858
" />
<path d="M54090 36842
L53548 36842
" />
<path d="M55451 36842
L54909 36842
" />
<path d="M54090 36827
L53535 36827
" />
<path d="M55464 36827
L54909 36827
" />
<path d="M54090 36811
L53522 36811
" />
<path d="M55477 36811
L54909 36811
" />
<path d="M54090 36795
L53509 36795
" />
<path d="M55490 36795
L54909 36795
" />
<path d="M54090 36779
L53496 36779
" />
<path d="M55503 36779
L54909 36779
" />
<path d="M54090 36764
L53485 36764
" />
<path d="M55514 36764
L54909 36764
" />
<path d="M54090 36748
L53473 36748
" />
<path d="M55526 36748
L54909 36748
" />
<path d="M54090 36732
L53462 36732
" />
<path d="M55537 36732
L54909 36732
" />
<path d="M54090 36716
L53451 36716
" />
<path d="M55548 36716
L54909 36716
" />
<path d="M54090 36701
L53440 36701
" />
<path d="M55559 36701
L54909 36701
" />
<path d="M54090 36685
L53430 36685
" />
<path d="M55569 36685
L54909 36685
" />
<path d="M54090 36669
L53420 36669
" />
<path d="M55579 36669
L54909 36669
" />
<path d="M54090 36653
L53411 36653
" />
<path d="M55588 36653
L54909 36653
" />
<path d="M54090 36638
L53401 36638
" />
<path d="M55598 36638
L54909 36638
" />
<path d="M54090 36622
L53392 36622
" />
<path d="M55607 36622
L54909 36622
" />
<path d="M54090 36606
L53384 36606
" />
<path d="M55615 36606
L54909 36606
" />
<path d="M54090 36590
L53375 36590
" />
<path d="M55624 36590
L54909 36590
" />
<path d="M54090 36575
L53367 36575
" />
<path d="M55632 36575
L54909 36575
" />
<path d="M54090 36559
L53359 36559
" />
<path d="M55640 36559
L54909 36559
" />
<path d="M54090 36543
L53351 36543
" />
<path d="M55648 36543
L54909 36543
" />
<path d="M54090 36527
L53344 36527
" />
<path d="M55655 36527
L54909 36527
" />
<path d="M54090 36512
L53337 36512
" />
<path d="M55662 36512
L54909 36512
" />
<path d="M54090 36496
L53330 36496
" />
<path d="M55669 36496
L54909 36496
" />
<path d="M54090 36480
L53324 36480
" />
<path d="M55675 36480
L54909 36480
" />
<path d="M54090 36464
L53318 36464
" />
<path d="M55681 36464
L54909 36464
" />
<path d="M54090 36449
L53311 36449
" />
<path d="M55688 36449
L54909 36449
" />
<path d="M54090 36433
L53305 36433
" />
<path d="M55694 36433
L54909 36433
" />
<path d="M54090 36417
L53300 36417
" />
<path d="M55699 36417
L54909 36417
" />
<path d="M54090 36401
L53294 36401
" />
<path d="M55705 36401
L54909 36401
" />
<path d="M54090 36386
L53289 36386
" />
<path d="M55710 36386
L54909 36386
" />
<path d="M54090 36370
L53285 36370
" />
<path d="M55714 36370
L54909 36370
" />
<path d="M54090 36354
L53280 36354
" />
<path d="M55719 36354
L54909 36354
" />
<path d="M54090 36338
L53275 36338
" />
<path d="M55724 36338
L54909 36338
" />
<path d="M54090 36323
L53271 36323
" />
<path d="M55728 36323
L54909 36323
" />
<path d="M54090 36307
L53267 36307
" />
<path d="M55732 36307
L54909 36307
" />
<path d="M54090 36291
L53263 36291
" />
<path d="M55736 36291
L54909 36291
" />
<path d="M54090 36275
L53259 36275
" />
<path d="M55740 36275
L54909 36275
" />
<path d="M54090 36259
L53256 36259
" />
<path d="M55743 36259
L54909 36259
" />
<path d="M54090 36244
L53253 36244
" />
<path d="M55746 36244
L54909 36244
" />
<path d="M54090 36228
L53250 36228
" />
<path d="M55750 36228
L54909 36228
" />
<path d="M54090 36212
L53247 36212
" />
<path d="M55752 36212
L54909 36212
" />
<path d="M54090 36196
L53244 36196
" />
<path d="M55755 36196
L54909 36196
" />
<path d="M54090 36181
L53242 36181
" />
<path d="M55757 36181
L54909 36181
" />
<path d="M54090 36165
L53239 36165
" />
<path d="M55760 36165
L54909 36165
" />
<path d="M54090 36149
L53237 36149
" />
<path d="M55762 36149
L54909 36149
" />
<path d="M54090 36133
L53235 36133
" />
<path d="M55764 36133
L54909 36133
" />
<path d="M54090 36118
L53234 36118
" />
<path d="M55765 36118
L54909 36118
" />
<path d="M54090 36102
L53233 36102
" />
<path d="M55766 36102
L54909 36102
" />
<path d="M54090 36086
L53231 36086
" />
<path d="M55768 36086
L54909 36086
" />
<path d="M55769 36070
L53230 36070
" />
<path d="M55770 36055
L53229 36055
" />
<path d="M55770 36039
L53229 36039
" />
<path d="M55771 36023
L53228 36023
" />
<path d="M55771 36007
L53228 36007
" />
<path d="M55771 35992
L53228 35992
" />
<circle cx="54500" cy="35992.1" r="1287.4" /> 
<path d="M43338.6 37500 A661.417 661.417 0.0 0 0 43416 37810.5 " />
<path d="M43689.4 38084.3 A661.696 661.696 0.0 0 0 44310.7 38084.2 " />
<path d="M44584.3 37810.6 A661.696 661.696 0.0 0 0 44584.2 37189.3 " />
<path d="M44310.6 36915.7 A661.696 661.696 0.0 0 0 43689.3 36915.8 " />
<path d="M43415.7 37189.4 A661.696 661.696 0.0 0 0 43338.4 37511.6 " />
<circle cx="44000" cy="39468.5" r="661.417" /> 
<circle cx="44000" cy="41437" r="661.417" /> 
<path d="M43212 36492
L43212 42444
" />
<path d="M44787 36492
L44787 42444
" />
<path d="M45598 36492
L45598 42444
" />
<path d="M42401 36492
L42401 42444
" />
<path d="M45598 36492
L42401 36492
" />
<path d="M45598 42444
L42401 42444
" />
<path d="M44420 39970
L44384 39933
" />
<path d="M43521 39070
L43498 39047
" />
<path d="M44501 39889
L44478 39866
" />
<path d="M43615 39003
L43579 38966
" />
<path d="M44420 41938
L44384 41901
" />
<path d="M43521 41039
L43498 41016
" />
<path d="M44501 41858
L44478 41835
" />
<path d="M43615 40972
L43579 40935
" />
<path d="M43188 36397
L42307 36397
" />
<path d="M42307 36397
L42307 37185
" />
<path d="M58523 35976
L57476 35976
" />
<path d="M58523 37000
L58523 35976
" />
<path d="M57476 37000
L57476 35976
" />
<path d="M58523 37000
L57476 37000
" />
<path d="M58523 37500
L58523 38023
" />
<path d="M58523 38023
L58000 38023
" />
<path d="M60271 36291
L60271 37708
" />
<path d="M62023.6 37000 A1023.62 1023.62 0.0 0 0 60276.2 36276.2 " />
<path d="M60276.2 37723.8 A1023.62 1023.62 0.0 0 0 62023.6 37000 " />
<path d="M50287 40039
L50287 38960
" />
<path d="M50287 38960
L47712 38960
" />
<path d="M47712 38960
L47712 40039
" />
<path d="M47712 40039
L50287 40039
" />
<path d="M50590 39500
L50287 39500
" />
<path d="M47409 39500
L47712 39500
" />
<path d="M50590 41000
L50287 41000
" />
<path d="M47409 41000
L47712 41000
" />
<path d="M50287 40460
L47712 40460
" />
<path d="M50287 41539
L50287 40460
" />
<path d="M47712 41539
L50287 41539
" />
<path d="M47712 40460
L47712 41539
" />
<path d="M50287 43039
L50287 41960
" />
<path d="M50287 41960
L47712 41960
" />
<path d="M47712 41960
L47712 43039
" />
<path d="M47712 43039
L50287 43039
" />
<path d="M50590 42500
L50287 42500
" />
<path d="M47409 42500
L47712 42500
" />
<path d="M47712 37460
L47712 38539
" />
<path d="M47712 38539
L50287 38539
" />
<path d="M50287 38539
L50287 37460
" />
<path d="M50287 37460
L47712 37460
" />
<path d="M47409 38000
L47712 38000
" />
<path d="M50590 38000
L50287 38000
" />
<path d="M61590 42500
L61287 42500
" />
<path d="M58409 42500
L58712 42500
" />
<path d="M61287 41960
L58712 41960
" />
<path d="M61287 43039
L61287 41960
" />
<path d="M58712 43039
L61287 43039
" />
<path d="M58712 41960
L58712 43039
" />
<path d="M50590 36500
L50287 36500
" />
<path d="M47409 36500
L47712 36500
" />
<path d="M50287 35960
L47712 35960
" />
<path d="M50287 37039
L50287 35960
" />
<path d="M47712 37039
L50287 37039
" />
<path d="M47712 35960
L47712 37039
" />
<path d="M61590 41000
L61287 41000
" />
<path d="M58409 41000
L58712 41000
" />
<path d="M61287 40460
L58712 40460
" />
<path d="M61287 41539
L61287 40460
" />
<path d="M58712 41539
L61287 41539
" />
<path d="M58712 40460
L58712 41539
" />
<path d="M58712 43460
L58712 44539
" />
<path d="M58712 44539
L61287 44539
" />
<path d="M61287 44539
L61287 43460
" />
<path d="M61287 43460
L58712 43460
" />
<path d="M58409 44000
L58712 44000
" />
<path d="M61590 44000
L61287 44000
" />
<path d="M51976 48023
L53023 48023
" />
<path d="M51976 48000
L51976 48023
" />
<path d="M53023 48000
L53023 48023
" />
<path d="M51976 48000
L53023 48000
" />
<path d="M51976 47500
L51976 46976
" />
<path d="M51976 46976
L52500 46976
" />
<path d="M54476 46976
L55000 46976
" />
<path d="M54476 47500
L54476 46976
" />
<path d="M54476 48000
L55523 48000
" />
<path d="M55523 48000
L55523 48023
" />
<path d="M54476 48000
L54476 48023
" />
<path d="M54476 48023
L55523 48023
" />
<path d="M56976 48023
L58023 48023
" />
<path d="M56976 48000
L56976 48023
" />
<path d="M58023 48000
L58023 48023
" />
<path d="M56976 48000
L58023 48000
" />
<path d="M56976 47500
L56976 46976
" />
<path d="M56976 46976
L57500 46976
" />
<path d="M49476 48023
L50523 48023
" />
<path d="M49476 48000
L49476 48023
" />
<path d="M50523 48000
L50523 48023
" />
<path d="M49476 48000
L50523 48000
" />
<path d="M49476 47500
L49476 46976
" />
<path d="M49476 46976
L50000 46976
" />
</g>
<g style="fill:#000000; fill-opacity:1.0; 
stroke:#000000; stroke-width:3.93701; stroke-opacity:1; 
stroke-linecap:round; stroke-linejoin:round;">
<polyline style="fill-rule:evenodd;"
points="45887,45487
45891,45841
46008,45725
46103,45617
46172,45507
46220,45384
46247,45270
46273,45133
46782,45133
46773,45245
46753,45409
46721,45565
46679,45704
46664,45744
46593,45884
46501,46020
46394,46145
46280,46249
46225,46289
46158,46333
46783,46333
46783,46885
46483,46880
46387,46878
46304,46878
46239,46879
46197,46881
46183,46883
46196,46896
46230,46919
46252,46933
46314,46979
46385,47046
46458,47126
46526,47211
46582,47292
46587,47301
46638,47401
46684,47519
46723,47643
46749,47760
46757,47817
46764,47887
46772,47956
46776,47995
46785,48066
46271,48066
46250,47940
46210,47785
46141,47640
46049,47512
45995,47456
45891,47360
45887,47722
45882,48083
45350,48083
45350,47733
45349,47600
45346,47500
45343,47431
45337,47393
45332,47383
45312,47394
45276,47423
45231,47466
45218,47479
45118,47601
45043,47745
44991,47910
44986,47934
44958,48075
44708,48070
44457,48065
44469,47903
44499,47691
44558,47493
44645,47310
44757,47146
44761,47141
44811,47085
44867,47028
44924,46976
44975,46934
45015,46907
45034,46900
45049,46889
45050,46887
45034,46883
44990,46881
44923,46879
44839,46879
44750,46880
44450,46886
44450,46333
45070,46333
44972,46261
44822,46129
44697,45977
44598,45804
44526,45613
44481,45404
44468,45287
44457,45133
44975,45133
44979,45204
44994,45303
45025,45413
45068,45519
45078,45540
45105,45584
45146,45637
45193,45693
45242,45745
45286,45787
45319,45812
45331,45816
45338,45802
45344,45757
45347,45683
45349,45576
45350,45475
45350,45133
45882,45133
45887,45487
" /> 
<polyline style="fill-rule:evenodd;"
points="46050,48136
46141,48141
46241,48289
46341,48436
46351,48133
46438,48133
46525,48133
46520,48425
46515,48718
46430,48713
46345,48708
46243,48559
46141,48411
46136,48563
46132,48716
45968,48716
45963,48424
45958,48131
46050,48136
" /> 
<polyline style="fill-rule:evenodd;"
points="45900,48283
45716,48283
45716,48716
45533,48716
45533,48283
45350,48283
45350,48133
45900,48133
45900,48283
" /> 
<polyline style="fill-rule:evenodd;"
points="44820,48133
44916,48133
44916,48341
44917,48428
44918,48488
44923,48526
44930,48548
44941,48561
44948,48566
45006,48582
45056,48570
45073,48557
45085,48538
45093,48507
45097,48456
45099,48381
45100,48332
45100,48133
45283,48133
45283,48347
45282,48437
45280,48501
45276,48545
45267,48576
45254,48603
45245,48618
45185,48679
45104,48714
45004,48723
44926,48715
44849,48691
44792,48650
44741,48599
44733,48366
44725,48133
44820,48133
" /> 
<polyline style="fill-rule:evenodd;"
points="60540,45414
60571,45414
60594,45414
60609,45415
60619,45417
60624,45419
60627,45422
60628,45426
60628,45427
60630,45436
60634,45455
60639,45481
60644,45512
60651,45547
60651,45548
60658,45582
60664,45612
60669,45636
60673,45652
60675,45660
60675,45660
60682,45663
60697,45669
60717,45676
60717,45676
60741,45686
60769,45697
60796,45709
60798,45709
60842,45729
60939,45663
60968,45643
60995,45625
61018,45610
61035,45599
61044,45594
61045,45593
61051,45595
61064,45604
61083,45620
61108,45644
61134,45669
61159,45694
61182,45717
61200,45736
61214,45750
61220,45758
61220,45758
61221,45764
61218,45772
61212,45786
61200,45805
61183,45830
61161,45864
61141,45893
61123,45920
61108,45941
61098,45957
61092,45965
61092,45966
61093,45974
61098,45989
61106,46008
61109,46014
61121,46042
61135,46074
61146,46101
61154,46121
61160,46137
61164,46145
61164,46145
61171,46146
61187,46149
61210,46153
61238,46158
61268,46164
61299,46170
61329,46176
61356,46181
61376,46185
61389,46188
61392,46189
61396,46190
61398,46195
61400,46203
61401,46216
61402,46236
61402,46264
61402,46301
61402,46317
61402,46442
61372,46447
61356,46451
61331,46455
61301,46461
61268,46467
61260,46469
61230,46474
61204,46480
61184,46485
61172,46489
61170,46490
61165,46498
61159,46514
61151,46535
61149,46540
61139,46567
61127,46598
61115,46626
61115,46626
61095,46670
61161,46768
61228,46866
61142,46951
61116,46977
61093,46999
61073,47017
61058,47030
61049,47036
61048,47037
61040,47034
61025,47025
61004,47012
60978,46995
60951,46977
60923,46958
60897,46941
60877,46928
60863,46920
60857,46917
60849,46919
60834,46926
60815,46935
60814,46937
60788,46949
60771,46955
60761,46955
60755,46950
60755,46950
60752,46943
60746,46927
60736,46902
60723,46871
60708,46835
60691,46794
60674,46754
60656,46711
60640,46670
60625,46634
60613,46604
60604,46581
60598,46565
60597,46560
60601,46553
60613,46543
60628,46531
60671,46495
60706,46454
60730,46408
60744,46358
60747,46306
60744,46282
60732,46232
60711,46188
60683,46151
60648,46120
60609,46096
60566,46079
60520,46071
60474,46071
60428,46080
60384,46098
60342,46126
60325,46142
60292,46183
60268,46227
60255,46274
60252,46322
60258,46370
60274,46416
60299,46460
60333,46500
60371,46531
60387,46543
60398,46554
60402,46560
60400,46566
60394,46582
60385,46606
60372,46637
60358,46674
60341,46715
60325,46754
60306,46798
60290,46839
60275,46875
60262,46905
60253,46929
60246,46944
60244,46950
60238,46955
60228,46955
60211,46949
60186,46937
60185,46937
60167,46927
60151,46920
60143,46917
60142,46917
60136,46920
60122,46928
60101,46941
60076,46958
60048,46977
60020,46996
59994,47012
59973,47025
59958,47034
59951,47037
59945,47033
59931,47022
59913,47005
59890,46984
59865,46959
59857,46951
59771,46865
59836,46770
59856,46741
59873,46714
59887,46693
59897,46677
59901,46669
59901,46668
59899,46661
59893,46645
59884,46624
59878,46611
59867,46584
59856,46558
59847,46535
59845,46528
59839,46510
59832,46496
59829,46490
59821,46487
59804,46482
59781,46477
59752,46471
59740,46469
59707,46463
59676,46457
59650,46452
59630,46448
59627,46447
59597,46442
59597,46317
59597,46276
59597,46244
59598,46222
59599,46207
59600,46197
59602,46192
59605,46189
59607,46189
59614,46187
59630,46184
59654,46179
59682,46174
59712,46168
59744,46162
59773,46156
59799,46151
59819,46148
59832,46146
59835,46145
59837,46140
59843,46127
59850,46108
59853,46101
59864,46072
59878,46041
59890,46014
59899,45994
59905,45977
59907,45967
59907,45966
59903,45959
59893,45945
59879,45924
59862,45899
59842,45870
59838,45864
59815,45830
59799,45804
59787,45785
59781,45772
59778,45764
59779,45758
59779,45758
59784,45751
59797,45738
59815,45719
59837,45696
59862,45672
59865,45669
59896,45638
59920,45616
59938,45602
59949,45594
59954,45593
59962,45597
59977,45607
59998,45621
60024,45638
60054,45658
60060,45663
60157,45729
60201,45709
60228,45698
60257,45686
60281,45677
60282,45676
60302,45669
60316,45663
60324,45660
60324,45660
60326,45653
60330,45637
60335,45614
60341,45584
60347,45551
60348,45548
60354,45513
60360,45482
60365,45456
60369,45437
60371,45427
60371,45427
60372,45422
60375,45419
60380,45417
60389,45415
60403,45415
60425,45414
60455,45414
60494,45414
60500,45414
60540,45414
" /> 
<polyline style="fill-rule:evenodd;"
points="61741,47274
61764,47289
61775,47302
61783,47326
61784,47345
61782,47370
61724,47396
61695,47409
61677,47420
61667,47429
61665,47438
61671,47447
61677,47454
61694,47464
61713,47465
61730,47457
61743,47441
61745,47435
61756,47417
61768,47410
61785,47403
61785,47428
61784,47444
61778,47459
61765,47475
61764,47477
61750,47491
61738,47499
61723,47502
61711,47504
61689,47504
61673,47500
61663,47495
61648,47483
61637,47470
61630,47454
61627,47432
61625,47402
61625,47386
61626,47368
61660,47368
61661,47378
61662,47380
61668,47377
61682,47372
61701,47363
61705,47362
61729,47349
61742,47339
61745,47329
61738,47319
61733,47314
61712,47305
61693,47307
61676,47318
61665,47337
61662,47352
61660,47368
61626,47368
61626,47351
61629,47324
61634,47305
61643,47291
61656,47280
61661,47276
61687,47267
61714,47266
61741,47274
" /> 
<polyline style="fill-rule:evenodd;"
points="61544,47271
61551,47274
61567,47287
61581,47305
61590,47325
61591,47335
61586,47349
61576,47356
61565,47360
61560,47361
61557,47355
61552,47342
61550,47337
61538,47317
61521,47307
61499,47307
61497,47307
61485,47313
61476,47324
61470,47342
61467,47367
61465,47403
61465,47421
61465,47451
61465,47471
61463,47484
61461,47491
61457,47495
61451,47498
61451,47499
61439,47503
61434,47505
61433,47500
61432,47485
61431,47462
61431,47434
61431,47414
61431,47374
61433,47343
61435,47321
61440,47304
61447,47292
61457,47283
61467,47276
61491,47268
61518,47266
61544,47271
" /> 
<polyline style="fill-rule:evenodd;"
points="61344,47270
61360,47277
61373,47286
61383,47296
61389,47309
61393,47327
61396,47352
61397,47385
61397,47407
61397,47492
61382,47499
61371,47503
61365,47505
61364,47500
61363,47486
61362,47465
61362,47448
61362,47424
61361,47405
61359,47393
61357,47391
61347,47393
61331,47400
61313,47409
61295,47418
61281,47427
61275,47432
61275,47433
61276,47443
61281,47454
61289,47462
61302,47465
61313,47464
61328,47464
61336,47468
61341,47477
61341,47479
61343,47492
61338,47501
61323,47504
61307,47505
61279,47500
61265,47492
61247,47474
61237,47452
61236,47429
61244,47407
61256,47394
61269,47386
61288,47377
61310,47367
61314,47365
61338,47355
61352,47345
61357,47336
61352,47325
61345,47317
61328,47306
61309,47306
61292,47314
61279,47329
61278,47333
61268,47348
61254,47359
61237,47368
61237,47343
61238,47327
61242,47314
61252,47301
61261,47291
61276,47277
61287,47269
61300,47266
61314,47265
61344,47270
" /> 
<polyline style="fill-rule:evenodd;"
points="61200,47271
61201,47286
61202,47309
61202,47337
61202,47368
61202,47470
61184,47488
61172,47499
61161,47504
61146,47504
61140,47503
61121,47501
61106,47499
61102,47499
61090,47500
61072,47502
61065,47503
61048,47504
61036,47501
61025,47492
61020,47488
61002,47470
61002,47278
61017,47272
61029,47267
61037,47265
61039,47271
61040,47286
61042,47309
61043,47339
61044,47364
61045,47462
61059,47464
61071,47463
61077,47459
61079,47450
61080,47433
61082,47409
61082,47379
61082,47364
61082,47278
61100,47271
61113,47267
61120,47265
61120,47265
61121,47271
61122,47286
61122,47308
61123,47337
61124,47364
61125,47462
61160,47462
61161,47372
61163,47283
61179,47274
61192,47268
61199,47265
61199,47265
61200,47271
" /> 
<polyline style="fill-rule:evenodd;"
points="60968,47313
60968,47355
60968,47388
60967,47413
60966,47431
60964,47443
60962,47453
60959,47460
60957,47464
60937,47486
60913,47500
60885,47505
60858,47500
60842,47492
60825,47478
60813,47461
60806,47438
60803,47407
60802,47385
60802,47384
60842,47384
60843,47409
60844,47426
60846,47437
60851,47445
60856,47451
60875,47463
60895,47464
60913,47454
60915,47453
60921,47446
60925,47438
60927,47426
60928,47407
60928,47386
60928,47360
60927,47342
60924,47331
60919,47323
60916,47318
60898,47307
60878,47306
60859,47315
60856,47318
60849,47325
60845,47333
60843,47345
60842,47364
60842,47384
60802,47384
60804,47349
60808,47322
60817,47302
60831,47286
60842,47278
60861,47269
60884,47265
60905,47266
60917,47271
60921,47272
60924,47267
60926,47255
60928,47236
60930,47215
60932,47202
60937,47195
60945,47190
60950,47188
60968,47180
60968,47313
" /> 
<polyline style="fill-rule:evenodd;"
points="60708,47267
60734,47277
60755,47294
60763,47306
60772,47327
60772,47343
60763,47354
60759,47356
60744,47361
60737,47360
60734,47350
60734,47345
60729,47326
60717,47312
60699,47306
60680,47308
60664,47316
60659,47321
60655,47327
60653,47336
60651,47350
60650,47370
60649,47400
60649,47410
60648,47442
60647,47465
60646,47480
60644,47489
60641,47494
60636,47497
60633,47499
60620,47504
60613,47505
60610,47500
60609,47484
60608,47457
60609,47418
60609,47412
60610,47377
60611,47352
60612,47334
60614,47321
60618,47312
60622,47304
60624,47301
60637,47286
60652,47275
60654,47274
60680,47266
60708,47267
" /> 
<polyline style="fill-rule:evenodd;"
points="60515,47268
60538,47276
60538,47276
60552,47286
60562,47298
60569,47314
60574,47335
60577,47363
60578,47401
60578,47406
60581,47487
60563,47496
60551,47502
60543,47505
60543,47505
60541,47500
60540,47486
60540,47465
60540,47448
60539,47420
60538,47403
60534,47395
60525,47394
60508,47401
60484,47412
60466,47422
60457,47430
60454,47439
60454,47439
60458,47455
60472,47463
60492,47464
60507,47464
60514,47468
60519,47478
60522,47491
60518,47499
60516,47500
60502,47504
60482,47505
60462,47502
60447,47497
60427,47480
60416,47456
60414,47437
60416,47421
60422,47407
60434,47395
60454,47383
60483,47369
60485,47369
60512,47356
60528,47346
60535,47337
60533,47328
60524,47318
60521,47315
60503,47306
60484,47306
60467,47315
60456,47332
60455,47336
60445,47352
60432,47360
60414,47368
60414,47348
60419,47318
60436,47292
60445,47283
60464,47271
60489,47266
60515,47268
" /> 
<polyline style="fill-rule:evenodd;"
points="60254,47228
60255,47252
60257,47265
60260,47271
60264,47272
60265,47271
60282,47266
60304,47266
60326,47271
60340,47278
60354,47289
60365,47302
60372,47318
60376,47339
60379,47367
60379,47405
60379,47412
60380,47493
60362,47499
60349,47503
60342,47505
60342,47505
60341,47500
60340,47485
60340,47463
60340,47435
60340,47418
60339,47384
60339,47360
60338,47344
60336,47333
60333,47326
60329,47320
60326,47318
60308,47307
60288,47306
60270,47315
60266,47318
60261,47324
60258,47332
60256,47342
60254,47358
60254,47381
60254,47412
60254,47493
60236,47499
60223,47503
60216,47505
60216,47505
60215,47500
60215,47484
60214,47460
60214,47429
60214,47393
60214,47352
60214,47196
60232,47188
60251,47180
60254,47228
" /> 
<polyline style="fill-rule:evenodd;"
points="59778,47260
59801,47275
59818,47297
59829,47325
59831,47345
59831,47354
59829,47360
59823,47366
59812,47373
59795,47381
59768,47393
59768,47393
59744,47404
59724,47414
59710,47422
59705,47426
59705,47426
59710,47435
59720,47445
59732,47452
59738,47454
59755,47449
59769,47436
59776,47423
59783,47412
59796,47401
59811,47391
59825,47386
59828,47385
59831,47390
59831,47403
59829,47420
59824,47438
59818,47453
59818,47454
59800,47479
59776,47497
59749,47505
59721,47504
59695,47493
59694,47492
59673,47473
59659,47448
59651,47416
59650,47407
59648,47363
59650,47343
59705,47343
59706,47356
59710,47359
59720,47357
59735,47350
59752,47342
59752,47342
59767,47334
59773,47329
59771,47324
59765,47317
59750,47307
59733,47306
59718,47313
59708,47327
59705,47343
59650,47343
59652,47329
59662,47301
59675,47282
59699,47262
59726,47253
59753,47252
59778,47260
" /> 
<polyline style="fill-rule:evenodd;"
points="59335,47256
59361,47270
59381,47293
59388,47307
59394,47329
59396,47357
59397,47387
59395,47417
59390,47442
59384,47460
59382,47464
59358,47487
59330,47501
59299,47505
59268,47499
59260,47495
59243,47483
59228,47468
59227,47466
59221,47456
59217,47446
59215,47433
59214,47413
59214,47386
59214,47380
59214,47378
59271,47378
59271,47404
59273,47421
59275,47432
59280,47440
59282,47442
59296,47452
59309,47452
59323,47443
59331,47434
59335,47421
59338,47400
59338,47398
59339,47360
59334,47332
59324,47314
59309,47306
59304,47305
59290,47307
59280,47315
59274,47330
59271,47353
59271,47378
59214,47378
59214,47350
59215,47329
59217,47315
59220,47305
59225,47295
59227,47294
59246,47270
59267,47257
59293,47252
59302,47251
59335,47256
" /> 
<polyline style="fill-rule:evenodd;"
points="59994,47258
60012,47269
60025,47280
60034,47291
60041,47304
60045,47322
60047,47346
60048,47379
60048,47402
60048,47489
60024,47500
60000,47510
59997,47416
59995,47381
59994,47355
59993,47337
59991,47326
59988,47319
59984,47314
59983,47313
59964,47306
59945,47309
59934,47317
59929,47322
59926,47330
59924,47341
59923,47357
59922,47382
59922,47408
59922,47440
59922,47463
59920,47478
59916,47488
59909,47495
59899,47500
59885,47505
59870,47511
59872,47409
59873,47373
59874,47346
59875,47327
59877,47313
59879,47303
59883,47296
59888,47289
59909,47267
59936,47255
59965,47252
59994,47258
" /> 
<polyline style="fill-rule:evenodd;"
points="59555,47255
59576,47266
59596,47286
59601,47294
59607,47303
59610,47314
59613,47328
59614,47348
59614,47375
59613,47412
59609,47440
59603,47460
59593,47476
59578,47489
59577,47490
59563,47497
59546,47501
59524,47502
59488,47502
59488,47537
59488,47556
59486,47568
59480,47574
59470,47580
59468,47581
59456,47587
59448,47590
59441,47591
59437,47587
59434,47577
59432,47561
59431,47537
59431,47505
59432,47462
59432,47450
59433,47406
59433,47377
59488,47377
59488,47401
59490,47417
59493,47428
59498,47436
59502,47440
59517,47451
59531,47452
59545,47443
59545,47442
59551,47435
59554,47425
59556,47410
59557,47386
59557,47381
59555,47348
59551,47326
59543,47312
59532,47306
59525,47305
59509,47308
59498,47318
59491,47335
59488,47362
59488,47377
59433,47377
59433,47372
59434,47346
59435,47327
59437,47314
59439,47305
59442,47298
59445,47292
59447,47289
59469,47268
59496,47255
59527,47252
59555,47255
" /> 
</g>
<g style="fill:#000000; fill-opacity:0.0; 
stroke:#000000; stroke-width:3.93701; stroke-opacity:1; 
stroke-linecap:round; stroke-linejoin:round;">
</g>
<g style="fill:#000000; fill-opacity:0.0; 
stroke:#000000; stroke-width:59.0551; stroke-opacity:1; 
stroke-linecap:round; stroke-linejoin:round;">
<path d="M55910 42534
L55892 42553
L55835 42571
L55798 42571
L55742 42553
L55704 42515
L55685 42478
L55667 42403
L55667 42346
L55685 42271
L55704 42234
L55742 42196
L55798 42178
L55835 42178
L55892 42196
L55910 42215
" />
<path d="M56285 42571
L56060 42571
" />
<path d="M56173 42571
L56173 42178
L56135 42234
L56098 42271
L56060 42290
" />
<path d="M54078 44178
L53853 44178
" />
<path d="M53965 44178
L53965 43784
L53928 43840
L53890 43878
L53853 43896
" />
<path d="M54321 43784
L54359 43784
L54396 43803
L54415 43821
L54434 43859
L54453 43934
L54453 44028
L54434 44103
L54415 44140
L54396 44159
L54359 44178
L54321 44178
L54284 44159
L54265 44140
L54246 44103
L54228 44028
L54228 43934
L54246 43859
L54265 43821
L54284 43803
L54321 43784
" />
<path d="M54790 43915
L54790 44178
" />
<path d="M54621 43915
L54621 44121
L54640 44159
L54678 44178
L54734 44178
L54771 44159
L54790 44140
" />
<path d="M55109 43971
L54978 43971
" />
<path d="M54978 44178
L54978 43784
L55165 43784
" />
<path d="M56166 39632
L56147 39651
L56091 39670
L56054 39670
L55997 39651
L55960 39613
L55941 39576
L55922 39501
L55922 39445
L55941 39370
L55960 39332
L55997 39295
L56054 39276
L56091 39276
L56147 39295
L56166 39314
" />
<path d="M56316 39314
L56335 39295
L56372 39276
L56466 39276
L56504 39295
L56522 39314
L56541 39351
L56541 39389
L56522 39445
L56297 39670
L56541 39670
" />
<path d="M53890 41178
L53665 41178
" />
<path d="M53778 41178
L53778 40784
L53740 40840
L53703 40878
L53665 40896
" />
<path d="M54134 40784
L54171 40784
L54209 40803
L54228 40821
L54246 40859
L54265 40934
L54265 41028
L54246 41103
L54228 41140
L54209 41159
L54171 41178
L54134 41178
L54096 41159
L54078 41140
L54059 41103
L54040 41028
L54040 40934
L54059 40859
L54078 40821
L54096 40803
L54134 40784
" />
<path d="M54509 40784
L54546 40784
L54584 40803
L54603 40821
L54621 40859
L54640 40934
L54640 41028
L54621 41103
L54603 41140
L54584 41159
L54546 41178
L54509 41178
L54471 41159
L54453 41140
L54434 41103
L54415 41028
L54415 40934
L54434 40859
L54453 40821
L54471 40803
L54509 40784
" />
<path d="M54978 40915
L54978 41178
" />
<path d="M54809 40915
L54809 41121
L54828 41159
L54865 41178
L54921 41178
L54959 41159
L54978 41140
" />
<path d="M55296 40971
L55165 40971
" />
<path d="M55165 41178
L55165 40784
L55353 40784
" />
<path d="M56166 36132
L56147 36151
L56091 36170
L56054 36170
L55997 36151
L55960 36113
L55941 36076
L55922 36001
L55922 35945
L55941 35870
L55960 35832
L55997 35795
L56054 35776
L56091 35776
L56147 35795
L56166 35814
" />
<path d="M56297 35776
L56541 35776
L56410 35926
L56466 35926
L56504 35945
L56522 35964
L56541 36001
L56541 36095
L56522 36132
L56504 36151
L56466 36170
L56354 36170
L56316 36151
L56297 36132
" />
<path d="M53890 37678
L53665 37678
" />
<path d="M53778 37678
L53778 37284
L53740 37340
L53703 37378
L53665 37396
" />
<path d="M54134 37284
L54171 37284
L54209 37303
L54228 37321
L54246 37359
L54265 37434
L54265 37528
L54246 37603
L54228 37640
L54209 37659
L54171 37678
L54134 37678
L54096 37659
L54078 37640
L54059 37603
L54040 37528
L54040 37434
L54059 37359
L54078 37321
L54096 37303
L54134 37284
" />
<path d="M54509 37284
L54546 37284
L54584 37303
L54603 37321
L54621 37359
L54640 37434
L54640 37528
L54621 37603
L54603 37640
L54584 37659
L54546 37678
L54509 37678
L54471 37659
L54453 37640
L54434 37603
L54415 37528
L54415 37434
L54434 37359
L54453 37321
L54471 37303
L54509 37284
" />
<path d="M54978 37415
L54978 37678
" />
<path d="M54809 37415
L54809 37621
L54828 37659
L54865 37678
L54921 37678
L54959 37659
L54978 37640
" />
<path d="M55296 37471
L55165 37471
" />
<path d="M55165 37678
L55165 37284
L55353 37284
" />
<path d="M43868 35784
L43868 36065
L43850 36121
L43812 36159
L43756 36178
L43718 36178
" />
<path d="M44262 36178
L44037 36178
" />
<path d="M44149 36178
L44149 35784
L44112 35840
L44074 35878
L44037 35896
" />
<path d="M57671 38201
L57671 38482
L57653 38539
L57615 38576
L57559 38595
L57521 38595
" />
<path d="M57859 38595
L57859 38201
L58009 38201
L58046 38220
L58065 38239
L58084 38276
L58084 38332
L58065 38370
L58046 38389
L58009 38407
L57859 38407
" />
<path d="M58459 38595
L58234 38595
" />
<path d="M58346 38595
L58346 38201
L58309 38257
L58271 38295
L58234 38314
" />
<path d="M62462 37215
L62425 37196
L62387 37159
L62331 37103
L62293 37084
L62256 37084
" />
<path d="M62275 37178
L62237 37159
L62200 37121
L62181 37046
L62181 36915
L62200 36840
L62237 36803
L62275 36784
L62350 36784
L62387 36803
L62425 36840
L62443 36915
L62443 37046
L62425 37121
L62387 37159
L62350 37178
L62275 37178
" />
<path d="M62818 37178
L62593 37178
" />
<path d="M62706 37178
L62706 36784
L62668 36840
L62631 36878
L62593 36896
" />
<path d="M60268 38371
L60325 38390
L60343 38409
L60362 38446
L60362 38503
L60343 38540
L60325 38559
L60287 38578
L60137 38578
L60137 38184
L60268 38184
L60306 38203
L60325 38221
L60343 38259
L60343 38296
L60325 38334
L60306 38353
L60268 38371
L60137 38371
" />
<path d="M60756 38540
L60737 38559
L60681 38578
L60643 38578
L60587 38559
L60550 38521
L60531 38484
L60512 38409
L60512 38353
L60531 38278
L60550 38240
L60587 38203
L60643 38184
L60681 38184
L60737 38203
L60756 38221
" />
<path d="M61112 38184
L60925 38184
L60906 38371
L60925 38353
L60962 38334
L61056 38334
L61093 38353
L61112 38371
L61131 38409
L61131 38503
L61112 38540
L61093 38559
L61056 38578
L60962 38578
L60925 38559
L60906 38540
" />
<path d="M61468 38315
L61468 38578
" />
<path d="M61374 38165
L61281 38446
L61524 38446
" />
<path d="M61731 38353
L61693 38334
L61674 38315
L61656 38278
L61656 38259
L61674 38221
L61693 38203
L61731 38184
L61806 38184
L61843 38203
L61862 38221
L61881 38259
L61881 38278
L61862 38315
L61843 38334
L61806 38353
L61731 38353
L61693 38371
L61674 38390
L61656 38428
L61656 38503
L61674 38540
L61693 38559
L61731 38578
L61806 38578
L61843 38559
L61862 38540
L61881 38503
L61881 38428
L61862 38390
L61843 38371
L61806 38353
" />
<path d="M51934 39678
L51803 39490
" />
<path d="M51709 39678
L51709 39284
L51859 39284
L51896 39303
L51915 39321
L51934 39359
L51934 39415
L51915 39453
L51896 39471
L51859 39490
L51709 39490
" />
<path d="M52309 39678
L52084 39678
" />
<path d="M52196 39678
L52196 39284
L52159 39340
L52121 39378
L52084 39396
" />
<path d="M48718 39284
L48531 39284
L48512 39471
L48531 39453
L48568 39434
L48662 39434
L48700 39453
L48718 39471
L48737 39509
L48737 39603
L48718 39640
L48700 39659
L48662 39678
L48568 39678
L48531 39659
L48512 39640
" />
<path d="M49074 39284
L49000 39284
L48962 39303
L48943 39321
L48906 39378
L48887 39453
L48887 39603
L48906 39640
L48925 39659
L48962 39678
L49037 39678
L49074 39659
L49093 39640
L49112 39603
L49112 39509
L49093 39471
L49074 39453
L49037 39434
L48962 39434
L48925 39453
L48906 39471
L48887 39509
" />
<path d="M49356 39284
L49393 39284
L49431 39303
L49449 39321
L49468 39359
L49487 39434
L49487 39528
L49468 39603
L49449 39640
L49431 39659
L49393 39678
L49356 39678
L49318 39659
L49299 39640
L49281 39603
L49262 39528
L49262 39434
L49281 39359
L49299 39321
L49318 39303
L49356 39284
" />
<path d="M51934 41178
L51803 40990
" />
<path d="M51709 41178
L51709 40784
L51859 40784
L51896 40803
L51915 40821
L51934 40859
L51934 40915
L51915 40953
L51896 40971
L51859 40990
L51709 40990
" />
<path d="M52084 40821
L52103 40803
L52140 40784
L52234 40784
L52271 40803
L52290 40821
L52309 40859
L52309 40896
L52290 40953
L52065 41178
L52309 41178
" />
<path d="M48681 40784
L48925 40784
L48793 40934
L48850 40934
L48887 40953
L48906 40971
L48925 41009
L48925 41103
L48906 41140
L48887 41159
L48850 41178
L48737 41178
L48700 41159
L48681 41140
" />
<path d="M49056 40784
L49299 40784
L49168 40934
L49224 40934
L49262 40953
L49281 40971
L49299 41009
L49299 41103
L49281 41140
L49262 41159
L49224 41178
L49112 41178
L49074 41159
L49056 41140
" />
<path d="M51934 42678
L51803 42490
" />
<path d="M51709 42678
L51709 42284
L51859 42284
L51896 42303
L51915 42321
L51934 42359
L51934 42415
L51915 42453
L51896 42471
L51859 42490
L51709 42490
" />
<path d="M52065 42284
L52309 42284
L52178 42434
L52234 42434
L52271 42453
L52290 42471
L52309 42509
L52309 42603
L52290 42640
L52271 42659
L52234 42678
L52121 42678
L52084 42659
L52065 42640
" />
<path d="M48728 42678
L48503 42678
" />
<path d="M48615 42678
L48615 42284
L48578 42340
L48540 42378
L48503 42396
" />
<path d="M49084 42284
L48896 42284
L48878 42471
L48896 42453
L48934 42434
L49028 42434
L49065 42453
L49084 42471
L49103 42509
L49103 42603
L49084 42640
L49065 42659
L49028 42678
L48934 42678
L48896 42659
L48878 42640
" />
<path d="M49271 42678
L49271 42284
" />
<path d="M49496 42678
L49328 42453
" />
<path d="M49496 42284
L49271 42509
" />
<path d="M51934 38178
L51803 37990
" />
<path d="M51709 38178
L51709 37784
L51859 37784
L51896 37803
L51915 37821
L51934 37859
L51934 37915
L51915 37953
L51896 37971
L51859 37990
L51709 37990
" />
<path d="M52271 37915
L52271 38178
" />
<path d="M52178 37765
L52084 38046
L52328 38046
" />
<path d="M48296 37784
L48540 37784
L48409 37934
L48465 37934
L48503 37953
L48521 37971
L48540 38009
L48540 38103
L48521 38140
L48503 38159
L48465 38178
L48353 38178
L48315 38159
L48296 38140
" />
<path d="M48671 37784
L48915 37784
L48784 37934
L48840 37934
L48878 37953
L48896 37971
L48915 38009
L48915 38103
L48896 38140
L48878 38159
L48840 38178
L48728 38178
L48690 38159
L48671 38140
" />
<path d="M49159 37784
L49196 37784
L49234 37803
L49253 37821
L49271 37859
L49290 37934
L49290 38028
L49271 38103
L49253 38140
L49234 38159
L49196 38178
L49159 38178
L49121 38159
L49103 38140
L49084 38103
L49065 38028
L49065 37934
L49084 37859
L49103 37821
L49121 37803
L49159 37784
" />
<path d="M49459 38178
L49459 37784
" />
<path d="M49684 38178
L49515 37953
" />
<path d="M49684 37784
L49459 38009
" />
<path d="M56934 42678
L56803 42490
" />
<path d="M56709 42678
L56709 42284
L56859 42284
L56896 42303
L56915 42321
L56934 42359
L56934 42415
L56915 42453
L56896 42471
L56859 42490
L56709 42490
" />
<path d="M57290 42284
L57103 42284
L57084 42471
L57103 42453
L57140 42434
L57234 42434
L57271 42453
L57290 42471
L57309 42509
L57309 42603
L57290 42640
L57271 42659
L57234 42678
L57140 42678
L57103 42659
L57084 42640
" />
<path d="M59540 42678
L59315 42678
" />
<path d="M59428 42678
L59428 42284
L59390 42340
L59353 42378
L59315 42396
" />
<path d="M59784 42284
L59821 42284
L59859 42303
L59878 42321
L59896 42359
L59915 42434
L59915 42528
L59896 42603
L59878 42640
L59859 42659
L59821 42678
L59784 42678
L59746 42659
L59728 42640
L59709 42603
L59690 42528
L59690 42434
L59709 42359
L59728 42321
L59746 42303
L59784 42284
" />
<path d="M60159 42284
L60196 42284
L60234 42303
L60253 42321
L60271 42359
L60290 42434
L60290 42528
L60271 42603
L60253 42640
L60234 42659
L60196 42678
L60159 42678
L60121 42659
L60103 42640
L60084 42603
L60065 42528
L60065 42434
L60084 42359
L60103 42321
L60121 42303
L60159 42284
" />
<path d="M60459 42678
L60459 42284
" />
<path d="M60684 42678
L60515 42453
" />
<path d="M60684 42284
L60459 42509
" />
<path d="M51934 36678
L51803 36490
" />
<path d="M51709 36678
L51709 36284
L51859 36284
L51896 36303
L51915 36321
L51934 36359
L51934 36415
L51915 36453
L51896 36471
L51859 36490
L51709 36490
" />
<path d="M52271 36284
L52196 36284
L52159 36303
L52140 36321
L52103 36378
L52084 36453
L52084 36603
L52103 36640
L52121 36659
L52159 36678
L52234 36678
L52271 36659
L52290 36640
L52309 36603
L52309 36509
L52290 36471
L52271 36453
L52234 36434
L52159 36434
L52121 36453
L52103 36471
L52084 36509
" />
<path d="M48728 36678
L48503 36678
" />
<path d="M48615 36678
L48615 36284
L48578 36340
L48540 36378
L48503 36396
" />
<path d="M48878 36321
L48896 36303
L48934 36284
L49028 36284
L49065 36303
L49084 36321
L49103 36359
L49103 36396
L49084 36453
L48859 36678
L49103 36678
" />
<path d="M49271 36678
L49271 36284
" />
<path d="M49496 36678
L49328 36453
" />
<path d="M49496 36284
L49271 36509
" />
<path d="M56934 41178
L56803 40990
" />
<path d="M56709 41178
L56709 40784
L56859 40784
L56896 40803
L56915 40821
L56934 40859
L56934 40915
L56915 40953
L56896 40971
L56859 40990
L56709 40990
" />
<path d="M57065 40784
L57328 40784
L57159 41178
" />
<path d="M59390 40784
L59634 40784
L59503 40934
L59559 40934
L59596 40953
L59615 40971
L59634 41009
L59634 41103
L59615 41140
L59596 41159
L59559 41178
L59446 41178
L59409 41159
L59390 41140
" />
<path d="M59821 41159
L59821 41178
L59803 41215
L59784 41234
" />
<path d="M60009 41178
L60084 41178
L60121 41159
L60140 41140
L60178 41084
L60196 41009
L60196 40859
L60178 40821
L60159 40803
L60121 40784
L60046 40784
L60009 40803
L59990 40821
L59971 40859
L59971 40953
L59990 40990
L60009 41009
L60046 41028
L60121 41028
L60159 41009
L60178 40990
L60196 40953
" />
<path d="M60365 41178
L60365 40784
" />
<path d="M60590 41178
L60421 40953
" />
<path d="M60590 40784
L60365 41009
" />
<path d="M56934 44178
L56803 43990
" />
<path d="M56709 44178
L56709 43784
L56859 43784
L56896 43803
L56915 43821
L56934 43859
L56934 43915
L56915 43953
L56896 43971
L56859 43990
L56709 43990
" />
<path d="M57159 43953
L57121 43934
L57103 43915
L57084 43878
L57084 43859
L57103 43821
L57121 43803
L57159 43784
L57234 43784
L57271 43803
L57290 43821
L57309 43859
L57309 43878
L57290 43915
L57271 43934
L57234 43953
L57159 43953
L57121 43971
L57103 43990
L57084 44028
L57084 44103
L57103 44140
L57121 44159
L57159 44178
L57234 44178
L57271 44159
L57290 44140
L57309 44103
L57309 44028
L57290 43990
L57271 43971
L57234 43953
" />
<path d="M59728 44178
L59503 44178
" />
<path d="M59615 44178
L59615 43784
L59578 43840
L59540 43878
L59503 43896
" />
<path d="M59878 43821
L59896 43803
L59934 43784
L60028 43784
L60065 43803
L60084 43821
L60103 43859
L60103 43896
L60084 43953
L59859 44178
L60103 44178
" />
<path d="M60271 44178
L60271 43784
" />
<path d="M60496 44178
L60328 43953
" />
<path d="M60496 43784
L60271 44009
" />
<path d="M52003 48284
L52228 48284
" />
<path d="M52115 48678
L52115 48284
" />
<path d="M52359 48678
L52359 48284
L52509 48284
L52546 48303
L52565 48321
L52584 48359
L52584 48415
L52565 48453
L52546 48471
L52509 48490
L52359 48490
" />
<path d="M52959 48678
L52734 48678
" />
<path d="M52846 48678
L52846 48284
L52809 48340
L52771 48378
L52734 48396
" />
<path d="M51112 46565
L51300 46565
" />
<path d="M51075 46678
L51206 46284
L51337 46678
" />
<path d="M51412 46415
L51562 46415
" />
<path d="M51468 46284
L51468 46621
L51487 46659
L51525 46678
L51562 46678
" />
<path d="M51843 46659
L51806 46678
L51731 46678
L51693 46659
L51675 46621
L51675 46471
L51693 46434
L51731 46415
L51806 46415
L51843 46434
L51862 46471
L51862 46509
L51675 46546
" />
<path d="M52031 46415
L52031 46678
" />
<path d="M52031 46453
L52050 46434
L52087 46415
L52143 46415
L52181 46434
L52200 46471
L52200 46678
" />
<path d="M52556 46415
L52556 46678
" />
<path d="M52387 46415
L52387 46621
L52406 46659
L52443 46678
L52500 46678
L52537 46659
L52556 46640
" />
<path d="M52912 46678
L52912 46471
L52893 46434
L52856 46415
L52781 46415
L52743 46434
" />
<path d="M52912 46659
L52874 46678
L52781 46678
L52743 46659
L52724 46621
L52724 46584
L52743 46546
L52781 46528
L52874 46528
L52912 46509
" />
<path d="M53268 46678
L53268 46284
" />
<path d="M53268 46659
L53231 46678
L53156 46678
L53118 46659
L53099 46640
L53081 46603
L53081 46490
L53099 46453
L53118 46434
L53156 46415
L53231 46415
L53268 46434
" />
<path d="M53512 46678
L53474 46659
L53456 46640
L53437 46603
L53437 46490
L53456 46453
L53474 46434
L53512 46415
L53568 46415
L53606 46434
L53624 46453
L53643 46490
L53643 46603
L53624 46640
L53606 46659
L53568 46678
L53512 46678
" />
<path d="M53812 46678
L53812 46415
" />
<path d="M53812 46490
L53831 46453
L53849 46434
L53887 46415
L53924 46415
" />
<path d="M54503 48284
L54728 48284
" />
<path d="M54615 48678
L54615 48284
" />
<path d="M54859 48678
L54859 48284
L55009 48284
L55046 48303
L55065 48321
L55084 48359
L55084 48415
L55065 48453
L55046 48471
L55009 48490
L54859 48490
" />
<path d="M55234 48321
L55253 48303
L55290 48284
L55384 48284
L55421 48303
L55440 48321
L55459 48359
L55459 48396
L55440 48453
L55215 48678
L55459 48678
" />
<path d="M54671 46284
L54803 46678
L54934 46284
" />
<path d="M55196 46471
L55253 46490
L55271 46509
L55290 46546
L55290 46603
L55271 46640
L55253 46659
L55215 46678
L55065 46678
L55065 46284
L55196 46284
L55234 46303
L55253 46321
L55271 46359
L55271 46396
L55253 46434
L55234 46453
L55196 46471
L55065 46471
" />
<path d="M57003 48284
L57228 48284
" />
<path d="M57115 48678
L57115 48284
" />
<path d="M57359 48678
L57359 48284
L57509 48284
L57546 48303
L57565 48321
L57584 48359
L57584 48415
L57565 48453
L57546 48471
L57509 48490
L57359 48490
" />
<path d="M57715 48284
L57959 48284
L57828 48434
L57884 48434
L57921 48453
L57940 48471
L57959 48509
L57959 48603
L57940 48640
L57921 48659
L57884 48678
L57771 48678
L57734 48659
L57715 48640
" />
<path d="M57209 46284
L57340 46678
L57471 46284
" />
<path d="M57790 46678
L57603 46678
L57603 46284
" />
<path d="M49503 48384
L49728 48384
" />
<path d="M49615 48778
L49615 48384
" />
<path d="M49859 48778
L49859 48384
L50009 48384
L50046 48403
L50065 48421
L50084 48459
L50084 48515
L50065 48553
L50046 48571
L50009 48590
L49859 48590
" />
<path d="M50421 48515
L50421 48778
" />
<path d="M50328 48365
L50234 48646
L50478 48646
" />
<path d="M49700 46303
L49662 46284
L49606 46284
L49550 46303
L49512 46340
L49493 46378
L49475 46453
L49475 46509
L49493 46584
L49512 46621
L49550 46659
L49606 46678
L49643 46678
L49700 46659
L49718 46640
L49718 46509
L49643 46509
" />
<path d="M49887 46678
L49887 46284
L50112 46678
L50112 46284
" />
<path d="M50299 46678
L50299 46284
L50393 46284
L50449 46303
L50487 46340
L50506 46378
L50524 46453
L50524 46509
L50506 46584
L50487 46621
L50449 46659
L50393 46678
L50299 46678
" />
</g> 
</svg>
